<svg width="1308" height="1611" viewBox="0 0 1308 1611" fill="none" xmlns="http://www.w3.org/2000/svg">
<g clip-path="url(#clip0_8915_4870)">
<rect width="1308" height="1611" fill="white"/>
<rect x="-0.00195312" y="793.598" width="1444.1" height="1352.91" transform="rotate(-90 -0.00195312 793.598)" fill="#BCDFF1"/>
<path d="M79.4474 716.213C79.6997 713.857 82.7008 705.816 87.998 698.429C90.1219 695.467 92.8963 694.094 96.9625 693.473C103.234 692.515 109.334 694.377 113.315 696.704C119.653 700.409 125.106 711.236 130.28 716.934C134.654 721.751 143.784 712.397 149.457 709.251C155.336 705.991 162.272 705.283 173.024 705.407C180.793 707.94 184.987 710.474 187.738 712.807C189.129 714.077 190.509 715.522 193.76 719.635" stroke="#7AC6EE" stroke-width="4" stroke-linecap="round"/>
<path d="M98.4465 613.787C98.6587 612.165 101.169 606.628 105.595 601.54C107.37 599.5 109.686 598.553 113.08 598.123C118.315 597.459 123.405 598.736 126.726 600.335C132.012 602.881 136.557 610.329 140.87 614.247C144.518 617.56 152.144 611.115 156.881 608.946C161.79 606.698 167.579 606.206 176.552 606.284C183.035 608.022 186.533 609.763 188.828 611.367C189.987 612.24 191.138 613.233 193.848 616.062" stroke="#7AC6EE" stroke-width="4" stroke-linecap="round"/>
<rect opacity="0.5" width="217.191" height="1342.16" transform="matrix(4.37114e-08 1 1 -4.37114e-08 3.04492 1103.27)" fill="#DCE9B9"/>
<rect opacity="0.5" x="3.04492" y="1103.27" width="307.924" height="1368.58" transform="rotate(-90 3.04492 1103.27)" fill="#D9D9D9"/>
<rect x="198.297" y="1215.83" width="32.8223" height="98.3799" transform="rotate(-90 198.297 1215.83)" fill="#D9D9D9"/>
<path d="M39.3887 1474.65L39.3887 1201.75L442.046 1206.81L442.046 1474.65L39.3887 1474.65Z" fill="#D9D9D9"/>
<path d="M570.388 1452.81L561.704 1445.27L542.131 1341.97L542.131 1222.36L727.658 1215.09L826.08 1211.88L912.423 1218.73L920.358 1452.81L758.763 1467.36L570.388 1452.81Z" fill="#D9D9D9"/>
<path d="M914.631 954.287L914.631 892.893L1317.69 888.322L1317.69 954.287L914.631 954.287Z" fill="#DCE9B9"/>
<path d="M909.387 892.264C920.522 892.264 959.787 893.254 986.739 894.298C1000.56 894.834 1026.02 894.581 1043.09 894.566C1081.16 894.534 1095.55 893.253 1104.53 892.487C1114.56 891.634 1147.81 891.228 1176.21 890.336C1184.81 890.066 1192.89 889.221 1214.45 888.879C1255.72 888.65 1285.31 888.672 1291.51 888.969C1295.63 889.119 1301.72 889.271 1308 889.427" stroke="black" stroke-width="4" stroke-linecap="round"/>
<path d="M3.04492 795.352L1327.59 795.352" stroke="black" stroke-width="4" stroke-linecap="round"/>
<path d="M2.03516 1103.27L5.94584e+06 1102.55" stroke="black" stroke-width="4" stroke-linecap="round"/>
<path d="M107.635 1023.04C115.386 1023.04 134.181 1023.66 144.514 1024.08C148.749 1024.39 152.637 1024.84 156.671 1025.29C158.669 1025.49 160.57 1025.64 162.529 1025.79" stroke="#F7B500" stroke-width="4" stroke-linecap="round"/>
<path d="M9.59375 1023.04C17.3465 1023.04 36.1461 1023.66 46.4814 1024.08C50.7175 1024.39 54.6065 1024.84 58.6407 1025.29C60.6398 1025.49 62.5413 1025.64 64.5004 1025.79" stroke="#F7B500" stroke-width="4" stroke-linecap="round"/>
<path d="M217.24 1023.06L283.692 1023.06" stroke="#F7B500" stroke-width="4" stroke-linecap="round"/>
<path d="M348.928 1022.04L413.606 1022.04" stroke="#F7B500" stroke-width="4" stroke-linecap="round"/>
<path d="M492.764 1020.33C492.819 1020.33 492.874 1020.33 503.489 1020.33C514.105 1020.33 535.28 1020.33 557.424 1019.83" stroke="#F7B500" stroke-width="4" stroke-linecap="round"/>
<path d="M634.387 1020.83C634.501 1020.83 634.615 1020.83 646.324 1020.83C658.034 1020.83 681.336 1020.83 706.236 1020.42" stroke="#F7B500" stroke-width="4" stroke-linecap="round"/>
<path d="M774.557 1020.46C774.557 1020.53 774.557 1020.59 785.191 1020.65C795.826 1020.72 817.095 1020.78 839.211 1020.66" stroke="#F7B500" stroke-width="4" stroke-linecap="round"/>
<path d="M908.387 1020.83C908.501 1020.83 908.615 1020.83 920.324 1020.83C932.034 1020.83 955.336 1020.83 980.236 1020.42" stroke="#F7B500" stroke-width="4" stroke-linecap="round"/>
<path d="M597.346 1219.36L597.346 1196.53L656.947 1196.53L660.532 1219.36L597.346 1219.36Z" fill="#D9D9D9"/>
<path d="M779.932 1219.36L783.184 1192.11L859.87 1195.39L859.87 1213.62L779.932 1219.36Z" fill="#D9D9D9"/>
<path d="M1048.56 1020.46C1048.56 1020.53 1048.56 1020.59 1059.19 1020.65C1069.83 1020.72 1091.1 1020.78 1113.21 1020.66" stroke="#F7B500" stroke-width="4" stroke-linecap="round"/>
<path d="M1048.56 1020.46C1048.56 1020.53 1048.56 1020.59 1059.19 1020.65C1069.83 1020.72 1091.1 1020.78 1113.21 1020.66" stroke="#F7B500" stroke-width="4" stroke-linecap="round"/>
<path d="M1160.56 1020.46C1160.56 1020.53 1160.56 1020.59 1171.19 1020.65C1181.83 1020.72 1203.1 1020.78 1225.21 1020.66" stroke="#F7B500" stroke-width="4" stroke-linecap="round"/>
<path d="M1263 1020.46C1263 1020.53 1263 1020.59 1273.63 1020.65C1284.27 1020.72 1305.54 1020.78 1327.65 1020.66" stroke="#F7B500" stroke-width="4" stroke-linecap="round"/>
<path d="M236.504 1203.18C236.331 1203.18 236.158 1203.18 207.608 1203.03C179.058 1202.88 122.136 1202.58 91.681 1202.36C58.9638 1202.03 55.0303 1201.73 51.0654 1201.47C48.7031 1201.38 45.6296 1201.38 42.4629 1201.38" stroke="black" stroke-width="4" stroke-linecap="round"/>
<path d="M38.8926 1474.07L38.8926 1204.8" stroke="black" stroke-width="4" stroke-linecap="round"/>
<path d="M40.8145 1475.64C41.4201 1475.64 42.0257 1475.64 68.6087 1475.76C95.1917 1475.89 147.734 1476.14 195.791 1476.89C243.849 1477.64 285.83 1478.88 314.959 1478.46C344.087 1478.04 359.09 1475.93 369.278 1474.71C393.016 1471.88 407.691 1472.31 434.366 1470.02C439.638 1469.57 441.042 1469.07 442.057 1467.93C446.863 1462.54 444.417 1453.71 444.44 1427.13C444.462 1402.41 443.795 1354.9 443.207 1327.99C442.513 1296.2 441.079 1289.22 440.805 1280.34C439.792 1247.58 439.542 1237.23 438.271 1228.98C437.15 1221.7 429.698 1215.47 426.354 1208.96C425.577 1207.44 423.949 1206.69 396.243 1205.88C368.538 1205.07 314.553 1204.46 285.77 1203.93C251.518 1201.86 240.107 1203.55 234.723 1203.2" stroke="black" stroke-width="4" stroke-linecap="round"/>
<path d="M541.756 1218.95C541.756 1219.01 541.756 1213.07 541.792 1230.11C541.828 1247.14 541.899 1281.16 542.151 1299.82C542.403 1318.47 542.833 1320.75 545.014 1335.68C547.194 1350.62 551.113 1378.15 553.918 1395.69C559.332 1429.56 560.67 1439.62 561.296 1448.04C561.54 1451.31 563.175 1452.31 564.715 1452.86C566.256 1453.4 568.048 1453.4 583.954 1455.32C599.86 1457.24 629.826 1461.08 663.479 1463.02C697.133 1464.96 733.565 1464.88 770.747 1464.21C807.928 1463.55 844.755 1462.3 865.308 1461.41C897.544 1460.02 912.965 1453.16 919.556 1449.58C920.903 1448.85 921.657 1447.28 922.301 1445.82C922.946 1444.36 923.286 1442.75 922.799 1417.14C922.313 1391.53 920.991 1341.97 919.505 1308.09C917.284 1257.45 914.749 1238.31 914.665 1233.65C914.556 1227.67 913.643 1222.35 911.984 1219.14C910.452 1216.18 902.321 1214.85 876.947 1212C857.156 1209.77 823.002 1210.69 769.863 1213.29C716.725 1215.88 663.553 1217.33 626.138 1219.98C584.019 1221.59 578.213 1219.94 573.778 1218.5C571.782 1217.92 547.169 1220.28 541.756 1218.95Z" stroke="black" stroke-width="4" stroke-linecap="round"/>
<path d="M115.686 1188.57C115.686 1188.37 115.686 1180.66 115.729 1168.61C115.772 1164.16 115.859 1163.11 115.948 1159.31C116.037 1155.5 116.126 1148.98 116.218 1142.26" stroke="black" stroke-width="4" stroke-linecap="round"/>
<path d="M138.942 1149.8L117.742 1170.11H104.934L95.6587 1149.8L88.5918 1113.14L95.6587 1077.36L117.742 1072.06L138.942 1088.85L146.451 1120.2L138.942 1149.8Z" fill="#9ECB75"/>
<path d="M104.13 1166C106.913 1167.92 110.259 1168.52 111.456 1168.52C112.03 1168.23 122.526 1167.39 123.08 1167.1C123.634 1166.81 124.167 1166.52 124.755 1166.13C127.115 1164.44 129.336 1163.02 131.254 1160.87C134.004 1157.77 135.501 1154.75 137.707 1150.28C140.466 1144.69 144.288 1137.49 144.633 1130.12C145.068 1120.83 145.158 1107.67 144.057 1103.74C142.366 1097.71 141.147 1093.2 138.572 1089.13C136.904 1086.48 133.731 1083.87 129.39 1079.98C126.803 1077.67 124.521 1075.76 121.183 1075.05L121.127 1075.04C117.584 1074.29 108.237 1072.32 102.065 1075.04C100.485 1075.74 98.9451 1076.52 97.6494 1078.76C93.771 1085.44 91.868 1088.2 89.0769 1101.55C88.3368 1105.09 87.5173 1112.57 88.6908 1123.49C89.443 1130.49 90.2797 1134.1 91.6466 1138.77C94.4017 1148.19 96.3535 1154.73 96.983 1155.95C98.5156 1158.92 100.494 1163.48 104.13 1166Z" stroke="black" stroke-width="4" stroke-linecap="round"/>
<path d="M1098.29 1191.71C1098.29 1191.51 1098.29 1183.8 1098.33 1171.75C1098.38 1167.3 1098.46 1166.25 1098.55 1162.45C1098.64 1158.65 1098.73 1152.13 1098.82 1145.41" stroke="black" stroke-width="4" stroke-linecap="round"/>
<path d="M1121.54 1152.94L1100.34 1173.25H1087.54L1078.26 1152.94L1071.19 1116.28L1078.26 1080.5L1100.34 1075.2L1121.54 1091.99L1129.05 1123.35L1121.54 1152.94Z" fill="#9ECB75"/>
<path d="M1086.73 1169.14C1089.52 1171.06 1092.86 1171.66 1094.06 1171.66C1094.63 1171.37 1105.13 1170.53 1105.68 1170.24C1106.24 1169.95 1106.77 1169.66 1107.36 1169.27C1109.72 1167.58 1111.94 1166.17 1113.86 1164.01C1116.61 1160.91 1118.1 1157.89 1120.31 1153.42C1123.07 1147.83 1126.89 1140.64 1127.24 1133.26C1127.67 1123.97 1127.76 1110.81 1126.66 1106.89C1124.97 1100.85 1123.75 1096.34 1121.18 1092.27C1119.51 1089.63 1116.33 1087.01 1111.99 1083.12C1109.41 1080.81 1107.12 1078.9 1103.79 1078.19L1103.73 1078.18C1100.19 1077.43 1090.84 1075.46 1084.67 1078.18C1083.09 1078.88 1081.55 1079.66 1080.25 1081.9C1076.37 1088.58 1074.47 1091.34 1071.68 1104.69C1070.94 1108.23 1070.12 1115.71 1071.29 1126.63C1072.05 1133.63 1072.88 1137.24 1074.25 1141.91C1077.01 1151.33 1078.96 1157.87 1079.59 1159.09C1081.12 1162.06 1083.1 1166.62 1086.73 1169.14Z" stroke="black" stroke-width="4" stroke-linecap="round"/>
<path d="M993.133 940.706C993.133 940.503 993.133 932.792 993.176 920.741C993.219 916.296 993.306 915.244 993.395 911.441C993.484 907.638 993.573 901.117 993.665 894.398" stroke="black" stroke-width="4" stroke-linecap="round"/>
<path d="M1016.39 901.929L995.189 922.246H982.381L973.106 901.929L966.039 865.27L973.106 829.495L995.189 824.195L1016.39 840.979L1023.9 872.337L1016.39 901.929Z" fill="#9ECB75"/>
<path d="M981.577 918.13C984.36 920.056 987.706 920.654 988.904 920.654C989.478 920.361 999.974 919.518 1000.53 919.228C1001.08 918.938 1001.61 918.651 1002.2 918.263C1004.56 916.569 1006.78 915.158 1008.7 912.998C1011.45 909.902 1012.95 906.884 1015.15 902.414C1017.91 896.823 1021.74 889.628 1022.08 882.253C1022.52 872.961 1022.61 859.807 1021.5 855.877C1019.81 849.845 1018.59 845.337 1016.02 841.259C1014.35 838.617 1011.18 836.002 1006.84 832.116C1004.25 829.8 1001.97 827.89 998.63 827.186L998.574 827.174C995.031 826.426 985.685 824.454 979.512 827.174C977.933 827.87 976.392 828.656 975.097 830.89C971.218 837.577 969.315 840.335 966.524 853.684C965.784 857.223 964.965 864.705 966.138 875.621C966.89 882.618 967.727 886.233 969.094 890.905C971.849 900.323 973.801 906.865 974.43 908.085C975.963 911.056 977.941 915.615 981.577 918.13Z" stroke="black" stroke-width="4" stroke-linecap="round"/>
<path d="M1141.82 930.546C1141.82 930.343 1141.82 922.632 1141.87 910.58C1141.91 906.136 1142 905.084 1142.08 901.281C1142.17 897.478 1142.26 890.957 1142.35 884.238" stroke="black" stroke-width="4" stroke-linecap="round"/>
<path d="M1165.08 891.769L1143.88 912.086H1131.07L1121.79 891.769L1114.73 855.11L1121.79 819.335L1143.88 814.035L1165.08 830.819L1172.59 862.177L1165.08 891.769Z" fill="#9ECB75"/>
<path d="M1130.26 907.972C1133.05 909.898 1136.39 910.496 1137.59 910.496C1138.17 910.203 1148.66 909.36 1149.21 909.07C1149.77 908.78 1150.3 908.493 1150.89 908.105C1153.25 906.411 1155.47 904.999 1157.39 902.84C1160.14 899.744 1161.64 896.726 1163.84 892.256C1166.6 886.665 1170.42 879.47 1170.77 872.095C1171.2 862.803 1171.29 849.649 1170.19 845.719C1168.5 839.686 1167.28 835.179 1164.71 831.101C1163.04 828.459 1159.87 825.843 1155.52 821.958C1152.94 819.642 1150.66 817.732 1147.32 817.028L1147.26 817.016C1143.72 816.268 1134.37 814.296 1128.2 817.016C1126.62 817.712 1125.08 818.497 1123.78 820.732C1119.91 827.419 1118 830.177 1115.21 843.526C1114.47 847.065 1113.65 854.547 1114.83 865.463C1115.58 872.46 1116.41 876.075 1117.78 880.747C1120.54 890.165 1122.49 896.706 1123.12 897.927C1124.65 900.898 1126.63 905.456 1130.26 907.972Z" stroke="black" stroke-width="4" stroke-linecap="round"/>
<path d="M697.146 1203.87C697.146 1203.67 697.146 1195.96 697.19 1183.9C697.233 1179.46 697.32 1178.41 697.409 1174.61C697.498 1170.8 697.587 1164.28 697.679 1157.56" stroke="black" stroke-width="4" stroke-linecap="round"/>
<path d="M720.401 1165.09L699.201 1185.41H686.393L677.118 1165.09L670.051 1128.43L677.118 1092.66L699.201 1087.36L720.401 1104.14L727.91 1135.5L720.401 1165.09Z" fill="#9ECB75"/>
<path d="M685.589 1181.29C688.372 1183.22 691.718 1183.82 692.915 1183.82C693.489 1183.53 703.985 1182.68 704.539 1182.39C705.093 1182.1 705.626 1181.82 706.214 1181.43C708.574 1179.73 710.795 1178.32 712.713 1176.16C715.463 1173.07 716.96 1170.05 719.166 1165.58C721.925 1159.99 725.747 1152.79 726.092 1145.42C726.527 1136.13 726.617 1122.97 725.516 1119.04C723.825 1113.01 722.606 1108.5 720.031 1104.42C718.363 1101.78 715.189 1099.17 710.849 1095.28C708.262 1092.96 705.98 1091.05 702.642 1090.35L702.586 1090.34C699.043 1089.59 689.696 1087.62 683.524 1090.34C681.944 1091.03 680.404 1091.82 679.108 1094.05C675.23 1100.74 673.327 1103.5 670.536 1116.85C669.796 1120.39 668.976 1127.87 670.15 1138.79C670.902 1145.78 671.739 1149.4 673.106 1154.07C675.861 1163.49 677.813 1170.03 678.442 1171.25C679.975 1174.22 681.953 1178.78 685.589 1181.29Z" stroke="black" stroke-width="4" stroke-linecap="round"/>
<path d="M358.939 1189.16C358.939 1188.96 358.939 1181.24 358.983 1169.19C359.026 1164.75 359.113 1163.7 359.202 1159.89C359.291 1156.09 359.38 1149.57 359.471 1142.85" stroke="black" stroke-width="4" stroke-linecap="round"/>
<path d="M382.196 1150.38L360.996 1170.7H348.188L338.913 1150.38L331.846 1113.73L338.913 1077.95L360.996 1072.65L382.196 1089.43L389.705 1120.79L382.196 1150.38Z" fill="#9ECB75"/>
<path d="M347.382 1166.59C350.165 1168.51 353.511 1169.11 354.708 1169.11C355.282 1168.82 365.778 1167.97 366.332 1167.68C366.886 1167.39 367.419 1167.11 368.007 1166.72C370.367 1165.02 372.588 1163.61 374.506 1161.45C377.256 1158.36 378.753 1155.34 380.959 1150.87C383.718 1145.28 387.54 1138.08 387.885 1130.71C388.32 1121.42 388.41 1108.26 387.309 1104.33C385.618 1098.3 384.399 1093.79 381.824 1089.71C380.156 1087.07 376.982 1084.46 372.641 1080.57C370.055 1078.26 367.773 1076.35 364.435 1075.64L364.379 1075.63C360.836 1074.88 351.489 1072.91 345.317 1075.63C343.737 1076.32 342.197 1077.11 340.901 1079.34C337.023 1086.03 335.12 1088.79 332.329 1102.14C331.589 1105.68 330.769 1113.16 331.943 1124.08C332.695 1131.07 333.532 1134.69 334.899 1139.36C337.654 1148.78 339.605 1155.32 340.235 1156.54C341.768 1159.51 343.746 1164.07 347.382 1166.59Z" stroke="black" stroke-width="4" stroke-linecap="round"/>
<path d="M997.033 1232.12V1219.13L1004.57 1211L1107.87 1203.87L1237.97 1213.83L1229.16 1390.11V1473.24V1444.23H982.486V1420.5L997.033 1232.12Z" fill="#D9D9D9"/>
<path d="M1020.61 1242.13L1056.92 1238.94V1276.47H1016.93L1020.61 1242.13Z" fill="#F7B500"/>
<path opacity="0.5" d="M1020.61 1384.76L1056.92 1381.57V1419.1H1016.93L1020.61 1384.76Z" fill="#1E1E1E"/>
<path opacity="0.5" d="M1014.97 1310.94L1056.92 1307.41V1347.43H1014.97V1310.94Z" fill="#1E1E1E"/>
<path opacity="0.5" d="M1175.16 1244.13L1211.47 1240.94V1278.47H1171.48L1175.16 1244.13Z" fill="#1E1E1E"/>
<path opacity="0.5" d="M1097.77 1238.94H1137.76V1276.47H1097.77V1238.94Z" fill="#1E1E1E"/>
<path opacity="0.5" d="M1133.13 1307.35H1093.14V1344.88H1133.13V1307.35Z" fill="#1E1E1E"/>
<path opacity="0.5" d="M1133.13 1379.43H1093.14V1416.97H1133.13V1379.43Z" fill="#1E1E1E"/>
<path opacity="0.5" d="M1211.1 1379.43H1171.12V1416.97H1211.1V1379.43Z" fill="#1E1E1E"/>
<path d="M1211.1 1304.05H1171.12L1167.42 1324.73L1171.12 1341.59H1211.1V1304.05Z" fill="#F7B500"/>
<path d="M986.186 1436.85C986.186 1436.64 986.186 1436.44 986.186 1423.93C986.186 1411.43 986.186 1386.63 987.946 1353.85C989.706 1321.08 993.226 1281.08 995.117 1257.65C997.464 1228.58 997.497 1221.47 998.03 1218.99C998.556 1216.55 1000.55 1214.66 1002.84 1213.11C1007.74 1209.78 1015.51 1209.72 1027.68 1208.42C1031.86 1207.97 1037.16 1206.91 1057.73 1207.23C1078.3 1207.55 1113.96 1209.15 1136.96 1210.66C1159.96 1212.18 1169.22 1213.58 1177.6 1214.3C1193.14 1215.64 1209.53 1214.31 1224.08 1212.95C1231.82 1212.22 1235.54 1211.08 1238.29 1212.95C1240.08 1214.17 1239.81 1218.6 1240.01 1229.23C1240.21 1239.86 1240.15 1257.25 1238.28 1278.69C1236.4 1300.13 1232.71 1325.1 1230.81 1345.81C1228.91 1366.52 1228.91 1382.22 1228.84 1390.95C1228.77 1399.69 1228.63 1400.98 1228.55 1408.32C1228.48 1415.66 1228.48 1429.01 1228.48 1442.76" stroke="black" stroke-width="4" stroke-linecap="round"/>
<path d="M1054.75 1237.54C1047.23 1237.58 1029.34 1238.81 1026.05 1240.31C1024.73 1240.91 1023.03 1240.85 1021.56 1241.32C1018.5 1242.3 1018.02 1259.07 1016.67 1271.16C1016.5 1272.74 1016.46 1273.78 1016.38 1275.07C1016.31 1276.36 1016.27 1277.87 1023.17 1278.71C1030.07 1279.55 1043.91 1279.68 1051.05 1278.62C1058.2 1277.55 1058.23 1275.3 1058.45 1273.42C1059.63 1267.64 1059.9 1256.69 1059.34 1243.18C1058.77 1238.58 1057.6 1238.55 1056.41 1238.52" stroke="black" stroke-width="4" stroke-linecap="round"/>
<path d="M1129.89 1304.05C1122.37 1304.09 1104.48 1305.32 1101.2 1306.81C1099.87 1307.42 1098.17 1307.36 1096.7 1307.83C1093.65 1308.81 1093.16 1325.58 1091.82 1337.66C1091.64 1339.24 1091.6 1340.29 1091.52 1341.58C1091.45 1342.87 1091.42 1344.38 1098.32 1345.22C1105.22 1346.06 1119.05 1346.18 1126.2 1345.12C1133.34 1344.06 1133.37 1341.8 1133.59 1339.93C1134.77 1334.15 1135.04 1323.2 1134.48 1309.69C1133.91 1305.08 1132.75 1305.06 1131.55 1305.03" stroke="black" stroke-width="4" stroke-linecap="round"/>
<path d="M1095.71 1240.41C1095.71 1240.45 1095.71 1247.77 1095.58 1260.73C1095.48 1270.23 1094.88 1275.52 1097.25 1277.59C1102.76 1282.37 1110.31 1278.47 1115.1 1278.61C1126.22 1278.93 1134.28 1278.54 1135.68 1278.28C1136.38 1278.16 1137.03 1278 1137.37 1277.18C1140.31 1269.99 1139.24 1254.7 1139.92 1247.3C1140.08 1245.51 1140.48 1243.12 1138.98 1240.25C1134.49 1238.53 1125.04 1237.82 1112.92 1237.57C1107.16 1237.46 1102.2 1237.38 1096.03 1237.65" stroke="black" stroke-width="4" stroke-linecap="round"/>
<path d="M1015.24 1310.34C1015.24 1310.39 1015.24 1317.71 1015.11 1330.67C1015.01 1340.17 1014.41 1345.46 1016.78 1347.53C1022.29 1352.31 1029.84 1348.41 1034.63 1348.55C1045.75 1348.87 1053.81 1348.48 1055.21 1348.22C1055.9 1348.1 1056.56 1347.94 1056.9 1347.12C1059.84 1339.93 1058.77 1324.64 1059.45 1317.24C1059.61 1315.45 1060 1313.06 1058.51 1310.19C1054.02 1308.47 1044.57 1307.76 1032.45 1307.51C1026.69 1307.4 1021.73 1307.32 1015.56 1307.59" stroke="black" stroke-width="4" stroke-linecap="round"/>
<path d="M1173.31 1241.1C1173.31 1241.2 1173.31 1253.51 1173.58 1272.35C1173.67 1278.92 1174.38 1279.41 1175.32 1279.66C1183.76 1281.83 1199.64 1277.61 1204.68 1277.32C1206.5 1277.22 1208.28 1277.15 1210.17 1276.91C1211.27 1276.77 1212.68 1276.73 1213.37 1272.12C1215.41 1258.52 1213.78 1248.26 1213.25 1246.97C1212.1 1244.21 1208.97 1242.93 1203.74 1239.83C1196.62 1238.89 1183.17 1239.86 1177.74 1240.52C1176.41 1240.56 1174.53 1240.56 1172.59 1240.56" stroke="black" stroke-width="4" stroke-linecap="round"/>
<path d="M1175.99 1378.02C1183.51 1378.06 1201.39 1379.29 1204.68 1380.79C1206.01 1381.39 1207.71 1381.33 1209.17 1381.8C1212.23 1382.78 1212.72 1399.55 1214.06 1411.64C1214.24 1413.22 1214.28 1414.26 1214.35 1415.55C1214.43 1416.84 1214.46 1418.35 1207.56 1419.19C1200.66 1420.03 1186.82 1420.16 1179.68 1419.09C1172.54 1418.03 1172.51 1415.78 1172.29 1413.9C1171.11 1408.12 1170.84 1397.17 1171.39 1383.66C1171.97 1379.06 1173.13 1379.03 1174.33 1379" stroke="black" stroke-width="4" stroke-linecap="round"/>
<path d="M1135.03 1380.88C1135.03 1380.93 1135.03 1388.25 1135.16 1401.21C1135.26 1410.71 1135.86 1416 1133.48 1418.07C1127.98 1422.85 1120.43 1418.95 1115.63 1419.09C1104.52 1419.41 1096.45 1419.02 1095.05 1418.76C1094.36 1418.64 1093.71 1418.48 1093.37 1417.66C1090.42 1410.47 1091.5 1395.18 1090.82 1387.78C1090.65 1385.99 1090.26 1383.6 1091.76 1380.73C1096.25 1379.01 1105.7 1378.29 1117.82 1378.05C1123.58 1377.93 1128.53 1377.86 1134.71 1378.13" stroke="black" stroke-width="4" stroke-linecap="round"/>
<path d="M1057.42 1381.58C1057.42 1381.68 1057.42 1393.99 1057.16 1412.83C1057.06 1419.4 1056.35 1419.89 1055.41 1420.14C1046.97 1422.31 1031.1 1418.09 1026.05 1417.8C1024.24 1417.7 1022.46 1417.63 1020.57 1417.39C1019.46 1417.25 1018.06 1417.21 1017.37 1412.6C1015.33 1399 1016.95 1388.74 1017.49 1387.45C1018.63 1384.69 1021.76 1383.41 1026.99 1380.31C1034.11 1379.37 1047.56 1380.35 1053 1381C1054.32 1381.04 1056.21 1381.04 1058.15 1381.04" stroke="black" stroke-width="4" stroke-linecap="round"/>
<path d="M1207.71 1305.71C1207.71 1305.81 1207.71 1318.12 1207.44 1336.95C1207.35 1343.53 1206.64 1344.02 1205.7 1344.26C1197.26 1346.43 1181.38 1342.21 1176.34 1341.93C1174.52 1341.82 1172.74 1341.75 1170.85 1341.51C1169.75 1341.37 1168.34 1341.34 1167.65 1336.73C1165.61 1323.13 1167.24 1312.87 1167.77 1311.57C1168.92 1308.82 1172.05 1307.54 1177.28 1304.44C1184.4 1303.5 1197.85 1304.47 1203.28 1305.13C1204.61 1305.17 1206.49 1305.17 1208.43 1305.17" stroke="black" stroke-width="4" stroke-linecap="round"/>
<path d="M649.278 1491.94C649.171 1491.94 644.064 1491.94 636.973 1492.89C629.735 1493.87 640.331 1506.34 639.751 1508.42C637.167 1517.72 617.406 1505.6 611.487 1504.76C603.423 1503.62 611.675 1525.55 611.312 1533.22C610.668 1546.78 570.001 1528.67 556.788 1529.22C552.107 1529.41 551.702 1531.27 551.804 1532.63C554.444 1538.06 558.302 1543.48 561.907 1552.5C562.58 1554.71 562.797 1556.29 563.02 1558.69" stroke="#FF182B" stroke-width="4" stroke-linecap="round"/>
<path d="M773.117 1504.33C772.994 1504.33 766.214 1504.33 756.076 1505.28C752.541 1505.61 752.738 1508.14 753.587 1510.84C754.436 1513.54 756.051 1516.98 756.518 1519.45C759.502 1535.25 712.369 1526.29 712.904 1530.35C714.439 1541.97 725.347 1557.65 725.814 1565.04C726.409 1574.46 709.654 1569.62 701.353 1577.1C699.563 1578.92 698.521 1580.12 696.957 1582.19C695.393 1584.26 693.34 1587.15 691.033 1590.32" stroke="#FF182B" stroke-width="4" stroke-linecap="round"/>
<path d="M902.374 1544.89C902.489 1544.89 897.271 1544.89 889.723 1543.87C886.404 1543.42 891.13 1536.32 893.893 1528.83C894.821 1526.32 894.41 1522.75 893.713 1520.9C890.715 1512.97 875.239 1513.59 866.695 1506.95C864.732 1505.42 863.546 1504.61 863.395 1503.57C866.202 1497.29 868.651 1490.16 869.048 1486.35C869.187 1484.18 869.2 1481.54 869.37 1478.64" stroke="#FF182B" stroke-width="4" stroke-linecap="round"/>
<path d="M248.582 1504.09C247.937 1504.09 237.705 1504.09 222.756 1504.89C217.652 1505.17 217.814 1507.31 218.671 1509.6C219.527 1511.89 221.13 1514.8 221.344 1516.81C222.447 1527.18 198.708 1530.58 194.204 1534.88C193.137 1537.7 193.473 1540.69 194.601 1543.58C195.052 1545.06 195.26 1546.56 194.245 1551.16" stroke="#FF182B" stroke-width="4" stroke-linecap="round"/>
<path d="M51.1507 1181.63C50.664 1181.51 42.936 1179.6 31.7969 1176.21C27.9934 1175.05 28.5156 1173.46 29.5884 1171.89C30.6612 1170.32 32.415 1168.43 32.952 1166.94C35.7194 1159.32 18.4237 1152.32 15.8235 1148.24C15.543 1145.91 16.3541 1143.72 17.7458 1141.74C18.3629 1140.71 18.7992 1139.61 18.8908 1135.95" stroke="#FF182B" stroke-width="4" stroke-linecap="round"/>
<path d="M90.0859 1501.09C89.9748 1501.09 85.1793 1501.09 78.2685 1501.91C75.9599 1502.19 76.633 1504.4 77.653 1506.26C78.6731 1508.12 80.1599 1510.13 80.338 1511.7C80.5161 1513.26 79.3403 1514.33 77.0764 1514.63C71.5426 1515.37 61.9192 1513.94 53.0407 1514.8C49.9165 1515.1 54.8128 1523.68 58.3607 1534.3C59.2529 1536.97 58.9226 1539.79 57.512 1541.22C48.8971 1549.96 34.2993 1543.23 32.5328 1545.44C31.8681 1546.72 31.6736 1548.35 31.3541 1549.87C31.0345 1551.39 30.5957 1552.76 29.7676 1554.17" stroke="#FF182B" stroke-width="4" stroke-linecap="round"/>
<path d="M480.352 1176.43C480.29 1176.43 477.636 1176.43 473.81 1177.17C472.533 1177.42 472.905 1179.38 473.47 1181.04C474.034 1182.69 474.857 1184.48 474.956 1185.87C475.055 1187.27 474.404 1188.21 473.151 1188.48C470.088 1189.14 464.761 1187.87 459.847 1188.63C458.117 1188.9 460.828 1196.54 462.791 1205.99C463.285 1208.36 463.102 1210.87 462.322 1212.14C457.553 1219.92 449.473 1213.93 448.495 1215.9C448.127 1217.04 448.02 1218.49 447.843 1219.84C447.666 1221.2 447.423 1222.41 446.965 1223.67" stroke="#FF182B" stroke-width="4" stroke-linecap="round"/>
<path d="M368.619 1501.09C368.73 1501.09 373.526 1501.09 380.437 1501.91C382.745 1502.19 382.072 1504.4 381.052 1506.26C380.032 1508.12 378.545 1510.13 378.367 1511.7C378.189 1513.26 379.365 1514.33 381.629 1514.63C387.162 1515.37 396.786 1513.94 405.664 1514.8C408.789 1515.1 403.892 1523.68 400.344 1534.3C399.452 1536.97 399.782 1539.79 401.193 1541.22C409.808 1549.96 424.406 1543.23 426.172 1545.44C426.837 1546.72 427.031 1548.35 427.351 1549.87C427.671 1551.39 428.109 1552.76 428.938 1554.17" stroke="#FF182B" stroke-width="4" stroke-linecap="round"/>
<path d="M577.095 907.451C576.415 909.538 582.893 952.18 582.893 952.344L909.798 952.344L912.553 895.758C911.888 894.738 911.243 893.748 909.798 893.252C906.248 892.768 902.736 892.866 897.056 893.026L896.687 893.036C884.685 893.091 875.755 893.34 831.578 893.449C788.818 893.554 707.172 893.02 663.853 894.057C615.626 895.212 607.274 896.363 601.311 897.393C592.494 898.917 579.099 901.296 577.095 907.451Z" fill="#B88659" stroke="black" stroke-width="4" stroke-linecap="round"/>
<path d="M603.303 937C605.162 937.437 610.446 938.46 614.57 938.173C616.072 938.068 615.997 935.665 616.157 933.973C616.368 931.729 615.831 929.747 614.902 928.455C612.955 925.748 609.475 925.49 606.937 925.667C605.132 927.666 603.679 930.021 603.011 932.832C602.92 933.622 602.914 934.511 602.908 935.427" stroke="black" stroke-width="4" stroke-linecap="round"/>
<path d="M617.467 927.51C617.928 927.183 619.648 925.598 621.915 923.774C622.689 923.159 623.323 922.66 623.984 922.165C624.314 921.921 624.631 921.689 625.102 921.351" stroke="black" stroke-width="4" stroke-linecap="round"/>
<path d="M625.104 921.352C622.463 921.266 614.495 920.44 611.393 919.388C609.564 918.478 608.348 917.67 607.713 917.19C607.386 916.944 607.049 916.692 606.646 916.232" stroke="black" stroke-width="4" stroke-linecap="round"/>
<path d="M625.686 921.521C625.686 921.535 625.686 921.55 625.686 924.031C625.686 926.513 625.686 931.463 625.778 936.746" stroke="black" stroke-width="4" stroke-linecap="round"/>
<rect x="3.04492" y="954.289" width="36.3789" height="339.541" transform="rotate(-90 3.04492 954.289)" fill="#DCE9B9"/>
<path d="M625.986 921.762C626.05 921.373 626.779 919.088 628.033 917.066C629.063 915.841 630.48 914.386 631.888 913.105C632.503 912.565 632.916 912.248 633.594 911.742" stroke="black" stroke-width="4" stroke-linecap="round"/>
<path d="M633.953 912.064L646.194 912.064" stroke="black" stroke-width="4" stroke-linecap="round"/>
<path d="M631.96 911.432C631.96 911.315 631.96 908.491 631.938 904.115C631.872 902.125 631.826 900.714 631.847 898.97C631.868 898.248 631.911 897.858 632.071 896.532" stroke="black" stroke-width="4" stroke-linecap="round"/>
<path d="M733.778 931.036C733.994 931.436 735.381 932.863 737.909 934.653C738.857 935.324 740.074 935.674 741.431 935.994C744.06 936.615 747.26 934.397 748.856 932.955C749.83 932.075 750.384 930.418 750.756 928.785C751.342 926.214 748.537 924.056 746.693 922.531C743.941 920.256 741.036 921.858 739.082 922.636C737.626 923.695 736.324 925.19 735.183 926.853C734.714 927.662 734.468 928.4 733.537 929.774" stroke="black" stroke-width="4" stroke-linecap="round"/>
<path d="M735.034 925.105C732.521 924.299 726.382 922.072 724.344 920.325C723.905 919.855 723.556 919.407 723.216 918.97C722.875 918.533 722.554 918.121 722.148 917.557" stroke="black" stroke-width="4" stroke-linecap="round"/>
<path d="M722.149 917.557C722.123 917.639 721.675 919.036 721.021 921.467C720.809 923.296 720.87 925.195 721.058 927.28C721.194 928.241 721.412 929.007 721.731 930.259" stroke="black" stroke-width="4" stroke-linecap="round"/>
<path d="M722.145 917.34C722.476 916.559 724.463 914.47 729.18 912.025C730.118 911.506 730.428 911.222 730.947 910.619C731.467 910.015 732.186 909.102 733.137 907.832" stroke="black" stroke-width="4" stroke-linecap="round"/>
<path d="M720.214 917.403C720.201 917.399 720.187 917.394 719.541 917.203C718.896 917.011 717.618 916.633 715.215 914.936C712.811 913.239 709.321 910.236 705.725 907.141" stroke="black" stroke-width="4" stroke-linecap="round"/>
<path d="M705.585 906.872C705.558 906.863 704.442 906.572 701.385 906.142C696.653 906.006 693.395 906.036 692.566 906.05C692.135 906.043 691.683 906.006 690.807 905.836" stroke="black" stroke-width="4" stroke-linecap="round"/>
<path d="M704.996 903.693C705.05 903.526 705.016 902.595 704.767 901.024C704.579 900.298 704.268 899.715 703.733 898.936C703.199 898.156 702.451 897.196 701.003 894.607" stroke="black" stroke-width="4" stroke-linecap="round"/>
<path d="M814.516 934.122C814.382 934.556 813.303 936.228 811.175 938.479C810.377 939.324 809.253 939.906 807.985 940.487C805.53 941.612 801.956 940.065 800.108 938.964C798.98 938.293 798.111 936.777 797.426 935.249C796.347 932.843 798.673 930.176 800.182 928.319C802.433 925.548 805.597 926.548 807.666 926.927C809.301 927.679 810.871 928.89 812.317 930.296C812.936 930.998 813.321 931.673 814.504 932.837" stroke="black" stroke-width="4" stroke-linecap="round"/>
<path d="M812.12 928.553C814.425 927.269 820.007 923.88 821.663 921.767C822 921.219 822.255 920.712 822.503 920.216C822.751 919.721 822.985 919.254 823.273 918.621" stroke="black" stroke-width="4" stroke-linecap="round"/>
<path d="M823.273 918.622C823.314 918.697 824.028 919.979 825.147 922.234C825.713 923.986 826.027 925.86 826.252 927.941C826.307 928.91 826.244 929.704 826.177 930.995" stroke="black" stroke-width="4" stroke-linecap="round"/>
<path d="M823.232 918.408C822.754 917.708 820.395 916.049 815.29 914.578C814.268 914.254 813.909 914.036 813.281 913.547C812.653 913.057 811.768 912.302 810.587 911.245" stroke="black" stroke-width="4" stroke-linecap="round"/>
<path d="M825.138 918.093C825.151 918.086 825.163 918.079 825.759 917.765C826.354 917.45 827.533 916.828 829.556 914.692C831.579 912.557 834.412 908.926 837.331 905.186" stroke="black" stroke-width="4" stroke-linecap="round"/>
<path d="M837.412 904.893C837.437 904.879 838.474 904.375 841.387 903.352C846 902.29 849.201 901.679 850.017 901.53C850.438 901.438 850.874 901.313 851.699 900.975" stroke="black" stroke-width="4" stroke-linecap="round"/>
<path d="M837.365 901.661C837.28 901.508 837.131 900.588 837.067 898.999C837.108 898.25 837.299 897.618 837.67 896.748C838.041 895.879 838.585 894.791 839.497 891.968" stroke="black" stroke-width="4" stroke-linecap="round"/>
<path d="M130.447 986.795C131.139 986.135 133.821 984.441 136.956 984.153C140.689 983.811 143.003 986.084 146.511 989.823C147.727 991.12 147.254 992.769 147.047 994.043C146.622 996.645 142.792 1000.39 139.745 1002.59C138.755 1003.31 137.32 1002.8 136.035 1002.54C131.403 1001.62 127.922 994.961 127.277 991.947C127.201 991.205 127.211 990.511 127.341 989.873C127.47 989.235 127.719 988.674 128.713 986.934" stroke="black" stroke-width="4" stroke-linecap="round"/>
<path d="M137.042 992.649C136.65 992.048 135.608 989.79 134.788 987.832C134.003 985.956 133.137 983.512 131.881 979.926C131.105 977.709 131.097 975.652 130.875 973.651C130.656 971.665 129.43 969.975 126.248 966.557C125.021 965.715 124.06 965.447 123.075 965.315C122.58 965.288 122.096 965.343 121.435 965.554" stroke="black" stroke-width="4" stroke-linecap="round"/>
<path d="M129.491 974.276C128.933 974.255 126.861 974.506 124.92 974.95C122.582 975.484 119.804 975.104 116.715 975.485C113.769 975.848 111.515 976.119 109.531 976.292C108.421 976.373 107.318 976.44 106.291 976.515C105.774 976.561 105.263 976.626 103.956 976.798" stroke="black" stroke-width="4" stroke-linecap="round"/>
<path d="M100.18 973.006C100.914 973.776 102.829 975.943 108.1 985.494C109.233 987.598 109.519 988.174 109.77 988.747C110.02 989.32 110.225 989.872 110.748 991.119" stroke="black" stroke-width="4" stroke-linecap="round"/>
<path d="M130.763 974.903C128.202 977.342 121.887 983.018 119.123 984.603C116.597 986.354 114.885 987.69 113.178 988.846C112.74 989.135 112.3 989.435 110.908 990.449" stroke="black" stroke-width="4" stroke-linecap="round"/>
<path d="M110.908 990.449C109.379 990.872 105.564 991.961 101.523 992.511C97.9069 993.003 94.7717 994.316 92.5271 995.016C92.0015 995.21 91.5661 995.412 91.1065 995.587C90.647 995.762 90.1765 995.904 89.1925 996.085" stroke="black" stroke-width="4" stroke-linecap="round"/>
<path d="M103.244 975.09C102.473 975.825 100.078 978.632 97.9361 981.645C96.3505 983.875 94.7138 986.444 93.3598 988.562C91.8963 990.918 90.4261 992.995 89.6618 993.779C89.2974 994.182 88.9805 994.596 88.6468 995.106" stroke="black" stroke-width="4" stroke-linecap="round"/>
<path d="M82.164 987.465C82.5312 987.162 85.9568 986.899 89.41 987.735C93.0344 988.613 95.0516 990.736 98.629 994.354C99.7944 995.532 99.3788 997.277 98.9317 998.92C98.0176 1002.28 92.8941 1004.7 89.4379 1005.68C87.0158 1006.37 84.5432 1005.77 82.6629 1004.44C80.0123 1002.57 79.5792 999.373 79.1728 996.435C79.5889 993.687 80.5752 991.812 82.1 989.856C82.515 989.278 82.9386 988.578 83.7844 987.301" stroke="black" stroke-width="4" stroke-linecap="round"/>
<path d="M100.527 972.327C100.499 972.298 99.859 972.49 98.3306 972.925C97.4275 973.153 96.2654 973.394 95.4362 973.586C94.6069 973.778 94.1457 973.914 92.9691 974.018" stroke="black" stroke-width="4" stroke-linecap="round"/>
<path d="M776.462 1060.71C775.645 1059.94 772.482 1057.94 768.783 1057.6C764.38 1057.19 761.65 1059.88 757.513 1064.29C756.078 1065.82 756.635 1067.76 756.88 1069.26C757.381 1072.33 761.9 1076.75 765.493 1079.35C766.661 1080.19 768.354 1079.59 769.87 1079.29C775.333 1078.2 779.44 1070.35 780.201 1066.79C780.291 1065.92 780.279 1065.1 780.126 1064.35C779.973 1063.59 779.679 1062.93 778.507 1060.88" stroke="black" stroke-width="4" stroke-linecap="round"/>
<path d="M768.68 1067.62C769.143 1066.91 770.372 1064.25 771.339 1061.94C772.265 1059.72 773.287 1056.84 774.768 1052.61C775.684 1050 775.693 1047.57 775.954 1045.21C776.213 1042.87 777.66 1040.87 781.412 1036.84C782.86 1035.85 783.994 1035.53 785.156 1035.38C785.739 1035.34 786.31 1035.41 787.091 1035.66" stroke="black" stroke-width="4" stroke-linecap="round"/>
<path d="M777.588 1045.95C778.246 1045.92 780.691 1046.22 782.98 1046.74C785.738 1047.37 789.015 1046.92 792.659 1047.37C796.134 1047.8 798.793 1048.12 801.133 1048.33C802.442 1048.42 803.744 1048.5 804.955 1048.59C805.566 1048.64 806.168 1048.72 807.709 1048.92" stroke="black" stroke-width="4" stroke-linecap="round"/>
<path d="M812.164 1044.45C811.298 1045.36 809.039 1047.91 802.821 1059.18C801.485 1061.66 801.147 1062.34 800.852 1063.02C800.556 1063.69 800.314 1064.35 799.698 1065.82" stroke="black" stroke-width="4" stroke-linecap="round"/>
<path d="M776.087 1046.69C779.108 1049.56 786.557 1056.26 789.817 1058.13C792.798 1060.19 794.816 1061.77 796.83 1063.13C797.347 1063.47 797.866 1063.83 799.509 1065.03" stroke="black" stroke-width="4" stroke-linecap="round"/>
<path d="M799.509 1065.02C801.313 1065.52 805.813 1066.81 810.58 1067.46C814.846 1068.04 818.544 1069.59 821.192 1070.41C821.812 1070.64 822.325 1070.88 822.867 1071.09C823.41 1071.29 823.964 1071.46 825.125 1071.67" stroke="black" stroke-width="4" stroke-linecap="round"/>
<path d="M808.551 1046.91C809.461 1047.77 812.286 1051.09 814.812 1054.64C816.683 1057.27 818.613 1060.3 820.21 1062.8C821.937 1065.58 823.671 1068.03 824.573 1068.95C825.002 1069.43 825.376 1069.92 825.77 1070.52" stroke="black" stroke-width="4" stroke-linecap="round"/>
<path d="M833.415 1061.51C832.982 1061.15 828.941 1060.84 824.867 1061.82C820.592 1062.86 818.213 1065.36 813.993 1069.63C812.618 1071.02 813.108 1073.08 813.636 1075.02C814.714 1078.98 820.758 1081.83 824.835 1082.99C827.692 1083.8 830.608 1083.1 832.826 1081.53C835.953 1079.33 836.464 1075.55 836.943 1072.09C836.453 1068.85 835.289 1066.63 833.49 1064.33C833.001 1063.64 832.501 1062.82 831.503 1061.31" stroke="black" stroke-width="4" stroke-linecap="round"/>
<path d="M811.757 1043.65C811.79 1043.61 812.544 1043.84 814.347 1044.35C815.412 1044.62 816.783 1044.91 817.761 1045.13C818.74 1045.36 819.284 1045.52 820.672 1045.64" stroke="black" stroke-width="4" stroke-linecap="round"/>
<path d="M1092.01 984.983C1092.82 984.205 1095.99 982.207 1099.69 981.868C1104.09 981.463 1106.82 984.145 1110.96 988.555C1112.39 990.085 1111.83 992.031 1111.59 993.533C1111.09 996.603 1106.57 1001.02 1102.98 1003.62C1101.81 1004.46 1100.11 1003.86 1098.6 1003.56C1093.14 1002.47 1089.03 994.616 1088.27 991.06C1088.18 990.185 1088.19 989.367 1088.34 988.615C1088.5 987.862 1088.79 987.2 1089.96 985.147" stroke="black" stroke-width="4" stroke-linecap="round"/>
<path d="M1099.79 991.889C1099.33 991.18 1098.1 988.517 1097.13 986.207C1096.2 983.994 1095.18 981.111 1093.7 976.881C1092.79 974.266 1092.78 971.84 1092.51 969.479C1092.26 967.136 1090.81 965.143 1087.06 961.111C1085.61 960.117 1084.47 959.801 1083.31 959.646C1082.73 959.614 1082.16 959.678 1081.38 959.927" stroke="black" stroke-width="4" stroke-linecap="round"/>
<path d="M1090.88 970.216C1090.22 970.19 1087.78 970.487 1085.49 971.01C1082.73 971.641 1079.45 971.192 1075.81 971.642C1072.33 972.07 1069.68 972.39 1067.34 972.594C1066.03 972.689 1064.72 972.769 1063.51 972.857C1062.9 972.912 1062.3 972.988 1060.76 973.191" stroke="black" stroke-width="4" stroke-linecap="round"/>
<path d="M1056.3 968.717C1057.17 969.625 1059.43 972.181 1065.65 983.448C1066.98 985.93 1067.32 986.609 1067.62 987.285C1067.91 987.961 1068.15 988.613 1068.77 990.083" stroke="black" stroke-width="4" stroke-linecap="round"/>
<path d="M1092.38 970.955C1089.36 973.832 1081.91 980.527 1078.65 982.396C1075.67 984.462 1073.65 986.038 1071.64 987.402C1071.12 987.742 1070.6 988.097 1068.96 989.293" stroke="black" stroke-width="4" stroke-linecap="round"/>
<path d="M1068.96 989.294C1067.16 989.793 1062.66 991.077 1057.89 991.726C1053.62 992.307 1049.92 993.855 1047.28 994.681C1046.66 994.91 1046.14 995.148 1045.6 995.355C1045.06 995.561 1044.5 995.729 1043.34 995.942" stroke="black" stroke-width="4" stroke-linecap="round"/>
<path d="M1059.92 971.176C1059.01 972.042 1056.18 975.354 1053.66 978.908C1051.79 981.539 1049.86 984.569 1048.26 987.067C1046.53 989.847 1044.8 992.297 1043.9 993.222C1043.47 993.697 1043.09 994.185 1042.7 994.787" stroke="black" stroke-width="4" stroke-linecap="round"/>
<path d="M1035.05 985.774C1035.49 985.416 1039.53 985.106 1043.6 986.092C1047.88 987.127 1050.26 989.631 1054.48 993.899C1055.85 995.289 1055.36 997.347 1054.83 999.286C1053.75 1003.25 1047.71 1006.1 1043.63 1007.26C1040.78 1008.07 1037.86 1007.37 1035.64 1005.8C1032.52 1003.6 1032 999.82 1031.53 996.354C1032.02 993.113 1033.18 990.901 1034.98 988.593C1035.47 987.911 1035.97 987.086 1036.97 985.579" stroke="black" stroke-width="4" stroke-linecap="round"/>
<path d="M1056.71 967.916C1056.68 967.882 1055.92 968.109 1054.12 968.622C1053.06 968.89 1051.69 969.174 1050.71 969.401C1049.73 969.627 1049.19 969.788 1047.8 969.911" stroke="black" stroke-width="4" stroke-linecap="round"/>
<path d="M409.125 661.859C407.564 660.143 402.107 654.765 395.058 650.424C389.282 646.868 383.68 647.019 381.232 648.313C375.034 651.588 371.01 660.551 365.942 662.108C360.669 663.727 355.704 657.486 345.975 650.807C338.971 645.999 332.217 646.083 329.324 646.833C324.328 649.837 320.057 655.356 316.656 662.979C315.345 666.334 313.208 671.731 310.988 678.389" stroke="#7AC6EE" stroke-width="4" stroke-linecap="round"/>
<path d="M628.419 594.033C628.207 592.411 625.696 586.874 621.27 581.786C619.495 579.746 617.179 578.799 613.785 578.369C608.55 577.705 603.461 578.982 600.139 580.581C594.853 583.127 590.309 590.575 585.995 594.493C582.347 597.806 574.721 591.361 569.984 589.192C565.075 586.944 559.287 586.452 550.313 586.53C543.83 588.268 540.332 590.009 538.038 591.613C536.878 592.486 535.727 593.48 533.017 596.308" stroke="#7AC6EE" stroke-width="4" stroke-linecap="round"/>
<path d="M779.761 684.359C781.323 682.643 786.78 677.265 793.829 672.924C799.605 669.368 805.206 669.519 807.655 670.813C813.853 674.088 817.876 683.051 822.945 684.608C828.218 686.227 833.183 679.986 842.912 673.307C849.916 668.499 856.669 668.583 859.562 669.333C864.559 672.337 868.83 677.856 872.231 685.479C873.542 688.834 875.679 694.231 877.899 700.889" stroke="#7AC6EE" stroke-width="4" stroke-linecap="round"/>
<path d="M551.398 726.918C551.61 725.296 554.12 719.759 558.546 714.671C560.321 712.631 562.637 711.684 566.032 711.254C571.266 710.59 576.356 711.867 579.677 713.466C584.964 716.012 589.508 723.46 593.822 727.378C597.469 730.691 605.095 724.246 609.832 722.077C614.741 719.829 620.53 719.336 629.503 719.415C635.986 721.153 639.484 722.894 641.779 724.497C642.939 725.371 644.089 726.364 646.799 729.193" stroke="#7AC6EE" stroke-width="4" stroke-linecap="round"/>
<path d="M1241.14 724.527C1240.93 722.905 1238.42 717.369 1233.99 712.28C1232.22 710.24 1229.9 709.293 1226.51 708.863C1221.27 708.2 1216.18 709.476 1212.86 711.076C1207.57 713.621 1203.03 721.07 1198.72 724.988C1195.07 728.3 1187.44 721.855 1182.71 719.686C1177.8 717.438 1172.01 716.946 1163.03 717.024C1156.55 718.762 1153.05 720.503 1150.76 722.107C1149.6 722.98 1148.45 723.974 1145.74 726.802" stroke="#7AC6EE" stroke-width="4" stroke-linecap="round"/>
<path d="M1036.68 633.014C1036.9 631.519 1039.55 626.415 1044.22 621.723C1046.09 619.842 1048.53 618.967 1052.11 618.569C1057.62 617.954 1062.99 619.128 1066.49 620.599C1072.05 622.942 1076.84 629.803 1081.38 633.412C1085.22 636.462 1093.26 630.518 1098.25 628.516C1103.43 626.441 1109.53 625.983 1118.98 626.05C1125.81 627.648 1129.5 629.25 1131.92 630.726C1133.14 631.53 1134.35 632.445 1137.2 635.05" stroke="#7AC6EE" stroke-width="4" stroke-linecap="round"/>
<path d="M596.104 1217.52C596.104 1214.62 595.842 1206.68 595.21 1202.53C594.944 1200.79 594.988 1199.26 595.152 1198C595.231 1197.4 595.942 1197.05 596.691 1196.79C598.316 1196.22 605.895 1196.16 620.564 1196.05C648.499 1195.82 651.324 1195.67 654.127 1195.31C654.833 1195.22 655.554 1195.16 655.997 1195.58C658.438 1197.89 657.931 1202.07 659.165 1205.31C659.823 1207.1 660.452 1209.15 661.156 1211.56C661.554 1212.85 662.038 1214.27 662.814 1216.38" stroke="black" stroke-width="4" stroke-linecap="round"/>
<path d="M779.041 1210.29C779.041 1203.41 779.852 1189.74 781.468 1189.8C783.057 1189.86 788.855 1190.64 806.507 1191.46C819.137 1192.05 839.261 1191.88 849.507 1193.07C859.752 1194.27 859.52 1196.55 859.4 1199.26C859.28 1201.98 859.28 1205.05 860.064 1209.95" stroke="black" stroke-width="4" stroke-linecap="round"/>
<path d="M196.748 1202.39C196.748 1196.59 196.981 1184.18 197.746 1182.91C198.455 1181.72 202.934 1182.29 220.339 1183.12C234.745 1183.81 260.526 1184.1 274.236 1184.47C290.614 1184.9 294.63 1185.69 297.779 1186.94C298.859 1191.95 299.269 1199.82 300.239 1203.21" stroke="black" stroke-width="4" stroke-linecap="round"/>
<path d="M342.586 916.562C335.914 916.562 320.445 916.163 315.831 915.569C313.52 915.223 310.447 915.027 303.884 914.977C299.219 914.927 291.845 914.827 284.248 914.725" stroke="black" stroke-width="4" stroke-linecap="round"/>
<path d="M198.6 917.91C198.361 917.91 156.911 917.91 90.9917 917.787C47.9562 916.789 30.9434 915.804 17.0461 915.326C13.4682 915.224 4.14194 915.508 -0.00195324 915.326" stroke="black" stroke-width="4" stroke-linecap="round"/>
<path d="M3.04492 953.469L1317.69 953.469" stroke="black" stroke-width="4" stroke-linecap="round"/>
<path d="M108.381 949.936C108.381 949.733 108.381 942.022 108.424 929.971C108.468 925.526 108.554 924.474 108.643 920.671C108.732 916.869 108.821 910.348 108.913 903.629" stroke="black" stroke-width="4" stroke-linecap="round"/>
<path d="M131.638 911.159L110.437 931.476H97.6289L88.354 911.159L81.2871 874.501L88.354 838.725L110.437 833.426L131.638 850.21L139.146 881.568L131.638 911.159Z" fill="#9ECB75"/>
<path d="M96.8253 927.361C99.6084 929.286 102.954 929.885 104.152 929.885C104.726 929.592 115.222 928.748 115.775 928.458C116.329 928.169 116.863 927.882 117.451 927.494C119.81 925.8 122.031 924.388 123.949 922.229C126.699 919.133 128.197 916.115 130.403 911.644C133.161 906.054 136.983 898.858 137.329 891.483C137.764 882.191 137.853 869.037 136.752 865.108C135.061 859.075 133.843 854.568 131.268 850.49C129.6 847.848 126.426 845.232 122.085 841.346C119.498 839.031 117.217 837.121 113.878 836.416L113.822 836.405C110.279 835.657 100.933 833.685 94.7604 836.404C93.1807 837.1 91.6404 837.886 90.3447 840.12C86.4663 846.807 84.5633 849.565 81.7722 862.914C81.0321 866.454 80.2126 873.936 81.3861 884.852C82.1383 891.849 82.975 895.463 84.3419 900.136C87.097 909.554 89.0488 916.095 89.6783 917.315C91.2109 920.287 93.1891 924.845 96.8253 927.361Z" stroke="black" stroke-width="4" stroke-linecap="round"/>
<path d="M244.156 952.239C244.156 952.036 244.156 944.325 244.2 932.274C244.243 927.829 244.33 926.777 244.419 922.974C244.508 919.172 244.597 912.65 244.688 905.932" stroke="black" stroke-width="4" stroke-linecap="round"/>
<path d="M267.411 913.462L246.211 933.779H233.402L224.127 913.462L217.061 876.803L224.127 841.028L246.211 835.729L267.411 852.512L274.919 883.871L267.411 913.462Z" fill="#9ECB75"/>
<path d="M232.599 929.664C235.382 931.589 238.728 932.188 239.925 932.188C240.499 931.895 250.995 931.051 251.549 930.761C252.102 930.471 252.636 930.184 253.224 929.797C255.584 928.103 257.805 926.691 259.723 924.532C262.473 921.435 263.97 918.418 266.176 913.947C268.935 908.357 272.757 901.161 273.102 893.786C273.537 884.494 273.627 871.34 272.525 867.411C270.834 861.378 269.616 856.87 267.041 852.792C265.373 850.151 262.199 847.535 257.858 843.649C255.272 841.334 252.99 839.423 249.652 838.719L249.596 838.707C246.053 837.96 236.706 835.987 230.534 838.707C228.954 839.403 227.414 840.189 226.118 842.423C222.24 849.11 220.337 851.868 217.546 865.217C216.806 868.757 215.986 876.239 217.16 887.154C217.912 894.152 218.748 897.766 220.115 902.438C222.87 911.856 224.822 918.398 225.452 919.618C226.984 922.589 228.962 927.148 232.599 929.664Z" stroke="black" stroke-width="4" stroke-linecap="round"/>
<path d="M339.795 949.06C339.795 948.975 339.795 946.962 341.043 943.851C341.954 941.579 357.661 942.188 396.089 942.344C424.216 942.459 469.85 942.813 494.583 943.043C541.786 943.686 578.928 945.292 581.385 948.005C582.221 949.391 582.221 950.793 582.221 952.238" stroke="black" stroke-width="4" stroke-linecap="round"/>
<path d="M343.363 941.656C342.949 940.237 342.193 936.129 341.954 933.742C341.837 932.575 343.443 931.526 380.885 931.361C418.327 931.196 491.995 931.955 531.432 933.09C570.869 934.226 573.018 931.755 575.187 933.09C577.356 934.426 579.456 939.523 580.885 942.98" stroke="black" stroke-width="4" stroke-linecap="round"/>
<path d="M341.949 929.925C341.949 929.84 341.949 926.285 343.781 920.791C344.808 917.708 364.467 918.095 406.447 918.173C486.376 918.322 542.456 918.675 552.241 919.327C561.361 919.936 567.509 918.449 572.763 920.671C574.866 921.824 575.874 927.52 576.369 928.846C576.864 930.172 576.864 931.582 575.655 933.881" stroke="black" stroke-width="4" stroke-linecap="round"/>
<circle cx="659.313" cy="1060.93" r="13.6626" transform="rotate(-90 659.313 1060.93)" fill="#407AF6"/>
<circle cx="580.885" cy="1041.71" r="13.6626" transform="rotate(-90 580.885 1041.71)" fill="#407AF6"/>
<circle cx="525.094" cy="991.433" r="13.6626" transform="rotate(-90 525.094 991.433)" fill="#407AF6"/>
<circle cx="443.239" cy="991.662" r="13.6626" transform="rotate(-90 443.239 991.662)" fill="#407AF6"/>
<circle cx="415.223" cy="911.431" r="13.6626" transform="rotate(-90 415.223 911.431)" fill="#407AF6"/>
<circle cx="304.059" cy="872.46" r="13.6626" transform="rotate(-90 304.059 872.46)" fill="#407AF6"/>
<circle cx="392.458" cy="845.136" r="13.6626" transform="rotate(-90 392.458 845.136)" fill="#407AF6"/>
<circle cx="522.61" cy="879.976" r="13.6626" transform="rotate(-90 522.61 879.976)" fill="#407AF6"/>
<circle cx="477.274" cy="831.474" r="13.6626" transform="rotate(-90 477.274 831.474)" fill="#407AF6"/>
<circle cx="712.399" cy="825.326" r="13.6626" transform="rotate(-90 712.399 825.326)" fill="#407AF6"/>
<circle cx="795.6" cy="852.652" r="13.6626" transform="rotate(-90 795.6 852.652)" fill="#407AF6"/>
<circle cx="611.008" cy="852.652" r="13.6626" transform="rotate(-90 611.008 852.652)" fill="#407AF6"/>
<circle cx="193.665" cy="858.798" r="13.6626" transform="rotate(-90 193.665 858.798)" fill="#407AF6"/>
<circle cx="161.592" cy="831.474" r="13.6626" transform="rotate(-90 161.592 831.474)" fill="#407AF6"/>
<circle cx="203.577" cy="1132.42" r="13.6626" transform="rotate(-90 203.577 1132.42)" fill="#407AF6"/>
<circle cx="234.731" cy="1099.86" r="13.6626" transform="rotate(-90 234.731 1099.86)" fill="#407AF6"/>
<circle cx="173.569" cy="1087.72" r="13.6626" transform="rotate(-90 173.569 1087.72)" fill="#407AF6"/>
<circle cx="316.549" cy="1045.06" r="13.6626" transform="rotate(-90 316.549 1045.06)" fill="#407AF6"/>
<circle cx="270.028" cy="1130.89" r="13.6626" transform="rotate(-90 270.028 1130.89)" fill="#407AF6"/>
<circle cx="227.571" cy="1061.54" r="13.6626" transform="rotate(-90 227.571 1061.54)" fill="#407AF6"/>
<circle cx="137.196" cy="1060.5" r="13.6626" transform="rotate(-90 137.196 1060.5)" fill="#407AF6"/>
<circle cx="371.639" cy="1008.37" r="13.6626" transform="rotate(-90 371.639 1008.37)" fill="#407AF6"/>
<circle cx="283.014" cy="1072.16" r="13.6626" transform="rotate(-90 283.014 1072.16)" fill="#407AF6"/>
<circle cx="322.387" cy="991.505" r="13.6626" transform="rotate(-90 322.387 991.505)" fill="#407AF6"/>
<circle cx="714.053" cy="1077.84" r="13.6626" transform="rotate(-90 714.053 1077.84)" fill="#407AF6"/>
<circle cx="792.704" cy="1120.11" r="13.6626" transform="rotate(-90 792.704 1120.11)" fill="#407AF6"/>
<circle cx="750.829" cy="1124.12" r="13.6626" transform="rotate(-90 750.829 1124.12)" fill="#407AF6"/>
<circle cx="1046.46" cy="1078.8" r="13.6626" transform="rotate(-90 1046.46 1078.8)" fill="#407AF6"/>
<circle cx="920.36" cy="1062.29" r="13.6626" transform="rotate(-90 920.36 1062.29)" fill="#407AF6"/>
<circle cx="886.811" cy="982.31" r="13.6626" transform="rotate(-90 886.811 982.31)" fill="#407AF6"/>
<circle cx="863.674" cy="1089.6" r="13.6626" transform="rotate(-90 863.674 1089.6)" fill="#407AF6"/>
<circle cx="737.387" cy="984.833" r="13.6626" transform="rotate(-90 737.387 984.833)" fill="#407AF6"/>
<circle cx="602.211" cy="983.136" r="13.6626" transform="rotate(-90 602.211 983.136)" fill="#407AF6"/>
<circle cx="1014.56" cy="1124.12" r="13.6626" transform="rotate(-90 1014.56 1124.12)" fill="#407AF6"/>
<circle cx="608.682" cy="1127.18" r="13.6626" transform="rotate(-90 608.682 1127.18)" fill="#407AF6"/>
<path d="M443.24 1321.52C443.297 1321.52 443.354 1321.52 453.754 1321.52C464.154 1321.52 484.895 1321.52 497.426 1321.36C518.407 1321.1 522.397 1320.28 529.966 1319.78C534.329 1319.33 538.041 1318.93 543.821 1318.69" stroke="black" stroke-width="4" stroke-linecap="round"/>
<path d="M922.084 1321.52C922.141 1321.52 968.519 1321.52 978.919 1321.52" stroke="black" stroke-width="4" stroke-linecap="round"/>
<path d="M922.084 1321.52C922.141 1321.52 968.519 1321.52 978.919 1321.52" stroke="black" stroke-width="4" stroke-linecap="round"/>
<path d="M807.256 1196.53C807.256 1195.64 807.256 1190.14 807.169 1181.85C807.068 1172.19 805.538 1164.82 804.991 1165.47C802.774 1167.87 797.236 1174.35 794.013 1179.5C793.485 1180.44 793.144 1181.09 792.471 1182.29" stroke="#FF182B" stroke-width="4" stroke-linecap="round"/>
<path d="M806.443 1165.66C807.797 1166.73 813.983 1172.48 817.554 1176.47C818.356 1177.52 819.165 1178.55 819.988 1179.58C820.344 1180.04 820.573 1180.41 821.467 1181.55" stroke="#FF182B" stroke-width="4" stroke-linecap="round"/>
<path d="M617.631 1196.53C617.631 1195.64 617.631 1190.14 617.544 1181.85C617.443 1172.19 615.913 1164.82 615.366 1165.47C613.149 1167.87 607.611 1174.35 604.388 1179.5C603.86 1180.44 603.519 1181.09 602.846 1182.29" stroke="#FF182B" stroke-width="4" stroke-linecap="round"/>
<path d="M616.818 1165.66C618.172 1166.73 624.358 1172.48 627.929 1176.47C628.731 1177.52 629.54 1178.55 630.363 1179.58C630.719 1180.04 630.948 1180.41 631.842 1181.55" stroke="#FF182B" stroke-width="4" stroke-linecap="round"/>
<path d="M236.791 1183.48C236.791 1182.59 236.791 1177.08 236.704 1168.8C236.603 1159.14 235.073 1151.77 234.526 1152.42C232.309 1154.82 226.771 1161.3 223.548 1166.44C223.021 1167.39 222.679 1168.04 222.006 1169.24" stroke="#FF182B" stroke-width="4" stroke-linecap="round"/>
<path d="M235.979 1152.61C237.332 1153.68 243.518 1159.43 247.089 1163.42C247.891 1164.47 248.7 1165.5 249.524 1166.52C249.879 1166.99 250.108 1167.35 251.002 1168.5" stroke="#FF182B" stroke-width="4" stroke-linecap="round"/>
<path d="M735.257 1019.66C735.257 1022.14 734.96 1028.21 734.182 1031.51C733.896 1032.7 733.586 1033.61 733.243 1034.51C733.091 1034.98 732.987 1035.47 732.744 1036.98" stroke="#FF182B" stroke-width="4" stroke-linecap="round"/>
<path d="M731.664 1047.69C731.627 1047.69 732.764 1047.69 734.376 1047.98C734.906 1048.07 734.552 1048.84 734.079 1049.32C733.086 1050.32 731.613 1050.81 730.377 1051.2C729.814 1051.37 729.313 1051.25 729.202 1050.99C729.092 1050.72 729.369 1050.26 729.758 1049.98C730.146 1049.69 730.637 1049.59 731.121 1049.53C731.604 1049.47 732.065 1049.44 732.886 1049.3" stroke="#FF182B" stroke-width="4" stroke-linecap="round"/>
<path d="M750.531 1006.37C749.592 1006.37 745.854 1005.75 742.787 1004.58C738.968 1003.12 728.438 1005.76 721.258 1009.1C715.826 1011.64 713.22 1018.2 710.706 1026.4C708.203 1034.57 709.468 1041.48 710.273 1044.97C711.139 1048.73 713.022 1051.42 718.712 1057.14C721.642 1060.09 726.878 1061.08 731.307 1061.98C737.624 1063.27 741.92 1060.29 747.568 1057.21C751.482 1055.07 754.274 1051.13 756.161 1048.2C757.835 1045.6 757.644 1036.55 756.755 1028.05C755.908 1019.97 752.513 1016.8 750.754 1013.59C749.727 1012.25 748.704 1011.05 747.67 1009.85C747.12 1009.24 746.518 1008.6 744.953 1007.12" stroke="#FF182B" stroke-width="4" stroke-linecap="round"/>
<path d="M211.225 973.428C211.225 973.628 211.225 977.246 211.339 983.021C211.453 985.282 211.681 986.183 211.994 987.12C212.306 988.057 212.696 989.002 214.307 991.763" stroke="#FF182B" stroke-width="4" stroke-linecap="round"/>
<path d="M216.789 1005.32C216.72 1005.32 217.239 1006.07 217.816 1007.6C217.837 1008.38 217.309 1009.15 216.612 1009.41C215.915 1009.68 215.065 1009.41 215.377 1006.75" stroke="#FF182B" stroke-width="4" stroke-linecap="round"/>
<path d="M230.94 964.264C230 964.264 226.262 963.644 223.196 962.471C219.376 961.009 208.847 963.651 201.666 966.997C196.234 969.528 193.628 976.092 191.115 984.292C188.611 992.458 189.876 999.374 190.681 1002.87C191.547 1006.62 193.431 1009.31 199.12 1015.03C202.05 1017.98 207.287 1018.97 211.716 1019.87C218.033 1021.17 222.328 1018.18 227.976 1015.1C231.89 1012.96 234.683 1009.02 236.569 1006.09C238.243 1003.49 238.052 994.439 237.163 985.947C236.316 977.859 232.921 974.69 231.162 971.487C230.135 970.147 229.112 968.946 228.078 967.745C227.528 967.128 226.927 966.495 225.362 965.011" stroke="#FF182B" stroke-width="4" stroke-linecap="round"/>
<circle cx="547.723" cy="1158.25" r="13.6626" fill="#407AF6"/>
<path d="M560.102 1149.73C560.131 1149.73 560.829 1149.73 562.176 1149.64C563.463 1149.36 567.291 1148.17 572.32 1146.62C574.163 1146.07 574.569 1146 575.195 1145.82" stroke="#A1A0A0" stroke-width="4" stroke-linecap="round"/>
<path d="M575.704 1144.84C575.684 1144.84 575.663 1145.38 575.525 1146.14C575.478 1146.4 575.152 1146.29 574.984 1146.12C574.816 1145.95 574.733 1145.7 574.69 1145.44C574.648 1145.18 574.648 1144.91 574.676 1144.59" stroke="#F9AD16" stroke-width="4" stroke-linecap="round"/>
<path d="M515.575 1065.49C515.549 1065.49 515.169 1065.6 514.395 1065.56C511.691 1065.42 510.703 1061.12 510.623 1060.11C510.421 1057.57 515.234 1057.46 515.743 1056.77C516.247 1056.09 516.016 1054.71 515.574 1053.29C514.788 1050.77 510.955 1049.97 510.197 1048.62C508.883 1046.26 515.376 1043.34 516.396 1041.55C516.386 1039.51 515.786 1037.6 515.306 1036.8C515.033 1036.42 514.698 1036.11 513.999 1035.78" stroke="#A1A0A0" stroke-width="4" stroke-linecap="round"/>
<path d="M531.107 1076.63C531.079 1076.64 530.404 1076.82 529.079 1077.08C527.764 1077.15 523.758 1076.99 518.5 1076.79C516.577 1076.74 516.168 1076.78 515.516 1076.77" stroke="#A1A0A0" stroke-width="4" stroke-linecap="round"/>
<path d="M514.774 1075.96C514.794 1075.95 514.952 1076.46 515.284 1077.17C515.396 1077.4 515.68 1077.21 515.799 1077C515.917 1076.79 515.934 1076.54 515.908 1076.27C515.881 1076.01 515.81 1075.74 515.701 1075.45" stroke="#F9AD16" stroke-width="4" stroke-linecap="round"/>
<circle cx="544.296" cy="1082.35" r="13.6626" transform="rotate(-15 544.296 1082.35)" fill="#407AF6"/>
<path d="M573.801 1136.18C573.801 1136.14 573.801 1135 573.59 1133.14C573.341 1130.95 571.19 1130.54 570.605 1129.91C568.355 1127.49 570.017 1122.17 569.354 1121.59C568.959 1121.37 568.445 1121.29 567.663 1121.25C566.881 1121.21 565.848 1121.21 563.775 1120.74" stroke="#A1A0A0" stroke-width="4" stroke-linecap="round"/>
<path d="M629.989 1256.55C642.788 1278.72 638.69 1292.09 621.037 1302.28C603.383 1312.47 576.37 1311.32 566.06 1293.46C555.75 1275.61 561.703 1252.87 579.357 1242.68C597.01 1232.48 619.679 1238.7 629.989 1256.55Z" fill="#FF99A2"/>
<path d="M638.251 1327.75L647.35 1309.35L740.086 1322.4L826.801 1346.4L824.709 1369.74L839.218 1381.34L834.458 1401.89L816.408 1406.99L808.777 1422.42L720.548 1405.74L629.594 1376.65L632.165 1364.63L650.413 1344.11L638.251 1327.75Z" fill="#FFDC9B"/>
<path d="M699.145 1342.17C697.948 1345.99 695.093 1354.58 693.507 1357.33C693.172 1357.92 693.364 1358.43 693.65 1358.73C696.99 1359.53 701.737 1360.08 702.777 1360.2" stroke="black" stroke-width="4" stroke-linecap="round"/>
<path d="M708.174 1346.12L699.973 1372.34" stroke="black" stroke-width="4" stroke-linecap="round"/>
<path d="M725.294 1351.71C725.261 1351.7 722.418 1349.91 719.857 1349.43C716.657 1348.84 715.226 1352.03 713.859 1354.26C713.101 1355.5 713.108 1356.87 713.223 1357.92C713.281 1358.45 713.517 1358.92 713.85 1359.31C714.528 1360.11 715.762 1360.47 716.949 1360.66C718.939 1360.99 720.128 1362.69 722.679 1359.35C723.668 1358.05 725.294 1351.71 725.294 1351.71ZM725.294 1351.71C725.294 1351.71 722.022 1362.22 718.885 1372.42C717.645 1376.55 717.341 1376.6 716.839 1378.76" stroke="black" stroke-width="4" stroke-linecap="round"/>
<path d="M786.903 1368.38C786.87 1368.37 784.027 1366.57 781.466 1366.1C778.267 1365.5 776.835 1368.7 775.468 1370.93C774.71 1372.16 774.718 1373.53 774.833 1374.59C774.89 1375.11 775.126 1375.59 775.459 1375.98C776.137 1376.77 777.372 1377.13 778.558 1377.33C780.549 1377.65 781.738 1379.35 784.288 1376.01C785.278 1374.71 786.903 1368.38 786.903 1368.38ZM786.903 1368.38C786.903 1368.38 783.632 1378.88 780.494 1389.08C779.254 1393.22 778.951 1393.26 778.448 1395.42" stroke="black" stroke-width="4" stroke-linecap="round"/>
<path d="M805.092 1374.06C805.06 1374.05 802.217 1372.26 799.655 1371.79C796.456 1371.19 795.024 1374.38 793.658 1376.61C792.9 1377.85 792.907 1379.22 793.022 1380.28C793.08 1380.8 793.316 1381.28 793.648 1381.66C794.327 1382.46 795.561 1382.82 796.748 1383.01C798.738 1383.34 799.927 1385.04 802.478 1381.7C803.467 1380.4 805.092 1374.06 805.092 1374.06ZM805.092 1374.06C805.092 1374.06 801.821 1384.57 798.684 1394.77C797.443 1398.9 797.14 1398.95 796.638 1401.11" stroke="black" stroke-width="4" stroke-linecap="round"/>
<path d="M677.866 1367.59C672.93 1366.05 663.623 1362.8 664.435 1362.34C666.119 1361.39 667.652 1359.92 669.091 1358.54C670.896 1356.8 671.368 1354.23 673.288 1348.27C674.886 1343.31 675.523 1337.7 677.186 1334.36C677.652 1333.42 678.871 1333.08 679.897 1332.65C682.416 1331.6 686.659 1334.8 688.319 1336.46C688.453 1338.54 688.2 1340.42 687.994 1341.56C687.862 1342.2 687.673 1342.95 687.472 1344.13" stroke="black" stroke-width="4" stroke-linecap="round"/>
<path d="M681.916 1350.19C681.883 1350.18 681.85 1350.17 679.21 1349.36C676.57 1348.54 671.324 1346.92 665.142 1345.36" stroke="black" stroke-width="4" stroke-linecap="round"/>
<path d="M733.326 1366.45L741.83 1369.11" stroke="black" stroke-width="4" stroke-linecap="round"/>
<path d="M754.666 1364.68C754.687 1364.62 754.857 1364.16 755.33 1363.38C756.397 1361.62 761.436 1360.13 764.834 1359.2C765.451 1359.03 766.251 1359.45 766.818 1359.77C767.384 1360.1 767.713 1360.54 767.936 1361.02C769.418 1364.15 765.445 1370.24 762.635 1373.72C759.467 1377.66 753.577 1383.33 751.451 1384.95C750.517 1385.66 749.392 1386 748.425 1386.23C747.947 1386.35 747.471 1386.34 748.772 1386.85C753.158 1388.33 758.86 1389.78 762.999 1390.52C764.614 1390.82 765.245 1390.97 765.895 1391.12" stroke="black" stroke-width="4" stroke-linecap="round"/>
<path d="M823.505 1346.75C824.564 1347.07 825.701 1346.47 826.045 1345.42C826.388 1344.37 825.809 1343.26 824.75 1342.95L824.128 1344.85L823.505 1346.75ZM696.951 1315.98L696.575 1317.93L696.951 1315.98ZM675.345 1311.49L675.049 1313.46L675.345 1311.49ZM658.388 1309.05L658.784 1307.1L658.388 1309.05ZM648.773 1308.01L648.731 1309.99L648.773 1308.01ZM639.473 1329.77L637.595 1329.09L639.473 1329.77ZM639.259 1331.28L637.746 1332.62L639.259 1331.28ZM643.205 1332.6L644.06 1330.78L643.205 1332.6ZM647.901 1342.35L645.988 1343.02V1343.02L647.901 1342.35ZM642.07 1355.28L640.818 1353.76L642.07 1355.28ZM631.473 1359.81L630.858 1357.94L631.473 1359.81ZM625.982 1374.35L627.938 1374.78L625.982 1374.35ZM742.078 1411.57L741.472 1413.48L742.078 1411.57ZM769.417 1417.92L769.443 1415.93L769.417 1417.92ZM774.414 1418.56L773.938 1420.5L774.414 1418.56ZM801.473 1424.43L801.932 1422.49L801.473 1424.43ZM808.194 1425.55L807.845 1423.6V1423.6L808.194 1425.55ZM815.773 1408.95L813.925 1408.2L815.773 1408.95ZM831.405 1402.19L830.345 1400.53V1400.53L831.405 1402.19ZM839.364 1389.31L841.278 1389.89L839.364 1389.31ZM837.716 1377.86L836.001 1378.94L837.716 1377.86ZM827.292 1370.45L826.127 1372.09L827.292 1370.45ZM826.224 1369.09L824.318 1369.78V1369.78L826.224 1369.09ZM827.408 1358.65L825.44 1358.26L827.408 1358.65ZM829.249 1347.77L830.233 1346.01L830.221 1346.01L830.209 1346L829.249 1347.77ZM825.186 1342.93C824.303 1342.29 823.038 1342.48 822.359 1343.36C821.681 1344.25 821.847 1345.49 822.729 1346.13L823.958 1344.53L825.186 1342.93ZM824.128 1344.85L824.75 1342.95C824.559 1342.89 824.364 1342.84 812.53 1339.46L811.929 1341.37L811.327 1343.27C823.184 1346.66 823.342 1346.7 823.505 1346.75L824.128 1344.85ZM811.929 1341.37L812.53 1339.46C800.693 1336.08 777.157 1329.37 761.55 1325.35L760.997 1327.27L760.445 1329.19C775.992 1333.2 799.474 1339.89 811.327 1343.27L811.929 1341.37ZM760.997 1327.27L761.55 1325.35C745.902 1321.31 738.912 1320.16 733.298 1319.19L732.906 1321.15L732.513 1323.1C738.064 1324.06 744.939 1325.19 760.445 1329.19L760.997 1327.27ZM732.906 1321.15L733.298 1319.19C727.743 1318.23 723.666 1317.46 717.706 1316.68L717.395 1318.64L717.084 1320.61C722.939 1321.38 726.904 1322.13 732.513 1323.1L732.906 1321.15ZM717.395 1318.64L717.706 1316.68C711.699 1315.89 704.155 1315.14 697.327 1314.02L696.951 1315.98L696.575 1317.93C703.476 1319.07 711.275 1319.85 717.084 1320.61L717.395 1318.64ZM696.951 1315.98L697.327 1314.02C690.981 1312.98 686.194 1311.94 682.71 1311.12C680.946 1310.71 679.563 1310.36 678.397 1310.09C677.287 1309.82 676.341 1309.61 675.64 1309.52L675.345 1311.49L675.049 1313.46C675.487 1313.52 676.211 1313.67 677.366 1313.94C678.464 1314.21 679.94 1314.57 681.693 1314.98C685.243 1315.81 690.12 1316.87 696.575 1317.93L696.951 1315.98ZM675.345 1311.49L675.64 1309.52C667.211 1308.48 662.944 1307.82 658.784 1307.1L658.388 1309.05L657.993 1311.01C662.233 1311.74 666.568 1312.41 675.049 1313.46L675.345 1311.49ZM658.388 1309.05L658.784 1307.1C652.101 1305.93 650.159 1306.02 648.815 1306.02L648.773 1308.01L648.731 1309.99C649.853 1309.99 651.558 1309.88 657.993 1311.01L658.388 1309.05ZM648.773 1308.01L648.815 1306.02C646.126 1306.03 644.322 1308.08 643.185 1310C641.986 1312.03 641.073 1314.66 640.356 1317.23C639.632 1319.82 639.067 1322.5 638.614 1324.69C638.385 1325.79 638.188 1326.75 638.01 1327.54C637.824 1328.36 637.686 1328.85 637.595 1329.09L639.473 1329.77L641.352 1330.44C641.568 1329.89 641.762 1329.12 641.943 1328.32C642.132 1327.49 642.339 1326.48 642.564 1325.39C643.018 1323.21 643.558 1320.65 644.242 1318.2C644.933 1315.72 645.734 1313.5 646.657 1311.94C647.643 1310.27 648.372 1309.99 648.731 1309.99L648.773 1308.01ZM639.473 1329.77L637.595 1329.09C637.54 1329.23 637.301 1329.77 637.196 1330.2C637.07 1330.71 636.945 1331.74 637.746 1332.62L639.259 1331.28L640.773 1329.93C640.867 1330.04 640.95 1330.16 641.013 1330.3C641.076 1330.44 641.109 1330.57 641.123 1330.69C641.151 1330.9 641.114 1331.05 641.113 1331.05C641.112 1331.05 641.121 1331.02 641.169 1330.9C641.192 1330.84 641.216 1330.78 641.248 1330.7C641.279 1330.63 641.315 1330.54 641.352 1330.44L639.473 1329.77ZM639.259 1331.28L637.746 1332.62C638.669 1333.63 639.967 1333.92 640.712 1334.07C640.921 1334.11 641.127 1334.15 641.306 1334.18C641.494 1334.21 641.652 1334.24 641.801 1334.27C642.113 1334.33 642.271 1334.38 642.349 1334.41L643.205 1332.6L644.06 1330.78C643.572 1330.57 643.067 1330.45 642.676 1330.37C642.473 1330.33 642.269 1330.3 642.09 1330.27C641.904 1330.24 641.741 1330.21 641.584 1330.18C640.867 1330.04 640.759 1329.92 640.773 1329.93L639.259 1331.28ZM643.205 1332.6L642.349 1334.41C642.397 1334.43 642.608 1334.56 642.934 1335.04C643.25 1335.5 643.575 1336.15 643.917 1336.99C644.62 1338.71 645.216 1340.76 645.988 1343.02L647.901 1342.35L649.813 1341.68C649.123 1339.66 648.419 1337.29 647.664 1335.44C647.277 1334.49 646.833 1333.56 646.3 1332.78C645.777 1332.01 645.061 1331.22 644.06 1330.78L643.205 1332.6ZM647.901 1342.35L645.988 1343.02C646.446 1344.36 645.961 1346.45 644.67 1348.81C643.426 1351.08 641.76 1353 640.818 1353.76L642.07 1355.28L643.323 1356.81C644.778 1355.64 646.767 1353.26 648.208 1350.63C649.603 1348.09 650.835 1344.68 649.813 1341.68L647.901 1342.35ZM642.07 1355.28L640.818 1353.76C639.528 1354.79 637.899 1355.57 636.115 1356.22C634.225 1356.92 632.63 1357.34 630.858 1357.94L631.473 1359.81L632.089 1361.69C633.437 1361.23 635.597 1360.62 637.453 1359.94C639.415 1359.21 641.524 1358.25 643.323 1356.81L642.07 1355.28ZM631.473 1359.81L630.858 1357.94C629.35 1358.45 628.383 1359.72 627.752 1360.86C627.089 1362.05 626.572 1363.51 626.143 1364.99C625.317 1367.83 624.625 1371.52 624.025 1373.92L625.982 1374.35L627.938 1374.78C628.658 1371.91 629.189 1368.85 630.017 1366C630.416 1364.62 630.834 1363.5 631.28 1362.7C631.758 1361.84 632.074 1361.69 632.089 1361.69L631.473 1359.81ZM625.982 1374.35L624.025 1373.92C623.743 1375.04 623.649 1376.39 624.644 1377.49C625.048 1377.94 625.532 1378.23 625.908 1378.42C626.278 1378.61 626.73 1378.81 627.109 1378.98L627.979 1377.17L628.849 1375.36C628.372 1375.15 628.089 1375.03 627.853 1374.9C627.622 1374.78 627.628 1374.75 627.689 1374.82C627.729 1374.87 627.775 1374.93 627.812 1375.02C627.849 1375.1 627.861 1375.16 627.864 1375.19C627.868 1375.23 627.851 1375.13 627.938 1374.78L625.982 1374.35ZM627.979 1377.17L627.109 1378.98C628.952 1379.8 631.923 1381.17 654.515 1388L655.146 1386.1L655.778 1384.2C633.175 1377.37 630.431 1376.07 628.849 1375.36L627.979 1377.17ZM655.146 1386.1L654.515 1388C677.126 1394.83 719.389 1407.13 741.472 1413.48L742.078 1411.57L742.683 1409.66C720.603 1403.32 678.362 1391.03 655.778 1384.2L655.146 1386.1ZM742.078 1411.57L741.472 1413.48C764.094 1419.98 766.48 1419.93 769.39 1419.9L769.417 1417.92L769.443 1415.93C767.224 1415.95 765.404 1416.2 742.683 1409.66L742.078 1411.57ZM769.417 1417.92L769.39 1419.9C771.161 1419.88 772.419 1420.17 773.938 1420.5L774.414 1418.56L774.89 1416.62C773.397 1416.3 771.728 1415.91 769.443 1415.93L769.417 1417.92ZM774.414 1418.56L773.938 1420.5C776.071 1420.96 786.58 1423.37 801.013 1426.37L801.473 1424.43L801.932 1422.49C787.513 1419.49 777.09 1417.1 774.89 1416.62L774.414 1418.56ZM801.473 1424.43L801.013 1426.37C803.585 1426.91 805.142 1427.23 806.135 1427.4C807.104 1427.57 807.806 1427.64 808.542 1427.5L808.194 1425.55L807.845 1423.6C807.844 1423.6 807.845 1423.6 807.847 1423.6C807.848 1423.6 807.848 1423.6 807.845 1423.6C807.838 1423.6 807.809 1423.61 807.744 1423.6C807.602 1423.59 807.358 1423.57 806.91 1423.49C806.009 1423.34 804.546 1423.03 801.932 1422.49L801.473 1424.43ZM808.194 1425.55L808.542 1427.5C809.491 1427.31 810.222 1426.77 810.746 1426.23C811.278 1425.69 811.73 1425.03 812.119 1424.35C812.896 1422.99 813.591 1421.26 814.218 1419.51C814.849 1417.75 815.455 1415.85 816.018 1414.13C816.594 1412.38 817.121 1410.85 817.621 1409.7L815.773 1408.95L813.925 1408.2C813.336 1409.55 812.755 1411.26 812.185 1412.99C811.604 1414.76 811.027 1416.58 810.42 1418.27C809.809 1419.97 809.21 1421.42 808.618 1422.46C808.322 1422.98 808.071 1423.31 807.879 1423.51C807.68 1423.71 807.666 1423.64 807.845 1423.6L808.194 1425.55ZM815.773 1408.95L817.621 1409.7C817.794 1409.31 818.236 1408.83 819.255 1408.31C820.264 1407.8 821.583 1407.39 823.138 1406.97C824.587 1406.58 826.403 1406.16 827.933 1405.72C829.5 1405.26 831.135 1404.69 832.466 1403.85L831.405 1402.19L830.345 1400.53C829.531 1401.04 828.363 1401.48 826.878 1401.91C825.353 1402.35 823.865 1402.69 822.165 1403.14C820.571 1403.57 818.898 1404.08 817.478 1404.79C816.069 1405.51 814.645 1406.56 813.925 1408.2L815.773 1408.95ZM831.405 1402.19L832.466 1403.85C836.716 1401.17 839.022 1396.68 841.278 1389.89L839.364 1389.31L837.449 1388.73C835.224 1395.43 833.281 1398.67 830.345 1400.53L831.405 1402.19ZM839.364 1389.31L841.278 1389.89C842.929 1384.92 841.17 1379.52 839.432 1376.78L837.716 1377.86L836.001 1378.94C837.352 1381.07 838.607 1385.25 837.449 1388.73L839.364 1389.31ZM837.716 1377.86L839.432 1376.78C837.974 1374.49 835.78 1372.94 833.761 1371.76C832.748 1371.17 831.713 1370.64 830.812 1370.16C829.883 1369.66 829.098 1369.23 828.458 1368.8L827.292 1370.45L826.127 1372.09C826.96 1372.65 827.913 1373.17 828.837 1373.66C829.789 1374.17 830.722 1374.65 831.645 1375.19C833.498 1376.27 835.043 1377.44 836.001 1378.94L837.716 1377.86ZM827.292 1370.45L828.458 1368.8C828.276 1368.68 828.179 1368.54 828.129 1368.4L826.224 1369.09L824.318 1369.78C824.67 1370.78 825.328 1371.55 826.127 1372.09L827.292 1370.45ZM826.224 1369.09L828.129 1368.4C827.86 1367.64 827.83 1366.6 828.086 1364.98C828.345 1363.35 828.827 1361.48 829.376 1359.03L827.408 1358.65L825.44 1358.26C824.932 1360.53 824.388 1362.66 824.103 1364.46C823.816 1366.27 823.723 1368.1 824.318 1369.78L826.224 1369.09ZM827.408 1358.65L829.376 1359.03C829.563 1358.19 830.127 1356.65 830.758 1354.89C831.058 1354.06 831.362 1353.2 831.606 1352.44C831.839 1351.72 832.063 1350.95 832.147 1350.34L830.149 1350.12L828.152 1349.9C828.12 1350.13 827.999 1350.6 827.766 1351.32C827.544 1352.01 827.261 1352.81 826.96 1353.65C826.389 1355.24 825.697 1357.11 825.44 1358.26L827.408 1358.65ZM830.149 1350.12L832.147 1350.34C832.285 1349.33 832.257 1348.34 831.803 1347.48C831.327 1346.58 830.559 1346.19 830.233 1346.01L829.249 1347.77L828.265 1349.52C828.331 1349.55 828.366 1349.57 828.389 1349.59C828.41 1349.6 828.406 1349.6 828.39 1349.59C828.373 1349.57 828.342 1349.55 828.308 1349.51C828.274 1349.47 828.243 1349.42 828.219 1349.38C828.17 1349.28 828.177 1349.24 828.184 1349.32C828.192 1349.4 828.195 1349.58 828.152 1349.9L830.149 1350.12ZM829.249 1347.77L830.209 1346C827.827 1344.79 826.197 1343.68 825.186 1342.93L823.958 1344.53L822.729 1346.13C823.873 1346.97 825.683 1348.2 828.289 1349.53L829.249 1347.77Z" fill="black"/>
<path d="M574.698 1278.99C574.425 1278.31 573.887 1276.26 574.323 1271.03C574.55 1268.3 575.202 1266.71 575.495 1266.4C575.643 1266.24 576.03 1267.04 577.948 1271.3C579.867 1275.56 583.367 1283.5 585.291 1287.76C587.215 1292.02 587.457 1292.36 587.954 1292.79" stroke="black" stroke-width="4" stroke-linecap="round"/>
<path d="M592.699 1262.27C591.085 1262.92 587.833 1264.41 587.355 1265.16C586.072 1267.18 587.083 1270.12 587.524 1272.2C587.721 1273.13 588.01 1273.77 589.179 1273.96C595.597 1274.99 598.75 1274.31 600.594 1275.6C603.792 1277.84 604.509 1284.2 604.228 1286.02C603.904 1288.11 599.515 1289.23 596.992 1289.37C595.032 1289.47 594.862 1285.27 594.622 1282.6C594.403 1280.17 597.141 1275.67 598.917 1272.12C599.716 1270.53 600.035 1269.18 599.92 1268.27C598.929 1266.28 597.403 1264.81 595.962 1263.67C595.536 1263.34 595.033 1262.9 593.56 1262.07" stroke="black" stroke-width="4" stroke-linecap="round"/>
<path d="M610.914 1263.08L616.88 1277.92" stroke="black" stroke-width="4" stroke-linecap="round"/>
<path d="M609.27 1273.56L623.94 1267.66" stroke="black" stroke-width="4" stroke-linecap="round"/>
<path d="M580.35 1244.58C580.337 1244.59 578.272 1245.46 574.548 1247.3C572.824 1248.16 571.674 1249.31 570.474 1250.58C569.275 1251.86 568.122 1253.34 566.617 1255.56C565.112 1257.78 563.29 1260.7 562.258 1262.43C560.976 1264.58 560.698 1265.9 560.455 1267.5C560.219 1269.05 560.264 1270.71 560.142 1272.82C559.97 1275.78 559.593 1278.2 559.63 1279.54C559.659 1280.6 559.917 1281.47 560.74 1283.65C561.417 1285.44 562.77 1288.57 564.29 1291.42C565.809 1294.28 567.493 1296.75 568.65 1298.36C570.331 1300.71 571.583 1301.96 572.886 1303.16C574.329 1304.48 575.856 1305.6 577.237 1306.48C578.523 1307.3 580.747 1308.02 583.388 1308.94C585.26 1309.6 586.833 1310.22 588.696 1310.56C590.774 1310.94 592.804 1310.95 597.002 1310.22C600.335 1309.65 605.987 1308.11 610.452 1306.76C614.918 1305.4 617.994 1304.14 621.295 1302.21C624.597 1300.28 628.031 1297.73 630.294 1295.92C632.556 1294.11 633.543 1293.12 634.539 1291.96C636.588 1289.57 637.724 1287.81 638.193 1286.94C638.835 1285.75 639.38 1283.85 639.884 1281.95C640.199 1280.77 639.91 1278.75 639.055 1275.06C637.913 1270.13 636.148 1267.08 635.065 1265.35C634.245 1264.05 632.748 1261.95 630.211 1258.54C627.674 1255.13 624.11 1250.48 621.616 1247.43C617.946 1242.96 615.802 1241.26 614.511 1240.38C613.887 1239.96 613.236 1239.75 609.835 1239.28C606.435 1238.81 600.282 1238.13 596.505 1237.82C592.728 1237.51 591.515 1237.6 590.326 1237.8C587.985 1238.2 585.131 1239.25 582.295 1240.35C579.631 1241.38 578.764 1243.14 578.01 1244.34C577.763 1244.65 577.441 1244.93 577.183 1245.11C576.926 1245.29 576.742 1245.36 576.463 1245.31" stroke="black" stroke-width="4" stroke-linecap="round"/>
<path d="M921.223 1215.45C921.223 1215.24 921.223 1207.53 921.266 1195.48C921.309 1191.04 921.396 1189.98 921.485 1186.18C921.574 1182.38 921.663 1175.86 921.755 1169.14" stroke="black" stroke-width="4" stroke-linecap="round"/>
<path d="M944.479 1176.67L923.279 1196.99H910.471L901.196 1176.67L894.129 1140.01L901.196 1104.24L923.279 1098.94L944.479 1115.72L951.988 1147.08L944.479 1176.67Z" fill="#9ECB75"/>
<path d="M909.667 1192.87C912.45 1194.8 915.796 1195.39 916.993 1195.39C917.567 1195.1 928.064 1194.26 928.617 1193.97C929.171 1193.68 929.704 1193.39 930.293 1193C932.652 1191.31 934.873 1189.9 936.791 1187.74C939.541 1184.64 941.038 1181.62 943.245 1177.15C946.003 1171.56 949.825 1164.37 950.17 1156.99C950.605 1147.7 950.695 1134.55 949.594 1130.62C947.903 1124.58 946.685 1120.08 944.109 1116C942.441 1113.36 939.268 1110.74 934.927 1106.86C932.34 1104.54 930.058 1102.63 926.72 1101.93L926.664 1101.91C923.121 1101.17 913.774 1099.19 907.602 1101.91C906.022 1102.61 904.482 1103.4 903.187 1105.63C899.308 1112.32 897.405 1115.08 894.614 1128.42C893.874 1131.96 893.054 1139.45 894.228 1150.36C894.98 1157.36 895.817 1160.97 897.184 1165.65C899.939 1175.06 901.891 1181.6 902.52 1182.83C904.053 1185.8 906.031 1190.35 909.667 1192.87Z" stroke="black" stroke-width="4" stroke-linecap="round"/>
<path d="M122.528 1266.86C122.52 1266.83 123.165 1264.75 124.862 1259.97C127.057 1253.77 129.374 1248.7 130.381 1246.21C130.695 1245.44 131.12 1246 131.342 1246.55C131.565 1247.09 131.703 1247.7 133.206 1254.75C134.708 1261.81 137.571 1275.28 140.52 1289.16" stroke="black" stroke-width="4" stroke-linecap="round"/>
<path d="M156.447 1280.95C156.313 1280.34 156.631 1274.52 157.587 1265.97C158.564 1257.23 159.263 1255.79 159.707 1253.96C160.013 1252.7 160.102 1251.6 160.395 1251.16C160.512 1250.98 160.864 1251.24 163.562 1255.08C166.26 1258.92 171.369 1266.42 174.132 1270.42C176.895 1274.41 177.156 1274.69 177.853 1275.47" stroke="black" stroke-width="4" stroke-linecap="round"/>
<path d="M158.416 1270.89L171.539 1267.37" stroke="black" stroke-width="4" stroke-linecap="round"/>
<path d="M184.454 1273.09C184.449 1273.07 183.298 1268.67 181.457 1261.25C179.778 1254.48 179.514 1251.06 179.281 1249.6C179.219 1249.21 179.386 1249.51 179.519 1249.53C181.897 1249.97 189.374 1257.14 189.918 1257.28C190.48 1257.42 190.381 1255.78 191.958 1252.45C193.808 1248.54 194.935 1244.93 195.944 1243.03C196.246 1242.47 196.507 1242.83 196.928 1245.99C197.348 1249.15 198.984 1254.87 199.576 1259.16C200.167 1263.44 200.659 1265.86 201.219 1268.89" stroke="black" stroke-width="4" stroke-linecap="round"/>
<path d="M68.6691 1268.05L89.8039 1259.36L87.0908 1280.31L68.6691 1268.05Z" fill="#ED3E7B"/>
<path d="M91.2894 1257.24C91.2725 1257.31 90.6117 1261.17 89.614 1267.1C89.2141 1269.48 89.234 1272.16 89.1966 1276.06C89.1634 1279.53 88.6057 1280.63 88.5786 1281.12C88.5647 1281.37 88.6524 1281.67 90.2337 1285.7C91.8151 1289.73 94.9136 1297.5 96.8128 1302.24" stroke="black" stroke-width="4" stroke-linecap="round"/>
<path d="M85.2734 1307.84L109.971 1297.99" stroke="black" stroke-width="4" stroke-linecap="round"/>
<path d="M87.7661 1281.11C87.5394 1281.05 83.9803 1278.71 81.4639 1276.93C80.0613 1275.94 77.8762 1274.95 75.7353 1273.92C72.9536 1272.58 71.2499 1270.53 70.0478 1270.1C68.8562 1269.67 67.2144 1268.05 65.7761 1266.51C64.6654 1265.33 63.8651 1264.89 63.1003 1264.42C62.6673 1264.16 59.0234 1260.58 59.0234 1260.58" stroke="black" stroke-width="4" stroke-linecap="round"/>
<path d="M91.9677 1256.52C92.1333 1255.54 92.4904 1253.07 92.5028 1251.88C92.6007 1249.27 92.6556 1246.42 92.7392 1245.93C92.7863 1245.69 92.8431 1245.48 93.0367 1244.86" stroke="black" stroke-width="4" stroke-linecap="round"/>
<path d="M93.1901 1244.8C93.1657 1244.81 93.1412 1244.82 88.7397 1246.59C84.3383 1248.35 75.5606 1251.87 70.255 1254.13C64.9494 1256.4 63.3818 1257.3 62.3588 1257.91C60.3038 1259.2 59.8212 1259.5 59.5014 1259.74C59.3456 1259.87 59.2033 1260 58.9217 1260.21" stroke="black" stroke-width="4" stroke-linecap="round"/>
<path d="M69.0683 1267.81C69.0561 1267.81 72.1458 1266.58 76.9686 1264.62C78.9596 1263.73 87.8857 1260.05 91.4451 1258.53" stroke="black" stroke-width="4" stroke-linecap="round"/>
<path d="M218.333 1314.77C218.333 1309.2 214.82 1274.44 216.333 1267.87C216.502 1267.14 217.253 1266.8 217.983 1266.58C221.35 1265.59 226.963 1269.21 231.562 1272.4C236.985 1276.16 244.054 1281.17 246.926 1282.88C252.147 1285.99 265.675 1287.55 265.675 1287.55C265.675 1287.55 280.278 1282.76 283.208 1280.19C288.909 1275.18 298.811 1263.62 298.811 1263.62C298.811 1263.62 305.838 1272.19 315.764 1280.23C319.5 1283.25 322.028 1284.63 326.189 1285.28C331.491 1286.1 340.457 1283.37 349.661 1279.87C360.72 1275.68 371.358 1266.98 375.886 1264.9C376.411 1264.65 376.851 1265.69 377.061 1273.09C377.271 1280.49 377.271 1294.64 377.475 1302.2C377.68 1309.76 378.089 1310.31 378.619 1310.75C382.717 1314.19 391.627 1315.82 394.538 1317C396.075 1317.63 397.436 1318.42 398.341 1319.35C399.247 1320.29 392.295 1326.85 381.727 1335.74C375.947 1340.6 374.882 1343.64 373.221 1347.41C372.552 1348.93 372.303 1350.29 372.484 1351.61C372.66 1352.9 375.02 1355.25 380.368 1360.67C395.514 1376.03 397.658 1377.7 398.302 1378.98C398.606 1379.58 398.431 1380.26 398.016 1380.68C395.486 1383.25 389.861 1381.68 383.789 1383.05C379.701 1383.98 376.702 1385.3 374.669 1387.36C372.478 1389.59 373.181 1394.89 374.292 1398.99C376.374 1406.67 382.488 1413.81 386.359 1418.15C389.235 1421.38 392.173 1423.07 391.611 1423.84C389.463 1426.79 378.491 1423.41 365.869 1421.62C355.376 1420.13 349.969 1417.81 347.044 1416.9C334.665 1413.05 326.651 1410.17 325.221 1410.25C319.718 1410.52 314.555 1419.15 309.472 1425.49C303.26 1433.23 300.042 1439.51 297.016 1441.71C296.533 1442.06 295.829 1441.26 295.352 1440.27C292.039 1433.42 292.169 1423.73 290.009 1419.09C288.781 1416.45 287.118 1414.62 286.021 1413.44C285.508 1412.89 284.842 1412.68 283.637 1413.21C280.409 1414.63 273.837 1419.34 265.735 1424.01C261.502 1426.44 255.156 1429.16 246.522 1432.91C234.841 1437.99 223.989 1439.76 222.922 1439.65C221.766 1439.53 224.721 1432.4 229.024 1423.63C232.972 1415.58 238.861 1407.67 240.127 1405.62C240.598 1404.86 239.93 1404.3 237.737 1404.05C231.677 1403.38 226.965 1403.93 221.333 1404.18C207.112 1404.81 196.57 1404.2 195.011 1403.33C194.333 1402.94 194.323 1402.09 194.383 1401.42C194.501 1400.1 195.325 1398.89 197.672 1394.75C203.307 1384.79 208.12 1376.24 210.987 1372.6C214.032 1368.73 217.265 1364.8 219.279 1361.23C220.068 1359.84 219.724 1358.96 219.286 1358.3C216.733 1354.49 194.71 1334.94 187.943 1328.34C187.943 1328.34 187.943 1328.34 187.943 1328.34C187.942 1328.34 187.942 1328.34 187.942 1328.34C191.323 1331.99 184.189 1324.68 187.943 1328.34C188.138 1328.25 217.029 1315.16 218.333 1314.77Z" fill="#FFDC9B"/>
<path d="M187.942 1328.34C191.323 1331.99 184.189 1324.68 187.943 1328.34C194.71 1334.94 216.733 1354.49 219.286 1358.3C219.724 1358.96 220.068 1359.84 219.279 1361.23C217.265 1364.8 214.032 1368.73 210.987 1372.6C208.12 1376.24 203.307 1384.79 197.672 1394.75C195.325 1398.89 194.501 1400.1 194.383 1401.42C194.323 1402.09 194.333 1402.94 195.011 1403.33C196.57 1404.2 207.112 1404.81 221.333 1404.18C226.965 1403.93 231.677 1403.38 237.737 1404.05C239.93 1404.3 240.598 1404.86 240.127 1405.62C238.861 1407.67 232.972 1415.58 229.024 1423.63C224.721 1432.4 221.766 1439.53 222.922 1439.65C223.989 1439.76 234.841 1437.99 246.522 1432.91C255.156 1429.16 261.502 1426.44 265.735 1424.01C273.837 1419.34 280.409 1414.63 283.637 1413.21C284.842 1412.68 285.508 1412.89 286.021 1413.44C287.118 1414.62 288.781 1416.45 290.009 1419.09C292.169 1423.73 292.039 1433.42 295.352 1440.27C295.829 1441.26 296.533 1442.06 297.016 1441.71C300.042 1439.51 303.26 1433.23 309.472 1425.49C314.555 1419.15 319.718 1410.52 325.221 1410.25C326.651 1410.17 334.665 1413.05 347.044 1416.9C349.969 1417.81 355.376 1420.13 365.869 1421.62C378.491 1423.41 389.463 1426.79 391.611 1423.84C392.173 1423.07 389.235 1421.38 386.359 1418.15C382.488 1413.81 376.374 1406.67 374.292 1398.99C373.181 1394.89 372.478 1389.59 374.669 1387.36C376.702 1385.3 379.701 1383.98 383.789 1383.05C389.861 1381.68 395.486 1383.25 398.016 1380.68C398.431 1380.26 398.606 1379.58 398.302 1378.98C397.658 1377.7 395.514 1376.03 380.368 1360.67C375.02 1355.25 372.66 1352.9 372.484 1351.61C372.303 1350.29 372.552 1348.93 373.221 1347.41C374.882 1343.64 375.947 1340.6 381.727 1335.74C392.295 1326.85 399.247 1320.29 398.341 1319.35C397.436 1318.42 396.075 1317.63 394.538 1317C391.627 1315.82 382.717 1314.19 378.619 1310.75C378.089 1310.31 377.68 1309.76 377.475 1302.2C377.271 1294.64 377.271 1280.49 377.061 1273.09C376.851 1265.69 376.411 1264.65 375.886 1264.9C371.358 1266.98 360.72 1275.68 349.661 1279.87C340.457 1283.37 331.491 1286.1 326.189 1285.28C322.028 1284.63 319.5 1283.25 315.764 1280.23C305.838 1272.19 298.811 1263.62 298.811 1263.62C298.811 1263.62 288.909 1275.18 283.208 1280.19C280.278 1282.76 265.675 1287.55 265.675 1287.55C265.675 1287.55 252.147 1285.99 246.926 1282.88C244.054 1281.17 236.985 1276.16 231.562 1272.4C226.963 1269.21 221.35 1265.59 217.983 1266.58C217.253 1266.8 216.502 1267.14 216.333 1267.87C214.82 1274.44 218.333 1309.2 218.333 1314.77C217.025 1315.17 187.942 1328.34 187.942 1328.34ZM187.942 1328.34C185.294 1325.48 189.112 1331.91 187.942 1328.34Z" stroke="black" stroke-width="4" stroke-linecap="round"/>
<path d="M236.082 1315.11C236.082 1314.3 236.505 1311.91 237.973 1309.88C239.291 1308.05 242.915 1307.63 248.742 1307.71C251.891 1307.75 253.324 1311.08 254.385 1313.08C256.112 1316.32 254.76 1321.33 253.23 1324.37C252.269 1326.28 248.569 1327.47 245.159 1328.49C241.148 1329.7 256.065 1328 258.159 1328.79C259.016 1329.12 259.454 1329.99 259.746 1330.87C260.429 1332.96 259.371 1336.3 255.385 1342.48C251.544 1346.59 248.639 1347.78 245.251 1348.15C243.671 1348.2 241.163 1348.21 238.51 1348.17" stroke="black" stroke-width="4" stroke-linecap="round"/>
<path d="M269.553 1344.1C269.553 1344.16 269.553 1344.22 269.553 1345.31C269.553 1346.4 269.553 1348.52 269.516 1349.91C269.48 1351.3 269.407 1351.9 269.27 1352.77" stroke="black" stroke-width="4" stroke-linecap="round"/>
<path d="M287.101 1304.73C286.609 1304.72 284.97 1305.42 283.105 1307.29C280.978 1309.42 280.469 1311.41 279.311 1315.1C278.462 1317.81 278.677 1323.25 279.102 1328.16C279.363 1331.16 280.389 1333.21 281.031 1335.17C281.796 1337.5 284.144 1338.68 285.909 1339.49C287.771 1340.34 290.463 1340.14 292.568 1339.73C294.269 1339.4 296.021 1336.74 298.055 1333.28C299.482 1330.85 299.38 1322.5 298.716 1315.88C298.439 1313.11 296.717 1310.2 295.688 1308.18C294.336 1306.71 292.454 1305.49 290.38 1304.54C289.883 1304.31 289.397 1304.07 287.958 1303.58" stroke="black" stroke-width="4" stroke-linecap="round"/>
<path d="M312.267 1302.91C311.933 1303.27 310.754 1305.18 309.473 1308.07C307.915 1311.6 306.043 1317.82 305.787 1324.82C305.594 1330.12 309.981 1336.2 311.379 1337.67C313.038 1339.41 315.261 1339.31 319.88 1339.32C322.331 1339.33 323.727 1337.73 325.413 1335.82C329.037 1331.7 328.709 1329.04 328.749 1322.3C328.775 1317.88 326.659 1313.99 325.612 1311.13C324.895 1309.17 323.166 1307.46 321.977 1305.77C320.826 1304.13 318.776 1302.98 316.851 1302.45C316.411 1302.38 316.002 1302.34 315.375 1302.31C314.748 1302.29 313.916 1302.29 313.059 1302.29" stroke="black" stroke-width="4" stroke-linecap="round"/>
<path d="M343.622 1301.77C343.312 1302.07 341.025 1305 338.261 1309.66C336.173 1313.19 335.855 1318.36 335.543 1329.36C335.43 1333.35 336.554 1336.07 337.262 1337.77C337.948 1339.41 340.777 1340.43 344.145 1341.13C346.364 1341.59 348.088 1341.06 348.91 1340.72C351.484 1339.65 353.867 1336.53 355.276 1334.37C356.715 1332.15 356.505 1323.74 355.875 1315.55C355.562 1311.48 354.114 1308.83 351.925 1304.85C351.319 1303.96 350.747 1303.31 350.23 1302.76C349.713 1302.2 349.27 1301.76 347.847 1300.79" stroke="black" stroke-width="4" stroke-linecap="round"/>
<path d="M339.142 1366.82C339.118 1366.82 339.093 1366.82 336.559 1366.82C334.025 1366.82 328.982 1366.82 323.566 1366.97" stroke="black" stroke-width="4" stroke-linecap="round"/>
<path d="M269.4 1369.48C268.477 1369.48 266.187 1369.67 265.102 1370.28C262.856 1371.55 261.637 1373.14 260.953 1374.32C260.23 1375.56 260.865 1377.54 261.813 1379.25C262.549 1380.57 264.07 1381 266.02 1381.66C269.98 1383 271.127 1383.33 272.093 1384.08C272.915 1384.71 273.501 1385.46 273.798 1386.02C274.68 1387.67 273.917 1390.24 273.365 1391.24C272.89 1392.11 272.083 1392.68 271.038 1393.29C267.911 1394.15 265.318 1394.44 263.961 1394.57C263.417 1394.61 262.565 1394.63 261.687 1394.65" stroke="black" stroke-width="4" stroke-linecap="round"/>
<path d="M282.636 1383.24C282.651 1383.24 285.372 1383.24 289.861 1383.19C292.397 1383.16 293.388 1382.87 293.793 1382.65C294.639 1382.19 295.008 1381.12 295.29 1379.99C295.535 1379.01 295.193 1378.13 294.897 1377.65C294.316 1376.72 293.062 1375.99 292.074 1375.25C291.303 1374.68 289.986 1374.3 286.532 1374.28C284.285 1374.27 283.555 1375.33 282.604 1376.3C281.835 1377.08 281.712 1378.21 281.492 1380.01C281.236 1382.1 281.031 1383.7 281.892 1386.24C282.512 1388.08 283.584 1388.88 284.523 1389.38C286.024 1390.18 287.718 1390.14 289.348 1390.54C290.735 1390.89 291.731 1391.18 294.997 1391.23C295.869 1391.17 296.516 1391.02 296.954 1390.91C297.391 1390.8 297.6 1390.73 298.114 1390.59" stroke="black" stroke-width="4" stroke-linecap="round"/>
<path d="M312.499 1374.51C311.986 1374.51 310.483 1374.65 308.665 1375.69C306.478 1376.93 305.927 1378.63 304.865 1381.52C304.013 1383.84 304.734 1387.2 305.337 1387.92C306.132 1388.87 308.29 1389.33 310.335 1389.6C313.989 1390.07 315.018 1389.25 315.805 1388.76C315.988 1388.62 316.151 1388.49 316.327 1388.34C316.503 1388.2 316.686 1388.06 316.946 1387.87" stroke="black" stroke-width="4" stroke-linecap="round"/>
<path d="M313.791 1374.33C314.098 1374.33 315.114 1374.57 315.812 1375.2C316.469 1375.79 316.697 1377.31 316.961 1379.12C317.12 1380.21 317.156 1381.2 317.277 1382.13C317.409 1383.13 317.522 1384.55 317.652 1385.68C317.754 1386.56 318.115 1387.16 318.424 1387.49C320.026 1387.8 322.519 1387.89 323.776 1388.01C324.332 1388.03 325.202 1388.03 326.097 1388.03" stroke="black" stroke-width="4" stroke-linecap="round"/>
<path d="M330.146 1363.66C330.146 1363.67 330.158 1366.42 330.188 1370.7C330.201 1372.46 330.708 1375.71 331.423 1380.43C331.927 1383.76 332.733 1385.93 332.985 1386.82C333.276 1387.86 334.208 1388.69 335.221 1389.37C335.694 1389.54 336.25 1389.66 336.905 1389.74C337.236 1389.77 337.567 1389.77 337.907 1389.78" stroke="black" stroke-width="4" stroke-linecap="round"/>
<path d="M350.848 1375.01C349.548 1375.01 346.336 1375.25 345.111 1376.02C344.32 1376.51 343.769 1377.2 343.43 1377.76C342.639 1379.04 343.309 1381.07 343.581 1381.58C344.087 1382.53 346.341 1382.46 349.343 1383.29C350.892 1383.72 352.216 1384.94 352.863 1386.03C352.973 1386.21 352.88 1386.46 352.775 1386.64C352.331 1387.44 351.046 1387.94 348.935 1389C347.625 1389.66 346.39 1389.99 345.211 1390.13C344.876 1390.15 344.441 1390.17 343.993 1390.19" stroke="black" stroke-width="4" stroke-linecap="round"/>
<path d="M823.772 1285.33L824.218 1277.97L829.514 1279.39L833.331 1286.33L887.371 1317.69L883.086 1324.72L874.123 1322.32L871.338 1332.71L866.449 1331.4L863.971 1325.17L853.576 1315.07L809.519 1288.82L813.239 1283.9L823.772 1285.33Z" fill="white"/>
<path d="M832.383 1285.25C832.395 1284.96 832.246 1283.9 831.595 1282.46C830.742 1280.57 828.348 1279.13 826.417 1278.56C825.611 1278.32 824.973 1278.63 824.479 1278.82C822.904 1279.43 823.143 1282.18 823.53 1283.36C823.721 1283.94 824.194 1284.58 824.349 1285.2C824.945 1287.61 816.096 1283.77 814.74 1283.91C813.409 1284.05 812.365 1284.59 811.42 1285.18C810.422 1285.81 809.884 1287.46 810.031 1288.79C810.174 1290.08 812.639 1290.88 813.663 1291.77C815.432 1293.33 819.185 1294.66 822.09 1295.76C823.943 1296.47 825.253 1297.17 825.923 1297.54C826.503 1297.85 829.873 1299.83 837.361 1304.4C841.787 1307.09 847.241 1310.86 850.38 1313.02C855.644 1316.64 858.212 1319.15 859.583 1320.46C860.861 1321.68 861.733 1322.74 862.352 1323.77C863.026 1324.89 863.675 1326.9 864.989 1329.96C865.4 1330.91 865.883 1331.43 866.364 1331.84C867.458 1332.79 870.028 1333.33 871.606 1333.25C872.975 1333.18 873.244 1330.23 873.844 1328.37C874.884 1325.17 874.38 1323.96 873.819 1322.79C873.654 1322.44 873.434 1322.03 873.488 1321.79C873.541 1321.56 873.863 1321.5 874.187 1321.52C875.449 1321.61 879.417 1323.08 882.215 1323.64C883.509 1323.9 884.702 1323.06 885.984 1322.32C886.552 1321.99 886.829 1321.53 887.098 1320.88C887.541 1319.81 887.331 1318.65 886.779 1317.87C885.924 1316.65 884.424 1315.74 883.205 1315.2C881.116 1314.27 879.075 1313.27 877.462 1312.57C876.069 1311.97 874.588 1311.31 872.288 1310.22C868 1308.18 865.203 1306.4 863.141 1304.88C861.346 1303.56 858.031 1301.11 855.327 1299.26C850.732 1296.11 848.224 1294.73 847.471 1294.21C844.528 1292.16 839.296 1289.63 837.694 1288.66C836.023 1287.73 835.05 1287.07 834.209 1286.3C834.01 1286.1 833.813 1285.89 833.609 1285.68" stroke="black" stroke-width="4" stroke-linecap="round"/>
<path d="M871.643 1295.72L880.6 1293.25L880.808 1298.18L879.72 1302.24L889.091 1304.75L889.168 1310.16L874.082 1309.43L829.512 1312.8L819.96 1319.12L814.256 1317.59L817.475 1305.57L808.309 1303.12L807.796 1296.89L815.854 1296.96L871.643 1295.72Z" fill="white"/>
<path d="M872.11 1295.89C872.241 1295.64 872.903 1294.79 874.187 1293.87C875.87 1292.66 878.662 1292.61 880.62 1293.09C881.437 1293.28 881.836 1293.87 882.169 1294.28C883.23 1295.59 881.647 1297.85 880.722 1298.68C880.268 1299.09 879.536 1299.41 879.089 1299.87C877.371 1301.65 886.952 1302.76 888.057 1303.56C889.142 1304.34 889.777 1305.33 890.297 1306.32C890.848 1307.36 890.489 1309.06 889.698 1310.13C888.929 1311.18 886.394 1310.64 885.059 1310.9C882.751 1311.36 878.832 1310.64 875.766 1310.15C873.809 1309.83 872.321 1309.79 871.559 1309.77C870.899 1309.75 866.992 1309.78 858.225 1309.99C853.042 1310.11 846.438 1310.64 842.639 1310.94C836.268 1311.45 832.789 1312.34 830.949 1312.79C829.231 1313.2 827.944 1313.69 826.896 1314.27C825.752 1314.9 824.184 1316.32 821.517 1318.31C820.683 1318.93 820.007 1319.14 819.383 1319.26C817.963 1319.53 815.467 1318.71 814.139 1317.85C812.988 1317.11 814.233 1314.42 814.64 1312.51C815.344 1309.21 816.384 1308.42 817.456 1307.68C817.772 1307.47 818.166 1307.22 818.239 1306.99C818.312 1306.76 818.059 1306.55 817.768 1306.41C816.634 1305.85 812.462 1305.14 809.756 1304.23C808.505 1303.81 807.893 1302.48 807.153 1301.2C806.825 1300.63 806.819 1300.09 806.91 1299.39C807.06 1298.25 807.823 1297.35 808.692 1296.94C810.039 1296.32 811.792 1296.28 813.12 1296.42C815.395 1296.66 817.663 1296.81 819.409 1297.01C820.917 1297.19 822.527 1297.36 825.066 1297.56C829.8 1297.94 833.109 1297.8 835.654 1297.52C837.871 1297.27 841.965 1296.81 845.234 1296.56C850.789 1296.12 853.65 1296.18 854.563 1296.11C858.136 1295.81 863.932 1296.23 865.803 1296.19C867.715 1296.22 868.888 1296.14 870.002 1295.89C870.277 1295.81 870.551 1295.73 870.833 1295.65" stroke="black" stroke-width="4" stroke-linecap="round"/>
<path d="M852.363 1242.09L868.954 1243.23L877.201 1250.21L879.25 1263.07L869.665 1270.05L864.704 1281.02L856.463 1282.31L848.238 1280.1L846.073 1265.56L840.709 1259.53L842.299 1249.49L852.363 1242.09Z" fill="white"/>
<path d="M865.803 1241.2C865.808 1241.18 863.375 1240.53 859.399 1239.52C857.316 1239 856.006 1239.16 853.977 1239.47C850.651 1239.97 848.19 1240.71 847.229 1241.11C844.659 1242.15 842.537 1244.36 841.648 1245.71C840.566 1247.35 839.772 1250.75 838.926 1254.78C837.763 1260.31 838.935 1262.02 839.32 1263.34C839.619 1264.37 840.558 1265.1 842.193 1266.03C843.415 1266.72 844.481 1267.15 845.574 1267.64C846.521 1268.07 847.524 1268.74 848.151 1269.5C848.722 1270.19 848.178 1271.62 848.019 1272.68C847.81 1274.07 847.467 1276.29 847.33 1277.61C847.133 1279.5 847.083 1280.88 847.125 1282.18C847.134 1282.44 847.174 1282.67 847.295 1282.82C847.853 1283.56 849.108 1283.31 850.011 1283.06C850.518 1282.92 851.129 1282.52 851.808 1282.27C852.833 1281.88 853.602 1284.04 854.343 1285.08C854.625 1285.47 854.958 1285.73 855.367 1285.8C856.272 1285.94 857.551 1284.4 858.734 1283.47C858.95 1283.3 859.095 1283.13 859.286 1283.03C859.476 1282.93 859.695 1282.89 859.893 1283C860.821 1283.49 861.096 1285.07 862.161 1286.43C862.376 1286.7 862.626 1286.76 862.837 1286.76C863.269 1286.76 863.711 1286.35 864.139 1285.95C864.951 1285.19 866.313 1280.28 867.125 1277.22C867.737 1274.92 867.89 1274.05 868.723 1273.39C869.649 1272.66 871.759 1271.98 873.238 1271.37C874.347 1270.9 875.261 1270.04 876.127 1269.16C876.494 1268.79 877.171 1266.28 878.141 1262.8C878.876 1260.16 878.081 1257.69 877.525 1256.05C876.918 1254.26 876.249 1252.69 875.828 1250.34C875.542 1248.75 874.889 1247.96 873.722 1246.79C872.359 1245.42 871.51 1244.53 870.757 1243.83C869.851 1243.19 868.65 1242.58 867.409 1242.15C866.606 1241.9 865.449 1241.56 864.258 1241.22" stroke="black" stroke-width="4" stroke-linecap="round"/>
<path d="M852.819 1255.91C852.724 1255.9 852.097 1256.09 851.558 1256.42C850.984 1256.77 850.707 1257.42 850.55 1258.2C850.346 1259.21 851.085 1259.97 851.284 1260.32C851.427 1260.58 851.846 1260.67 852.226 1260.76C852.688 1260.86 853.027 1260.61 853.305 1260.46C853.656 1260.28 853.988 1258.71 854.176 1257.86C854.237 1257.58 854.154 1257.23 854.039 1256.98C853.827 1256.75 853.724 1256.58 853.657 1256.46C853.624 1256.4 853.59 1256.35 853.423 1256.2" stroke="black" stroke-width="4" stroke-linecap="round"/>
<path d="M865.456 1257.95C865.432 1258.04 865.073 1258.52 864.316 1259.15C863.707 1259.65 863.419 1260.51 863.355 1261.18C863.311 1261.64 864.22 1262.74 864.762 1263.39C864.894 1263.55 865.288 1263.66 865.687 1263.74C865.993 1263.8 866.372 1263.51 866.847 1263.25C867.108 1263.11 867.327 1262.4 867.612 1261.32C867.848 1260.42 867.688 1260.13 867.498 1259.63C867.363 1259.28 867.071 1258.96 866.823 1258.72C866.447 1258.45 866.098 1258.21 865.871 1258.1C865.724 1258.05 865.514 1257.99 865.283 1257.93" stroke="black" stroke-width="4" stroke-linecap="round"/>
</g>
<defs>
<clipPath id="clip0_8915_4870">
<rect width="1308" height="1611" fill="white"/>
</clipPath>
</defs>
</svg>
