<svg width="2162" height="1213" viewBox="0 0 2162 1213" fill="none" xmlns="http://www.w3.org/2000/svg">
<g clip-path="url(#clip0_8913_3916)">
<rect width="2162" height="1213" fill="white"/>
<rect x="116.027" width="162.037" height="32.5723" fill="#EDF4DC"/>
<rect opacity="0.5" width="217.191" height="1212.45" transform="matrix(-1 0 0 1 487.41 -6.84473)" fill="#DCE9B9"/>
<rect opacity="0.5" x="487.41" y="-6.84473" width="307.924" height="1219.97" fill="#D9D9D9"/>
<rect x="374.846" y="188.406" width="32.8223" height="98.3799" fill="#D9D9D9"/>
<path d="M116.027 29.4971H388.929L383.869 432.154H116.027V29.4971Z" fill="#D9D9D9"/>
<path d="M137.867 560.498L145.405 551.814L248.706 532.241H368.318L375.585 717.769L378.799 816.19L371.947 902.533L137.867 910.469L123.32 748.873L137.867 560.498Z" fill="#D9D9D9"/>
<path d="M636.398 904.739H697.793L702.363 1212.69H636.398V904.739Z" fill="#DCE9B9"/>
<path d="M698.423 899.496C698.423 908.245 697.434 939.097 696.389 960.273C695.854 971.136 696.106 991.136 696.121 1004.55C696.153 1034.46 697.435 1045.76 698.2 1052.83C699.053 1060.7 699.46 1086.83 700.351 1109.15C700.621 1115.9 701.466 1122.25 701.808 1139.19C702.038 1171.61 702.016 1194.87 701.719 1199.74C701.568 1202.97 701.417 1207.76 701.26 1212.69" stroke="black" stroke-width="6" stroke-linecap="round"/>
<rect x="796.709" y="-6.84473" width="1444.1" height="1298.13" fill="#BCDFF1"/>
<path d="M795.334 -6.84473L795.334 1218.32" stroke="black" stroke-width="6" stroke-linecap="round"/>
<path d="M488.125 -7.85547L488.125 1205.6" stroke="black" stroke-width="6" stroke-linecap="round"/>
<path d="M567.646 97.7441C567.646 105.495 567.025 124.291 566.604 134.624C566.301 138.859 565.845 142.747 565.398 146.78C565.197 148.779 565.052 150.68 564.902 152.639" stroke="#F7B500" stroke-width="6" stroke-linecap="round"/>
<path d="M567.646 -0.296875C567.646 7.45589 567.026 26.2555 566.605 36.5907C566.301 40.8269 565.845 44.7158 565.398 48.75C565.197 50.7491 565.052 52.6506 564.902 54.6098" stroke="#F7B500" stroke-width="6" stroke-linecap="round"/>
<path d="M567.629 207.349V273.8" stroke="#F7B500" stroke-width="6" stroke-linecap="round"/>
<path d="M568.652 339.038V403.716" stroke="#F7B500" stroke-width="6" stroke-linecap="round"/>
<path d="M570.354 482.874C570.354 482.929 570.354 482.984 570.354 493.6C570.354 504.216 570.354 525.391 570.859 547.534" stroke="#F7B500" stroke-width="6" stroke-linecap="round"/>
<path d="M569.859 624.496C569.859 624.61 569.859 624.724 569.859 636.434C569.859 648.143 569.859 671.445 570.264 696.346" stroke="#F7B500" stroke-width="6" stroke-linecap="round"/>
<path d="M570.223 764.666C570.16 764.666 570.097 764.666 570.034 775.301C569.97 785.935 569.907 807.204 570.027 829.32" stroke="#F7B500" stroke-width="6" stroke-linecap="round"/>
<path d="M569.859 898.496C569.859 898.61 569.859 898.724 569.859 910.434C569.859 922.143 569.859 945.445 570.264 970.346" stroke="#F7B500" stroke-width="6" stroke-linecap="round"/>
<path d="M371.314 587.454H394.143V647.056L371.314 650.64V587.454Z" fill="#D9D9D9"/>
<path d="M371.314 770.04L398.561 773.292L395.288 849.978H377.051L371.314 770.04Z" fill="#D9D9D9"/>
<path d="M570.223 1038.67C570.16 1038.67 570.097 1038.67 570.034 1049.3C569.97 1059.94 569.907 1081.2 570.027 1103.32" stroke="#F7B500" stroke-width="6" stroke-linecap="round"/>
<path d="M570.223 1038.67C570.16 1038.67 570.097 1038.67 570.034 1049.3C569.97 1059.94 569.907 1081.2 570.027 1103.32" stroke="#F7B500" stroke-width="6" stroke-linecap="round"/>
<path d="M570.223 1150.67C570.16 1150.67 570.097 1150.67 570.034 1161.3C569.97 1171.94 569.907 1193.2 570.027 1215.32" stroke="#F7B500" stroke-width="6" stroke-linecap="round"/>
<path d="M387.492 226.613C387.492 226.44 387.492 226.267 387.643 197.717C387.795 169.167 388.097 112.245 388.313 81.7904C388.648 49.0732 388.945 45.1397 389.206 41.1748C389.295 38.8125 389.295 35.7389 389.295 32.5723" stroke="black" stroke-width="6" stroke-linecap="round"/>
<path d="M116.609 29.001L385.88 29.001" stroke="black" stroke-width="6" stroke-linecap="round"/>
<path d="M115.039 30.9238C115.039 31.5295 115.039 32.1351 114.912 58.7181C114.785 85.301 114.531 137.843 113.783 185.901C113.035 233.958 111.801 275.94 112.219 305.068C112.638 334.196 114.747 349.2 115.963 359.387C118.798 383.126 118.369 397.801 120.653 424.476C121.104 429.747 121.605 431.151 122.744 432.166C128.141 436.972 136.965 434.526 163.549 434.55C188.267 434.571 235.776 433.904 262.682 433.316C294.474 432.622 301.453 431.189 310.34 430.914C343.094 429.902 353.445 429.651 361.7 428.38C368.979 427.26 375.206 419.807 381.72 416.463C383.233 415.687 383.989 414.058 384.798 386.353C385.606 358.647 386.216 304.662 386.742 275.88C388.813 241.627 387.123 230.216 387.473 224.832" stroke="black" stroke-width="6" stroke-linecap="round"/>
<path d="M371.728 531.866C371.667 531.866 377.607 531.866 360.57 531.902C343.532 531.938 309.518 532.01 290.86 532.261C272.202 532.513 269.929 532.943 254.994 535.124C240.058 537.305 212.53 541.223 194.982 544.028C161.114 549.442 151.054 550.781 142.635 551.407C139.361 551.65 138.365 553.285 137.82 554.826C137.276 556.367 137.276 558.158 135.356 574.064C133.436 589.97 129.596 619.936 127.658 653.59C125.719 687.243 125.798 723.676 126.462 760.857C127.127 798.039 128.375 834.865 129.261 855.419C130.651 887.654 137.512 903.075 141.094 909.666C141.826 911.013 143.396 911.767 144.859 912.412C146.321 913.056 147.927 913.396 173.535 912.91C199.144 912.424 248.706 911.102 282.589 909.616C333.228 907.394 352.366 904.86 357.025 904.775C363.008 904.666 368.329 903.753 371.537 902.094C374.5 900.563 375.823 892.431 378.68 867.057C380.908 847.267 379.985 813.113 377.389 759.974C374.793 706.835 373.343 653.663 370.697 616.249C369.089 574.129 370.734 568.323 372.178 563.888C372.756 561.893 370.393 537.279 371.728 531.866Z" stroke="black" stroke-width="6" stroke-linecap="round"/>
<path d="M415.444 176.766C415.443 176.563 415.406 168.852 415.392 156.801C415.414 152.356 415.496 151.303 415.567 147.5C415.637 143.697 415.695 137.176 415.755 130.456" stroke="black" stroke-width="6" stroke-linecap="round"/>
<path d="M438.515 137.878L417.412 158.297L404.604 158.358L395.232 138.085L387.989 101.461L394.885 65.6525L416.943 60.2473L438.223 76.9296L445.881 108.251L438.515 137.878Z" fill="#9ECB75"/>
<path d="M403.78 154.247C406.573 156.159 409.922 156.742 411.119 156.736C411.691 156.44 422.183 155.547 422.736 155.254C423.288 154.961 423.82 154.672 424.406 154.281C426.758 152.576 428.972 151.154 430.88 148.985C433.615 145.876 435.098 142.851 437.282 138.37C440.014 132.766 443.802 125.553 444.112 118.176C444.502 108.882 444.529 95.7278 443.409 91.8038C441.689 85.7791 440.449 81.2776 437.855 77.2118C436.174 74.5783 432.988 71.9775 428.628 68.1127C426.031 65.8097 423.74 63.9104 420.398 63.222L420.342 63.2105C416.796 62.4797 407.44 60.5522 401.281 63.3013C399.704 64.0049 398.168 64.7981 396.883 67.0383C393.036 73.7441 391.147 76.5112 388.419 89.8732C387.696 93.4163 386.912 100.902 388.138 111.812C388.924 118.806 389.778 122.416 391.167 127.082C393.967 136.487 395.95 143.019 396.586 144.236C398.132 147.2 400.132 151.749 403.78 154.247Z" stroke="black" stroke-width="6" stroke-linecap="round"/>
<path d="M419.151 1142.14C419.15 1141.94 419.113 1134.23 419.099 1122.18C419.121 1117.73 419.203 1116.68 419.274 1112.88C419.344 1109.07 419.402 1102.55 419.462 1095.83" stroke="black" stroke-width="6" stroke-linecap="round"/>
<path d="M442.222 1103.25L421.119 1123.67L408.311 1123.73L398.939 1103.46L391.696 1066.84L398.592 1031.03L420.65 1025.62L441.93 1042.3L449.589 1073.63L442.222 1103.25Z" fill="#9ECB75"/>
<path d="M407.488 1119.62C410.28 1121.53 413.629 1122.12 414.826 1122.11C415.398 1121.82 425.89 1120.92 426.443 1120.63C426.995 1120.34 427.527 1120.05 428.113 1119.66C430.465 1117.95 432.679 1116.53 434.587 1114.36C437.322 1111.25 438.805 1108.23 440.989 1103.74C443.721 1098.14 447.509 1090.93 447.819 1083.55C448.209 1074.26 448.236 1061.1 447.116 1057.18C445.396 1051.15 444.156 1046.65 441.562 1042.59C439.881 1039.95 436.695 1037.35 432.335 1033.49C429.738 1031.18 427.447 1029.29 424.105 1028.6L424.049 1028.59C420.503 1027.85 411.147 1025.93 404.988 1028.68C403.411 1029.38 401.875 1030.17 400.59 1032.41C396.743 1039.12 394.854 1041.89 392.126 1055.25C391.403 1058.79 390.619 1066.28 391.845 1077.19C392.631 1084.18 393.485 1087.79 394.874 1092.46C397.674 1101.86 399.657 1108.39 400.293 1109.61C401.839 1112.57 403.839 1117.12 407.488 1119.62Z" stroke="black" stroke-width="6" stroke-linecap="round"/>
<path d="M670.796 1042.44C670.795 1042.23 670.758 1034.52 670.744 1022.47C670.766 1018.03 670.847 1016.97 670.918 1013.17C670.989 1009.37 671.047 1002.85 671.106 996.127" stroke="black" stroke-width="6" stroke-linecap="round"/>
<path d="M693.866 1003.55L672.763 1023.97L659.955 1024.03L650.583 1003.76L643.341 967.132L650.237 931.323L672.294 925.918L693.575 942.6L701.233 973.922L693.866 1003.55Z" fill="#9ECB75"/>
<path d="M659.132 1019.92C661.924 1021.83 665.273 1022.41 666.47 1022.41C667.043 1022.11 677.535 1021.22 678.087 1020.92C678.639 1020.63 679.172 1020.34 679.758 1019.95C682.109 1018.25 684.324 1016.82 686.231 1014.66C688.966 1011.55 690.449 1008.52 692.634 1004.04C695.366 998.437 699.153 991.224 699.463 983.847C699.854 974.553 699.881 961.399 698.76 957.475C697.041 951.45 695.801 946.948 693.206 942.883C691.526 940.249 688.339 937.648 683.98 933.784C681.382 931.481 679.091 929.581 675.75 928.893L675.694 928.881C672.147 928.151 662.791 926.223 656.632 928.972C655.056 929.676 653.519 930.469 652.234 932.709C648.388 939.415 646.498 942.182 643.771 955.544C643.048 959.087 642.264 966.573 643.49 977.483C644.275 984.477 645.129 988.087 646.519 992.753C649.319 1002.16 651.302 1008.69 651.937 1009.91C653.484 1012.87 655.484 1017.42 659.132 1019.92Z" stroke="black" stroke-width="6" stroke-linecap="round"/>
<path d="M670.796 1190.45C670.795 1190.25 670.758 1182.54 670.744 1170.49C670.766 1166.04 670.847 1164.99 670.918 1161.19C670.989 1157.38 671.047 1150.86 671.106 1144.14" stroke="black" stroke-width="6" stroke-linecap="round"/>
<path d="M693.866 1151.57L672.763 1171.98L659.955 1172.05L650.583 1151.77L643.341 1115.15L650.237 1079.34L672.294 1073.93L693.575 1090.62L701.233 1121.94L693.866 1151.57Z" fill="#9ECB75"/>
<path d="M659.132 1167.93C661.924 1169.85 665.273 1170.43 666.47 1170.42C667.043 1170.13 677.535 1169.23 678.087 1168.94C678.639 1168.65 679.172 1168.36 679.758 1167.97C682.109 1166.26 684.324 1164.84 686.231 1162.67C688.966 1159.56 690.449 1156.54 692.634 1152.06C695.366 1146.45 699.153 1139.24 699.463 1131.86C699.854 1122.57 699.881 1109.42 698.76 1105.49C697.041 1099.47 695.801 1094.97 693.206 1090.9C691.526 1088.27 688.339 1085.66 683.98 1081.8C681.382 1079.5 679.091 1077.6 675.75 1076.91L675.694 1076.9C672.147 1076.17 662.791 1074.24 656.632 1076.99C655.056 1077.69 653.519 1078.49 652.234 1080.73C648.388 1087.43 646.498 1090.2 643.771 1103.56C643.048 1107.1 642.264 1114.59 643.49 1125.5C644.275 1132.49 645.129 1136.1 646.519 1140.77C649.319 1150.17 651.302 1156.71 651.937 1157.92C653.484 1160.89 655.484 1165.44 659.132 1167.93Z" stroke="black" stroke-width="6" stroke-linecap="round"/>
<path d="M422.214 749.392C422.213 749.189 422.176 741.478 422.162 729.427C422.184 724.982 422.265 723.929 422.336 720.126C422.407 716.323 422.465 709.802 422.524 703.082" stroke="black" stroke-width="6" stroke-linecap="round"/>
<path d="M445.284 710.503L424.181 730.922L411.373 730.983L402.001 710.71L394.759 674.086L401.655 638.278L423.712 632.872L444.993 649.555L452.651 680.876L445.284 710.503Z" fill="#9ECB75"/>
<path d="M410.55 726.872C413.342 728.784 416.691 729.367 417.888 729.361C418.461 729.065 428.953 728.172 429.505 727.879C430.057 727.586 430.59 727.297 431.176 726.906C433.527 725.201 435.742 723.779 437.649 721.61C440.384 718.501 441.867 715.476 444.052 710.995C446.784 705.391 450.571 698.178 450.881 690.801C451.272 681.507 451.299 668.353 450.178 664.429C448.459 658.404 447.219 653.903 444.624 649.837C442.944 647.203 439.757 644.602 435.398 640.738C432.8 638.435 430.509 636.535 427.168 635.847L427.112 635.836C423.565 635.105 414.209 633.177 408.05 635.926C406.474 636.63 404.937 637.423 403.652 639.663C399.806 646.369 397.916 649.136 395.189 662.498C394.466 666.041 393.682 673.527 394.908 684.437C395.693 691.431 396.547 695.041 397.937 699.707C400.737 709.112 402.72 715.644 403.355 716.861C404.902 719.825 406.902 724.374 410.55 726.872Z" stroke="black" stroke-width="6" stroke-linecap="round"/>
<path d="M412.005 408.058C412.004 407.855 411.967 400.144 411.953 388.093C411.975 383.648 412.056 382.595 412.127 378.792C412.198 374.989 412.256 368.468 412.315 361.748" stroke="black" stroke-width="6" stroke-linecap="round"/>
<path d="M435.075 369.17L413.972 389.589L401.164 389.65L391.792 369.377L384.55 332.753L391.446 296.944L413.503 291.539L434.784 308.222L442.442 339.543L435.075 369.17Z" fill="#9ECB75"/>
<path d="M400.339 385.539C403.131 387.451 406.48 388.034 407.677 388.028C408.25 387.732 418.742 386.839 419.294 386.546C419.846 386.253 420.379 385.964 420.965 385.573C423.316 383.868 425.531 382.446 427.438 380.277C430.173 377.168 431.656 374.143 433.841 369.662C436.573 364.058 440.36 356.845 440.67 349.468C441.061 340.174 441.088 327.02 439.968 323.096C438.248 317.071 437.008 312.57 434.413 308.504C432.733 305.87 429.546 303.269 425.187 299.405C422.589 297.102 420.298 295.202 416.957 294.514L416.901 294.503C413.354 293.772 403.998 291.844 397.839 294.593C396.263 295.297 394.726 296.09 393.441 298.33C389.595 305.036 387.705 307.803 384.978 321.165C384.255 324.708 383.471 332.194 384.697 343.104C385.482 350.098 386.336 353.708 387.726 358.374C390.526 367.779 392.509 374.311 393.144 375.528C394.691 378.492 396.691 383.041 400.339 385.539Z" stroke="black" stroke-width="6" stroke-linecap="round"/>
<path d="M137.867 994.964V981.967L145.405 973.838L248.706 966.707L378.799 976.672L369.997 1152.95V1236.08V1207.07H123.32V1183.34L137.867 994.964Z" fill="#D9D9D9"/>
<path d="M161.445 1004.97L197.753 1001.78V1039.31H157.766L161.445 1004.97Z" fill="#F7B500"/>
<path opacity="0.5" d="M161.445 1147.6L197.753 1144.41V1181.94H157.766L161.445 1147.6Z" fill="#1E1E1E"/>
<path opacity="0.5" d="M155.801 1073.77L197.753 1070.25V1110.27H155.801V1073.77Z" fill="#1E1E1E"/>
<path opacity="0.5" d="M315.995 1006.97L352.304 1003.78V1041.31H312.316L315.995 1006.97Z" fill="#1E1E1E"/>
<path opacity="0.5" d="M238.604 1001.78H278.591V1039.31H238.604V1001.78Z" fill="#1E1E1E"/>
<path opacity="0.5" d="M273.963 1070.19H233.975V1107.72H273.963V1070.19Z" fill="#1E1E1E"/>
<path opacity="0.5" d="M273.963 1142.27H233.975V1179.81H273.963V1142.27Z" fill="#1E1E1E"/>
<path opacity="0.5" d="M351.938 1142.27H311.95V1179.81H351.938V1142.27Z" fill="#1E1E1E"/>
<path d="M351.938 1066.89H311.95L308.254 1087.56L311.95 1104.42H351.938V1066.89Z" fill="#F7B500"/>
<path d="M127.02 1199.69C127.02 1199.49 127.02 1199.28 127.02 1186.77C127.02 1174.27 127.02 1149.47 128.78 1116.7C130.54 1083.92 134.06 1043.92 135.951 1020.49C138.298 991.42 138.331 984.307 138.864 981.834C139.39 979.389 141.382 977.503 143.672 975.951C148.578 972.625 156.342 972.562 168.517 971.258C172.69 970.81 177.995 969.751 198.565 970.072C219.135 970.393 254.791 971.986 277.791 973.506C300.792 975.025 310.056 976.424 318.431 977.144C333.971 978.48 350.361 977.156 364.912 975.786C372.656 975.057 376.374 973.916 379.125 975.793C380.917 977.015 380.643 981.44 380.841 992.072C381.039 1002.7 380.984 1020.09 379.111 1041.53C377.237 1062.97 373.548 1087.94 371.647 1108.65C369.747 1129.37 369.747 1145.06 369.676 1153.79C369.605 1162.53 369.462 1163.82 369.388 1171.16C369.314 1178.5 369.313 1191.85 369.312 1205.6" stroke="black" stroke-width="6" stroke-linecap="round"/>
<path d="M195.583 1000.38C188.06 1000.42 170.176 1001.65 166.887 1003.15C165.56 1003.75 163.861 1003.69 162.395 1004.16C159.338 1005.14 158.853 1021.91 157.508 1034C157.333 1035.58 157.29 1036.62 157.215 1037.91C157.141 1039.2 157.106 1040.71 164.007 1041.55C170.908 1042.39 184.745 1042.52 191.888 1041.46C199.031 1040.39 199.06 1038.14 199.281 1036.26C200.462 1030.48 200.732 1019.53 200.174 1006.02C199.6 1001.42 198.438 1001.39 197.24 1001.36" stroke="black" stroke-width="6" stroke-linecap="round"/>
<path d="M270.725 1066.89C263.203 1066.93 245.318 1068.16 242.03 1069.66C240.702 1070.26 239.004 1070.2 237.537 1070.67C234.481 1071.65 233.996 1088.42 232.651 1100.5C232.475 1102.08 232.433 1103.13 232.358 1104.42C232.283 1105.71 232.249 1107.22 239.15 1108.06C246.051 1108.9 259.888 1109.03 267.031 1107.96C274.173 1106.9 274.203 1104.64 274.423 1102.77C275.604 1096.99 275.874 1086.04 275.316 1072.53C274.743 1067.92 273.58 1067.9 272.383 1067.87" stroke="black" stroke-width="6" stroke-linecap="round"/>
<path d="M236.542 1003.25C236.542 1003.29 236.542 1010.61 236.41 1023.57C236.313 1033.07 235.711 1038.36 238.088 1040.43C243.592 1045.21 251.142 1041.31 255.936 1041.45C267.053 1041.77 275.118 1041.38 276.516 1041.12C277.209 1041 277.863 1040.84 278.2 1040.02C281.144 1032.83 280.07 1017.54 280.752 1010.14C280.918 1008.35 281.309 1005.96 279.812 1003.09C275.321 1001.37 265.872 1000.66 253.75 1000.41C247.993 1000.3 243.035 1000.22 236.862 1000.49" stroke="black" stroke-width="6" stroke-linecap="round"/>
<path d="M156.072 1073.19C156.072 1073.23 156.072 1080.55 155.939 1093.51C155.842 1103.01 155.24 1108.3 157.617 1110.37C163.121 1115.15 170.671 1111.25 175.465 1111.39C186.583 1111.72 194.647 1111.32 196.045 1111.06C196.739 1110.94 197.392 1110.78 197.73 1109.96C200.673 1102.77 199.6 1087.48 200.282 1080.08C200.447 1078.29 200.838 1075.9 199.341 1073.03C194.85 1071.31 185.401 1070.6 173.279 1070.35C167.522 1070.24 162.564 1070.16 156.392 1070.43" stroke="black" stroke-width="6" stroke-linecap="round"/>
<path d="M314.146 1003.94C314.146 1004.04 314.146 1016.36 314.413 1035.19C314.507 1041.76 315.216 1042.25 316.155 1042.5C324.597 1044.67 340.47 1040.45 345.518 1040.16C347.332 1040.06 349.111 1039.99 351.002 1039.75C352.104 1039.61 353.51 1039.57 354.201 1034.97C356.241 1021.36 354.617 1011.1 354.079 1009.81C352.937 1007.05 349.807 1005.77 344.575 1002.67C337.458 1001.73 324.005 1002.71 318.572 1003.37C317.246 1003.4 315.362 1003.4 313.42 1003.4" stroke="black" stroke-width="6" stroke-linecap="round"/>
<path d="M316.82 1140.86C324.342 1140.9 342.227 1142.13 345.515 1143.63C346.843 1144.23 348.541 1144.17 350.008 1144.64C353.064 1145.62 353.549 1162.39 354.894 1174.48C355.07 1176.06 355.112 1177.1 355.187 1178.39C355.262 1179.68 355.296 1181.19 348.395 1182.03C341.494 1182.87 327.657 1183 320.514 1181.94C313.372 1180.87 313.342 1178.62 313.122 1176.74C311.941 1170.96 311.671 1160.01 312.229 1146.5C312.802 1141.9 313.964 1141.87 315.162 1141.84" stroke="black" stroke-width="6" stroke-linecap="round"/>
<path d="M275.86 1143.72C275.86 1143.77 275.86 1151.09 275.992 1164.05C276.089 1173.55 276.691 1178.84 274.314 1180.91C268.811 1185.69 261.261 1181.79 256.467 1181.93C245.349 1182.25 237.284 1181.86 235.886 1181.6C235.193 1181.48 234.539 1181.32 234.202 1180.5C231.259 1173.31 232.332 1158.02 231.65 1150.62C231.485 1148.83 231.093 1146.44 232.59 1143.57C237.082 1141.85 246.531 1141.14 258.652 1140.89C264.41 1140.78 269.368 1140.7 275.54 1140.97" stroke="black" stroke-width="6" stroke-linecap="round"/>
<path d="M198.256 1144.42C198.256 1144.52 198.256 1156.83 197.989 1175.67C197.896 1182.24 197.187 1182.73 196.247 1182.98C187.806 1185.15 171.933 1180.93 166.884 1180.64C165.071 1180.54 163.292 1180.47 161.4 1180.23C160.298 1180.09 158.892 1180.05 158.202 1175.44C156.162 1161.84 157.785 1151.58 158.323 1150.29C159.466 1147.53 162.595 1146.25 167.827 1143.15C174.945 1142.21 188.397 1143.18 193.83 1143.84C195.156 1143.88 197.041 1143.88 198.982 1143.88" stroke="black" stroke-width="6" stroke-linecap="round"/>
<path d="M348.542 1068.55C348.542 1068.65 348.542 1080.96 348.274 1099.79C348.181 1106.37 347.472 1106.86 346.532 1107.1C338.091 1109.27 322.218 1105.05 317.169 1104.77C315.356 1104.66 313.577 1104.59 311.685 1104.35C310.583 1104.22 309.177 1104.18 308.487 1099.57C306.447 1085.97 308.07 1075.71 308.608 1074.41C309.751 1071.66 312.88 1070.38 318.112 1067.28C325.23 1066.34 338.683 1067.31 344.116 1067.97C345.441 1068.01 347.326 1068.01 349.268 1068.01" stroke="black" stroke-width="6" stroke-linecap="round"/>
<path d="M98.7388 639.386C98.7388 639.279 98.7388 634.172 97.7843 627.082C96.8098 619.843 84.3365 630.439 82.2515 629.86C72.9522 627.275 85.0735 607.515 85.9126 601.596C87.0558 593.531 65.1246 601.784 57.4597 601.42C43.8943 600.777 62.0025 560.109 61.455 546.896C61.2611 542.216 59.4095 541.811 58.045 541.912C52.6123 544.552 47.1985 548.41 38.1777 552.015C35.9638 552.688 34.388 552.905 31.9902 553.128" stroke="#FF182B" stroke-width="6" stroke-linecap="round"/>
<path d="M86.3498 763.227C86.3498 763.105 86.3498 756.324 85.3962 746.186C85.0637 742.652 82.5354 742.848 79.8346 743.697C77.1338 744.547 73.6972 746.161 71.225 746.628C55.4293 749.612 64.381 702.479 60.3281 703.014C48.7024 704.549 33.0272 715.457 25.6388 715.924C16.213 716.52 21.06 699.764 13.5759 691.463C11.758 689.673 10.5526 688.631 8.48548 687.067C6.41839 685.503 3.52614 683.45 0.355469 681.144" stroke="#FF182B" stroke-width="6" stroke-linecap="round"/>
<path d="M45.7871 892.484C45.7871 892.598 45.7871 887.38 46.8046 879.832C47.2519 876.513 54.357 881.239 61.8421 884.003C64.3553 884.93 67.9297 884.52 69.7742 883.822C77.7036 880.824 77.0825 865.348 83.7287 856.804C85.2555 854.841 86.0691 853.655 87.109 853.504C93.3861 856.312 100.515 858.761 104.33 859.157C106.496 859.296 109.131 859.309 112.036 859.48" stroke="#FF182B" stroke-width="6" stroke-linecap="round"/>
<path d="M86.5881 238.691C86.5881 238.047 86.5881 227.814 85.7817 212.866C85.5063 207.762 83.3625 207.924 81.0763 208.78C78.7901 209.636 75.8794 211.24 73.866 211.454C63.4917 212.557 60.0945 188.817 55.799 184.314C52.979 183.246 49.9906 183.582 47.0944 184.71C45.6148 185.162 44.115 185.369 39.5117 184.354" stroke="#FF182B" stroke-width="6" stroke-linecap="round"/>
<path d="M409.045 41.26C409.165 40.7734 411.072 33.0454 414.469 21.9063C415.628 18.1028 417.217 18.6249 418.784 19.6978C420.351 20.7706 422.25 22.5243 423.731 23.0614C431.36 25.8288 438.352 8.53306 442.436 5.93292C444.765 5.65235 446.959 6.4635 448.936 7.85515C449.969 8.47228 451.063 8.90854 454.729 9.00013" stroke="#FF182B" stroke-width="6" stroke-linecap="round"/>
<path d="M89.5899 80.1963C89.5899 80.0852 89.5899 75.2896 88.7613 68.3788C88.4845 66.0702 86.2755 66.7433 84.4163 67.7634C82.5572 68.7834 80.5463 70.2703 78.979 70.4483C77.4117 70.6264 76.3488 69.4506 76.0457 67.1868C75.3048 61.653 76.7351 52.0295 75.8796 43.1511C75.5786 40.0269 66.9918 44.9231 56.3787 48.471C53.7097 49.3632 50.8895 49.033 49.4578 47.6223C40.7141 39.0075 47.4456 24.4097 45.2384 22.6432C43.9514 21.9784 42.3257 21.784 40.8049 21.4644C39.2842 21.1448 37.9177 20.706 36.5098 19.8779" stroke="#FF182B" stroke-width="6" stroke-linecap="round"/>
<path d="M414.244 470.461C414.244 470.399 414.244 467.745 413.507 463.92C413.26 462.642 411.295 463.015 409.64 463.579C407.986 464.144 406.197 464.967 404.802 465.065C403.407 465.164 402.461 464.513 402.192 463.26C401.532 460.197 402.805 454.87 402.044 449.956C401.776 448.227 394.135 450.937 384.69 452.901C382.315 453.395 379.806 453.212 378.532 452.431C370.751 447.663 376.741 439.583 374.777 438.605C373.632 438.237 372.185 438.129 370.832 437.952C369.479 437.775 368.263 437.533 367.01 437.074" stroke="#FF182B" stroke-width="6" stroke-linecap="round"/>
<path d="M89.5899 358.729C89.5899 358.84 89.5899 363.635 88.7613 370.546C88.4845 372.855 86.2755 372.181 84.4163 371.161C82.5572 370.141 80.5463 368.655 78.979 368.476C77.4117 368.298 76.3488 369.474 76.0457 371.738C75.3048 377.272 76.7351 386.895 75.8796 395.774C75.5786 398.898 66.9918 394.002 56.3787 390.454C53.7097 389.562 50.8895 389.892 49.4578 391.302C40.7141 399.917 47.4456 414.515 45.2384 416.282C43.9514 416.946 42.3257 417.141 40.8049 417.46C39.2842 417.78 37.9177 418.219 36.5098 419.047" stroke="#FF182B" stroke-width="6" stroke-linecap="round"/>
<path d="M683.236 567.204C681.149 566.525 638.508 573.002 638.344 573.002V899.907L694.929 902.662C695.95 901.998 696.94 901.353 697.435 899.907C697.92 896.358 697.821 892.845 697.662 887.166L697.651 886.797C697.596 874.795 697.347 865.865 697.239 821.687C697.134 778.927 697.667 697.282 696.63 653.963C695.475 605.735 694.325 597.384 693.294 591.421C691.77 582.603 689.392 569.208 683.236 567.204Z" fill="#B88659" stroke="black" stroke-width="6" stroke-linecap="round"/>
<path d="M653.688 593.412C653.251 595.271 652.228 600.554 652.515 604.678C652.619 606.181 655.022 606.105 656.715 606.265C658.958 606.477 660.941 605.939 662.232 605.01C664.94 603.063 665.197 599.584 665.02 597.045C663.022 595.24 660.666 593.787 657.855 593.119C657.066 593.028 656.176 593.023 655.26 593.017" stroke="black" stroke-width="6" stroke-linecap="round"/>
<path d="M663.178 607.577C663.505 608.038 665.09 609.758 666.913 612.025C667.528 612.799 668.028 613.434 668.522 614.095C668.767 614.424 668.999 614.741 669.336 615.212" stroke="black" stroke-width="6" stroke-linecap="round"/>
<path d="M669.336 615.212C669.422 612.572 670.248 604.603 671.299 601.502C672.209 599.672 673.017 598.456 673.497 597.821C673.744 597.494 673.996 597.157 674.455 596.755" stroke="black" stroke-width="6" stroke-linecap="round"/>
<path d="M669.166 615.796C669.152 615.796 669.138 615.796 666.656 615.796C664.174 615.796 659.225 615.796 653.941 615.888" stroke="black" stroke-width="6" stroke-linecap="round"/>
<rect x="636.398" y="-6.84473" width="36.3789" height="339.541" fill="#DCE9B9"/>
<path d="M668.926 616.095C669.315 616.158 671.599 616.888 673.621 618.141C674.846 619.171 676.301 620.588 677.583 621.996C678.123 622.611 678.439 623.024 678.945 623.703" stroke="black" stroke-width="6" stroke-linecap="round"/>
<path d="M678.623 624.062V636.303" stroke="black" stroke-width="6" stroke-linecap="round"/>
<path d="M679.256 622.07C679.373 622.07 682.197 622.07 686.573 622.048C688.563 621.983 689.974 621.937 691.718 621.957C692.439 621.978 692.829 622.021 694.155 622.182" stroke="black" stroke-width="6" stroke-linecap="round"/>
<path d="M659.644 723.888C659.244 724.105 657.817 725.491 656.027 728.02C655.356 728.968 655.006 730.184 654.685 731.542C654.064 734.17 656.283 737.37 657.725 738.967C658.605 739.941 660.261 740.495 661.895 740.867C664.466 741.452 666.624 738.648 668.149 736.803C670.424 734.052 668.822 731.146 668.044 729.192C666.985 727.737 665.49 726.434 663.826 725.293C663.017 724.824 662.28 724.578 660.906 723.648" stroke="black" stroke-width="6" stroke-linecap="round"/>
<path d="M665.575 725.144C666.38 722.632 668.607 716.493 670.354 714.454C670.825 714.016 671.273 713.667 671.71 713.326C672.146 712.986 672.558 712.664 673.123 712.258" stroke="black" stroke-width="6" stroke-linecap="round"/>
<path d="M673.122 712.258C673.041 712.232 671.644 711.784 669.213 711.13C667.384 710.919 665.484 710.979 663.4 711.167C662.438 711.303 661.673 711.521 660.421 711.84" stroke="black" stroke-width="6" stroke-linecap="round"/>
<path d="M673.34 712.255C674.12 712.586 676.21 714.574 678.655 719.291C679.174 720.228 679.458 720.538 680.061 721.058C680.664 721.577 681.578 722.297 682.847 723.248" stroke="black" stroke-width="6" stroke-linecap="round"/>
<path d="M673.277 710.325C673.281 710.311 673.285 710.298 673.477 709.652C673.668 709.006 674.047 707.729 675.744 705.325C677.44 702.922 680.444 699.431 683.538 695.835" stroke="black" stroke-width="6" stroke-linecap="round"/>
<path d="M683.808 695.695C683.816 695.668 684.107 694.553 684.538 691.496C684.674 686.764 684.644 683.505 684.629 682.676C684.637 682.245 684.674 681.793 684.844 680.917" stroke="black" stroke-width="6" stroke-linecap="round"/>
<path d="M686.987 695.107C687.154 695.16 688.085 695.126 689.656 694.877C690.382 694.689 690.964 694.378 691.744 693.843C692.524 693.309 693.483 692.561 696.072 691.113" stroke="black" stroke-width="6" stroke-linecap="round"/>
<path d="M656.564 804.63C656.129 804.497 654.458 803.417 652.206 801.29C651.362 800.492 650.78 799.367 650.199 798.099C649.074 795.644 650.62 792.071 651.721 790.222C652.393 789.094 653.908 788.226 655.437 787.54C657.842 786.461 660.509 788.787 662.367 790.297C665.138 792.548 664.138 795.711 663.759 797.78C663.006 799.415 661.796 800.985 660.389 802.431C659.688 803.05 659.013 803.436 657.849 804.618" stroke="black" stroke-width="6" stroke-linecap="round"/>
<path d="M662.133 802.234C663.416 804.54 666.806 810.122 668.919 811.778C669.466 812.115 669.974 812.369 670.469 812.617C670.964 812.865 671.431 813.099 672.065 813.387" stroke="black" stroke-width="6" stroke-linecap="round"/>
<path d="M672.063 813.387C671.989 813.429 670.707 814.142 668.452 815.261C666.7 815.827 664.825 816.141 662.744 816.366C661.775 816.421 660.981 816.358 659.691 816.291" stroke="black" stroke-width="6" stroke-linecap="round"/>
<path d="M672.277 813.347C672.978 812.868 674.636 810.51 676.107 805.404C676.432 804.383 676.65 804.023 677.139 803.395C677.628 802.767 678.383 801.883 679.441 800.701" stroke="black" stroke-width="6" stroke-linecap="round"/>
<path d="M672.594 815.253C672.601 815.265 672.608 815.277 672.923 815.873C673.237 816.469 673.859 817.647 675.995 819.67C678.131 821.694 681.761 824.526 685.502 827.445" stroke="black" stroke-width="6" stroke-linecap="round"/>
<path d="M685.795 827.527C685.808 827.552 686.313 828.589 687.335 831.502C688.398 836.115 689.009 839.316 689.157 840.132C689.249 840.553 689.374 840.989 689.713 841.814" stroke="black" stroke-width="6" stroke-linecap="round"/>
<path d="M689.027 827.481C689.18 827.396 690.099 827.246 691.689 827.182C692.438 827.223 693.07 827.414 693.939 827.785C694.809 828.156 695.896 828.701 698.719 829.612" stroke="black" stroke-width="6" stroke-linecap="round"/>
<path d="M603.3 163.361C602.641 164.053 600.947 166.735 600.659 169.87C600.316 173.603 602.59 175.917 606.329 179.425C607.625 180.641 609.275 180.168 610.549 179.961C613.151 179.536 616.894 175.706 619.098 172.659C619.814 171.669 619.307 170.234 619.051 168.949C618.128 164.317 611.467 160.836 608.452 160.191C607.711 160.115 607.017 160.125 606.379 160.255C605.741 160.384 605.18 160.633 603.439 161.627" stroke="black" stroke-width="6" stroke-linecap="round"/>
<path d="M609.155 169.957C608.554 169.565 606.296 168.523 604.338 167.703C602.462 166.918 600.018 166.052 596.432 164.796C594.215 164.02 592.158 164.012 590.157 163.79C588.171 163.571 586.481 162.345 583.063 159.164C582.22 157.936 581.953 156.975 581.821 155.99C581.794 155.495 581.848 155.011 582.06 154.35" stroke="black" stroke-width="6" stroke-linecap="round"/>
<path d="M590.782 162.406C590.76 161.848 591.011 159.776 591.455 157.835C591.99 155.497 591.61 152.719 591.991 149.63C592.354 146.684 592.625 144.43 592.798 142.446C592.879 141.336 592.946 140.233 593.021 139.206C593.067 138.689 593.132 138.178 593.304 136.872" stroke="black" stroke-width="6" stroke-linecap="round"/>
<path d="M589.512 133.095C590.282 133.829 592.449 135.744 602 141.015C604.104 142.148 604.68 142.434 605.253 142.685C605.825 142.935 606.378 143.14 607.625 143.663" stroke="black" stroke-width="6" stroke-linecap="round"/>
<path d="M591.409 163.678C593.848 161.117 599.524 154.802 601.108 152.038C602.86 149.512 604.196 147.8 605.352 146.093C605.64 145.655 605.941 145.215 606.955 143.823" stroke="black" stroke-width="6" stroke-linecap="round"/>
<path d="M606.955 143.822C607.378 142.293 608.467 138.478 609.017 134.437C609.509 130.821 610.821 127.686 611.522 125.441C611.715 124.916 611.918 124.48 612.093 124.021C612.268 123.561 612.41 123.091 612.591 122.107" stroke="black" stroke-width="6" stroke-linecap="round"/>
<path d="M591.596 136.158C592.33 135.387 595.138 132.992 598.15 130.85C600.381 129.265 602.95 127.628 605.067 126.274C607.424 124.81 609.501 123.34 610.285 122.576C610.688 122.211 611.102 121.895 611.612 121.561" stroke="black" stroke-width="6" stroke-linecap="round"/>
<path d="M603.971 115.079C603.668 115.446 603.405 118.872 604.241 122.325C605.119 125.949 607.242 127.967 610.86 131.544C612.038 132.709 613.782 132.294 615.426 131.847C618.786 130.933 621.202 125.809 622.184 122.353C622.872 119.931 622.276 117.458 620.949 115.578C619.079 112.927 615.879 112.494 612.941 112.088C610.193 112.504 608.318 113.49 606.362 115.015C605.783 115.43 605.084 115.854 603.807 116.699" stroke="black" stroke-width="6" stroke-linecap="round"/>
<path d="M588.833 133.441C588.804 133.413 588.996 132.773 589.431 131.245C589.658 130.342 589.899 129.179 590.091 128.35C590.284 127.521 590.42 127.06 590.524 125.883" stroke="black" stroke-width="6" stroke-linecap="round"/>
<path d="M531.95 760.71C531.172 759.893 529.174 756.73 528.834 753.032C528.43 748.628 531.112 745.898 535.522 741.761C537.052 740.326 538.998 740.883 540.5 741.128C543.57 741.629 547.986 746.148 550.585 749.741C551.429 750.909 550.831 752.602 550.529 754.118C549.441 759.581 541.583 763.688 538.027 764.449C537.152 764.539 536.334 764.527 535.581 764.374C534.829 764.221 534.167 763.927 532.114 762.755" stroke="black" stroke-width="6" stroke-linecap="round"/>
<path d="M538.856 752.929C538.147 753.392 535.483 754.621 533.173 755.588C530.96 756.514 528.078 757.536 523.848 759.017C521.233 759.933 518.806 759.942 516.446 760.203C514.103 760.462 512.11 761.909 508.077 765.661C507.084 767.109 506.768 768.243 506.613 769.405C506.581 769.989 506.645 770.559 506.894 771.34" stroke="black" stroke-width="6" stroke-linecap="round"/>
<path d="M517.184 761.837C517.159 762.494 517.455 764.939 517.979 767.228C518.61 769.986 518.161 773.263 518.61 776.907C519.039 780.382 519.359 783.041 519.563 785.381C519.658 786.69 519.738 787.992 519.825 789.203C519.88 789.814 519.957 790.416 520.159 791.957" stroke="black" stroke-width="6" stroke-linecap="round"/>
<path d="M515.686 796.412C516.594 795.546 519.15 793.287 530.416 787.069C532.899 785.733 533.578 785.395 534.254 785.1C534.929 784.805 535.581 784.562 537.052 783.946" stroke="black" stroke-width="6" stroke-linecap="round"/>
<path d="M517.923 760.336C520.801 763.357 527.496 770.806 529.365 774.066C531.431 777.047 533.007 779.066 534.371 781.079C534.711 781.596 535.066 782.115 536.262 783.758" stroke="black" stroke-width="6" stroke-linecap="round"/>
<path d="M536.261 783.758C536.76 785.562 538.044 790.062 538.693 794.829C539.274 799.095 540.822 802.793 541.648 805.441C541.876 806.061 542.115 806.574 542.321 807.116C542.528 807.659 542.696 808.213 542.909 809.374" stroke="black" stroke-width="6" stroke-linecap="round"/>
<path d="M518.145 792.799C519.011 793.709 522.323 796.534 525.877 799.06C528.508 800.931 531.538 802.861 534.036 804.459C536.816 806.185 539.266 807.919 540.191 808.821C540.666 809.251 541.154 809.624 541.756 810.018" stroke="black" stroke-width="6" stroke-linecap="round"/>
<path d="M532.742 817.664C532.385 817.231 532.075 813.19 533.061 809.116C534.096 804.841 536.6 802.462 540.868 798.242C542.258 796.867 544.316 797.357 546.254 797.885C550.218 798.963 553.068 805.007 554.226 809.084C555.038 811.941 554.334 814.857 552.77 817.075C550.564 820.202 546.789 820.713 543.323 821.192C540.082 820.702 537.87 819.538 535.562 817.739C534.88 817.25 534.055 816.75 532.548 815.752" stroke="black" stroke-width="6" stroke-linecap="round"/>
<path d="M514.885 796.005C514.85 796.038 515.077 796.792 515.59 798.595C515.859 799.66 516.143 801.031 516.369 802.009C516.596 802.988 516.756 803.532 516.88 804.92" stroke="black" stroke-width="6" stroke-linecap="round"/>
<path d="M605.706 1082.12C606.484 1082.93 608.482 1086.1 608.822 1089.8C609.226 1094.2 606.545 1096.93 602.134 1101.07C600.605 1102.5 598.659 1101.94 597.156 1101.7C594.086 1101.2 589.671 1096.68 587.071 1093.09C586.227 1091.92 586.825 1090.22 587.127 1088.71C588.215 1083.25 596.074 1079.14 599.629 1078.38C600.504 1078.29 601.322 1078.3 602.075 1078.45C602.827 1078.61 603.49 1078.9 605.542 1080.07" stroke="black" stroke-width="6" stroke-linecap="round"/>
<path d="M598.8 1089.9C599.51 1089.44 602.173 1088.21 604.483 1087.24C606.696 1086.31 609.578 1085.29 613.808 1083.81C616.424 1082.89 618.85 1082.88 621.21 1082.62C623.553 1082.36 625.547 1080.92 629.579 1077.17C630.573 1075.72 630.888 1074.58 631.044 1073.42C631.075 1072.84 631.011 1072.27 630.762 1071.49" stroke="black" stroke-width="6" stroke-linecap="round"/>
<path d="M620.474 1080.99C620.499 1080.33 620.203 1077.89 619.679 1075.6C619.048 1072.84 619.497 1069.56 619.048 1065.92C618.619 1062.45 618.299 1059.79 618.095 1057.45C618 1056.14 617.92 1054.84 617.833 1053.62C617.778 1053.01 617.701 1052.41 617.499 1050.87" stroke="black" stroke-width="6" stroke-linecap="round"/>
<path d="M621.973 1046.42C621.064 1047.28 618.508 1049.54 607.242 1055.76C604.759 1057.09 604.08 1057.43 603.405 1057.73C602.729 1058.02 602.077 1058.26 600.607 1058.88" stroke="black" stroke-width="6" stroke-linecap="round"/>
<path d="M619.735 1082.49C616.857 1079.47 610.162 1072.02 608.293 1068.76C606.227 1065.78 604.651 1063.76 603.287 1061.75C602.947 1061.23 602.593 1060.71 601.396 1059.07" stroke="black" stroke-width="6" stroke-linecap="round"/>
<path d="M601.395 1059.07C600.896 1057.27 599.612 1052.77 598.963 1048C598.382 1043.73 596.834 1040.03 596.008 1037.39C595.78 1036.77 595.541 1036.25 595.335 1035.71C595.128 1035.17 594.96 1034.61 594.747 1033.45" stroke="black" stroke-width="6" stroke-linecap="round"/>
<path d="M619.514 1050.03C618.647 1049.12 615.335 1046.29 611.782 1043.77C609.15 1041.9 606.12 1039.97 603.622 1038.37C600.842 1036.64 598.392 1034.91 597.468 1034.01C596.992 1033.58 596.504 1033.2 595.902 1032.81" stroke="black" stroke-width="6" stroke-linecap="round"/>
<path d="M604.916 1025.16C605.273 1025.6 605.584 1029.64 604.597 1033.71C603.562 1037.99 601.058 1040.37 596.79 1044.59C595.4 1045.96 593.342 1045.47 591.404 1044.94C587.44 1043.86 584.59 1037.82 583.432 1033.74C582.62 1030.89 583.324 1027.97 584.888 1025.75C587.094 1022.63 590.869 1022.11 594.335 1021.63C597.576 1022.13 599.789 1023.29 602.096 1025.09C602.778 1025.58 603.603 1026.08 605.11 1027.07" stroke="black" stroke-width="6" stroke-linecap="round"/>
<path d="M622.773 1046.82C622.808 1046.79 622.581 1046.03 622.068 1044.23C621.8 1043.17 621.515 1041.8 621.289 1040.82C621.062 1039.84 620.902 1039.3 620.778 1037.91" stroke="black" stroke-width="6" stroke-linecap="round"/>
<path d="M868.744 174.228C870.306 172.512 875.762 167.134 882.812 162.793C888.587 159.237 894.189 159.388 896.637 160.682C902.835 163.958 906.859 172.92 911.928 174.477C917.201 176.097 922.165 169.856 931.895 163.176C938.898 158.368 945.652 158.452 948.545 159.203C953.541 162.206 957.812 167.726 961.213 175.349C962.524 178.703 964.661 184.1 966.882 190.758" stroke="#7AC6EE" stroke-width="6" stroke-linecap="round"/>
<path d="M967.075 294.678C967.288 293.055 969.798 287.519 974.224 282.431C975.999 280.391 978.315 279.443 981.709 279.013C986.944 278.35 992.034 279.627 995.355 281.226C1000.64 283.771 1005.19 291.22 1009.5 295.138C1013.15 298.451 1020.77 292.006 1025.51 289.837C1030.42 287.589 1036.21 287.096 1045.18 287.175C1051.66 288.913 1055.16 290.653 1057.46 292.257C1058.62 293.13 1059.77 294.124 1062.48 296.953" stroke="#7AC6EE" stroke-width="6" stroke-linecap="round"/>
<path d="M1060.3 622.329C1058.74 620.613 1053.28 615.234 1046.24 610.894C1040.46 607.338 1034.86 607.489 1032.41 608.783C1026.21 612.058 1022.19 621.021 1017.12 622.578C1011.85 624.197 1006.88 617.956 997.152 611.277C990.149 606.469 983.395 606.553 980.502 607.303C975.506 610.307 971.235 615.826 967.834 623.449C966.523 626.804 964.386 632.2 962.165 638.858" stroke="#7AC6EE" stroke-width="6" stroke-linecap="round"/>
<path d="M961.971 742.778C961.759 741.156 959.249 735.62 954.823 730.531C953.048 728.491 950.732 727.544 947.338 727.114C942.103 726.451 937.013 727.727 933.692 729.327C928.406 731.872 923.861 739.321 919.547 743.239C915.9 746.551 908.274 740.106 903.537 737.937C898.628 735.689 892.839 735.197 883.866 735.275C877.383 737.013 873.885 738.754 871.59 740.358C870.431 741.231 869.28 742.225 866.57 745.053" stroke="#7AC6EE" stroke-width="6" stroke-linecap="round"/>
<path d="M852.688 441.892C852.94 439.535 855.941 431.495 861.238 424.108C863.362 421.146 866.137 419.772 870.203 419.152C876.474 418.194 882.574 420.055 886.556 422.383C892.893 426.087 898.347 436.915 903.52 442.613C907.895 447.43 917.025 438.076 922.697 434.93C928.577 431.67 935.512 430.961 946.264 431.086C954.034 433.619 958.227 436.153 960.979 438.486C962.37 439.756 963.749 441.201 967 445.314" stroke="#7AC6EE" stroke-width="6" stroke-linecap="round"/>
<path d="M868.744 1117.66C870.306 1115.94 875.762 1110.57 882.812 1106.23C888.587 1102.67 894.189 1102.82 896.637 1104.11C902.835 1107.39 906.859 1116.35 911.928 1117.91C917.201 1119.53 922.165 1113.29 931.895 1106.61C938.898 1101.8 945.652 1101.88 948.545 1102.64C953.541 1105.64 957.812 1111.16 961.213 1118.78C962.524 1122.14 964.661 1127.53 966.882 1134.19" stroke="#7AC6EE" stroke-width="6" stroke-linecap="round"/>
<path d="M892.95 883.662C893.163 882.04 895.673 876.503 900.099 871.415C901.874 869.375 904.19 868.428 907.584 867.998C912.819 867.334 917.909 868.611 921.23 870.21C926.516 872.756 931.06 880.204 935.374 884.122C939.022 887.435 946.648 880.99 951.385 878.821C956.294 876.573 962.083 876.081 971.056 876.159C977.539 877.897 981.037 879.638 983.331 881.242C984.491 882.115 985.642 883.108 988.352 885.937" stroke="#7AC6EE" stroke-width="6" stroke-linecap="round"/>
<path d="M1011.92 1029.95C1012.14 1028.46 1014.79 1023.35 1019.46 1018.66C1021.33 1016.78 1023.77 1015.9 1027.35 1015.51C1032.87 1014.89 1038.23 1016.06 1041.73 1017.54C1047.29 1019.88 1052.08 1026.74 1056.62 1030.35C1060.46 1033.4 1068.5 1027.45 1073.49 1025.45C1078.67 1023.38 1084.77 1022.92 1094.22 1022.99C1101.05 1024.58 1104.74 1026.19 1107.16 1027.66C1108.38 1028.47 1109.59 1029.38 1112.44 1031.99" stroke="#7AC6EE" stroke-width="6" stroke-linecap="round"/>
<path d="M373.158 586.214C376.06 586.214 384 585.952 388.146 585.319C389.887 585.053 391.42 585.097 392.676 585.262C393.276 585.34 393.622 586.051 393.886 586.8C394.458 588.426 394.513 596.004 394.63 610.673C394.853 638.609 395.009 641.434 395.369 644.236C395.459 644.943 395.519 645.664 395.099 646.106C392.787 648.547 388.61 648.04 385.361 649.274C383.58 649.932 381.528 650.561 379.118 651.265C377.83 651.664 376.408 652.147 374.294 652.923" stroke="black" stroke-width="6" stroke-linecap="round"/>
<path d="M380.381 769.149C387.263 769.149 400.934 769.96 400.874 771.576C400.816 773.165 400.032 778.963 399.214 796.616C398.629 809.245 398.796 829.369 397.601 839.615C396.406 849.861 394.125 849.628 391.412 849.508C388.7 849.389 385.626 849.389 380.728 850.172" stroke="black" stroke-width="6" stroke-linecap="round"/>
<path d="M388.282 186.858C394.089 186.858 406.494 187.091 407.77 187.856C408.955 188.566 408.385 193.044 407.553 210.449C406.865 224.855 406.572 250.636 406.211 264.346C405.779 280.725 404.983 284.741 403.735 287.89C398.726 288.969 390.86 289.379 387.467 290.35" stroke="black" stroke-width="6" stroke-linecap="round"/>
<path d="M674.125 332.697C674.125 326.024 674.524 310.555 675.119 305.942C675.464 303.631 675.661 300.557 675.71 293.994C675.76 289.329 675.86 281.956 675.963 274.358" stroke="black" stroke-width="6" stroke-linecap="round"/>
<path d="M672.777 188.711C672.777 188.471 672.777 147.022 672.9 81.1021C673.898 38.0666 674.883 21.0537 675.361 7.15648C675.463 3.5785 675.18 -5.74771 675.361 -9.8916" stroke="black" stroke-width="6" stroke-linecap="round"/>
<path d="M637.217 -6.84473L637.217 1218.32" stroke="black" stroke-width="6" stroke-linecap="round"/>
<path d="M657.454 157.31C657.453 157.107 657.416 149.396 657.402 137.345C657.424 132.9 657.505 131.847 657.576 128.044C657.647 124.241 657.705 117.72 657.764 111" stroke="black" stroke-width="6" stroke-linecap="round"/>
<path d="M680.524 118.422L659.422 138.841L646.613 138.902L637.241 118.629L629.999 82.0051L636.895 46.1965L658.953 40.7912L680.233 57.4735L687.891 88.7954L680.524 118.422Z" fill="#9ECB75"/>
<path d="M645.79 134.791C648.583 136.703 651.931 137.286 653.129 137.28C653.701 136.984 664.193 136.091 664.745 135.798C665.298 135.505 665.83 135.216 666.416 134.825C668.768 133.12 670.982 131.698 672.889 129.529C675.625 126.42 677.107 123.395 679.292 118.914C682.024 113.31 685.811 106.097 686.121 98.7201C686.512 89.4262 686.539 76.2717 685.419 72.3477C683.699 66.323 682.459 61.8215 679.864 57.7558C678.184 55.1222 674.998 52.5214 670.638 48.6566C668.04 46.3536 665.75 44.4543 662.408 43.766L662.352 43.7545C658.805 43.0237 649.45 41.0961 643.29 43.8452C641.714 44.5488 640.177 45.3421 638.892 47.5823C635.046 54.288 633.156 57.0551 630.429 70.4171C629.706 73.9603 628.922 81.446 630.148 92.3561C630.934 99.3496 631.788 102.96 633.177 107.626C635.977 117.031 637.96 123.562 638.595 124.78C640.142 127.744 642.142 132.293 645.79 134.791Z" stroke="black" stroke-width="6" stroke-linecap="round"/>
<path d="M657.454 298.835C657.453 298.632 657.416 290.921 657.402 278.87C657.424 274.425 657.505 273.372 657.576 269.569C657.647 265.766 657.705 259.245 657.764 252.526" stroke="black" stroke-width="6" stroke-linecap="round"/>
<path d="M680.524 259.948L659.422 280.366L646.613 280.427L637.241 260.155L629.999 223.531L636.895 187.722L658.953 182.317L680.233 198.999L687.891 230.321L680.524 259.948Z" fill="#9ECB75"/>
<path d="M645.79 276.316C648.583 278.228 651.931 278.811 653.129 278.805C653.701 278.509 664.193 277.616 664.745 277.323C665.298 277.031 665.83 276.741 666.416 276.351C668.768 274.646 670.982 273.223 672.889 271.055C675.625 267.945 677.107 264.92 679.292 260.439C682.024 254.836 685.811 247.622 686.121 240.246C686.512 230.952 686.539 217.797 685.419 213.873C683.699 207.848 682.459 203.347 679.864 199.281C678.184 196.648 674.998 194.047 670.638 190.182C668.04 187.879 665.75 185.98 662.408 185.291L662.352 185.28C658.805 184.549 649.45 182.621 643.29 185.371C641.714 186.074 640.177 186.867 638.892 189.108C635.046 195.813 633.156 198.58 630.429 211.943C629.706 215.486 628.922 222.971 630.148 233.882C630.934 240.875 631.788 244.485 633.177 249.151C635.977 258.556 637.96 265.088 638.595 266.305C640.142 269.269 642.142 273.818 645.79 276.316Z" stroke="black" stroke-width="6" stroke-linecap="round"/>
<path d="M641.628 329.903C641.713 329.903 643.725 329.903 646.836 331.151C649.109 332.063 648.5 347.769 648.343 386.198C648.229 414.324 647.874 459.958 647.645 484.692C647.001 531.894 645.396 569.036 642.682 571.494C641.297 572.329 639.894 572.329 638.449 572.329" stroke="black" stroke-width="6" stroke-linecap="round"/>
<path d="M649.032 333.472C650.451 333.058 654.559 332.303 656.945 332.064C658.112 331.947 659.162 333.552 659.327 370.994C659.492 408.436 658.733 482.105 657.597 521.542C656.462 560.978 658.933 563.127 657.597 565.296C656.261 567.466 651.164 569.566 647.707 570.994" stroke="black" stroke-width="6" stroke-linecap="round"/>
<path d="M660.762 332.059C660.847 332.059 664.402 332.059 669.897 333.89C672.98 334.918 672.593 354.576 672.515 396.557C672.366 476.485 672.013 532.566 671.36 542.35C670.752 551.471 672.238 557.618 670.016 562.872C668.863 564.975 663.168 565.983 661.842 566.478C660.516 566.973 659.106 566.973 656.807 565.764" stroke="black" stroke-width="6" stroke-linecap="round"/>
<circle cx="529.76" cy="649.421" r="13.6626" fill="#407AF6"/>
<circle cx="548.975" cy="570.995" r="13.6626" fill="#407AF6"/>
<circle cx="599.254" cy="515.205" r="13.6626" fill="#407AF6"/>
<circle cx="599.026" cy="433.348" r="13.6626" fill="#407AF6"/>
<circle cx="679.256" cy="405.333" r="13.6626" fill="#407AF6"/>
<circle cx="718.227" cy="294.168" r="13.6626" fill="#407AF6"/>
<circle cx="745.551" cy="382.567" r="13.6626" fill="#407AF6"/>
<circle cx="710.711" cy="512.719" r="13.6626" fill="#407AF6"/>
<circle cx="759.213" cy="467.383" r="13.6626" fill="#407AF6"/>
<circle cx="765.362" cy="702.507" r="13.6626" fill="#407AF6"/>
<circle cx="738.036" cy="785.709" r="13.6626" fill="#407AF6"/>
<circle cx="738.036" cy="601.118" r="13.6626" fill="#407AF6"/>
<circle cx="731.889" cy="183.773" r="13.6626" fill="#407AF6"/>
<circle cx="759.213" cy="151.702" r="13.6626" fill="#407AF6"/>
<circle cx="458.26" cy="193.686" r="13.6626" fill="#407AF6"/>
<circle cx="490.819" cy="224.841" r="13.6626" fill="#407AF6"/>
<circle cx="502.952" cy="163.678" r="13.6626" fill="#407AF6"/>
<circle cx="545.625" cy="306.659" r="13.6626" fill="#407AF6"/>
<circle cx="459.784" cy="260.138" r="13.6626" fill="#407AF6"/>
<circle cx="529.147" cy="217.68" r="13.6626" fill="#407AF6"/>
<circle cx="530.186" cy="127.305" r="13.6626" fill="#407AF6"/>
<circle cx="582.315" cy="361.749" r="13.6626" fill="#407AF6"/>
<circle cx="518.52" cy="273.124" r="13.6626" fill="#407AF6"/>
<circle cx="599.182" cy="312.498" r="13.6626" fill="#407AF6"/>
<circle cx="512.838" cy="704.163" r="13.6626" fill="#407AF6"/>
<circle cx="470.561" cy="782.812" r="13.6626" fill="#407AF6"/>
<circle cx="466.553" cy="740.939" r="13.6626" fill="#407AF6"/>
<circle cx="511.879" cy="1036.57" r="13.6626" fill="#407AF6"/>
<circle cx="528.397" cy="910.468" r="13.6626" fill="#407AF6"/>
<circle cx="608.377" cy="876.919" r="13.6626" fill="#407AF6"/>
<circle cx="501.073" cy="853.784" r="13.6626" fill="#407AF6"/>
<circle cx="605.854" cy="727.496" r="13.6626" fill="#407AF6"/>
<circle cx="607.551" cy="592.321" r="13.6626" fill="#407AF6"/>
<circle cx="466.553" cy="1004.67" r="13.6626" fill="#407AF6"/>
<circle cx="463.493" cy="598.792" r="13.6626" fill="#407AF6"/>
<path d="M269.16 433.349C269.16 433.406 269.16 433.463 269.16 443.862C269.16 454.262 269.16 475.003 269.317 487.535C269.58 508.515 270.393 512.505 270.896 520.074C271.346 524.438 271.744 528.15 271.984 533.929" stroke="black" stroke-width="6" stroke-linecap="round"/>
<path d="M269.16 912.192C269.16 912.249 269.16 958.628 269.16 969.028" stroke="black" stroke-width="6" stroke-linecap="round"/>
<path d="M548.138 674.688C548.138 677.171 547.841 683.246 547.063 686.543C546.776 687.734 546.467 688.638 546.123 689.541C545.972 690.01 545.867 690.498 545.625 692.012" stroke="#FF182B" stroke-width="6" stroke-linecap="round"/>
<path d="M544.545 702.723C544.508 702.723 545.645 702.723 547.257 703.01C547.787 703.104 547.433 703.872 546.96 704.349C545.967 705.351 544.494 705.841 543.258 706.229C542.695 706.406 542.194 706.28 542.083 706.019C541.972 705.758 542.25 705.298 542.639 705.011C543.027 704.725 543.518 704.626 544.001 704.563C544.485 704.5 544.946 704.476 545.767 704.334" stroke="#FF182B" stroke-width="6" stroke-linecap="round"/>
<path d="M394.143 797.365C395.032 797.365 400.54 797.365 408.828 797.278C418.483 797.177 425.853 795.648 425.206 795.1C422.805 792.884 416.327 787.345 411.181 784.122C410.238 783.595 409.586 783.253 408.384 782.58" stroke="#FF182B" stroke-width="6" stroke-linecap="round"/>
<path d="M425.02 796.553C423.942 797.906 418.195 804.093 414.21 807.663C413.151 808.465 412.129 809.274 411.1 810.098C410.631 810.454 410.27 810.683 409.125 811.576" stroke="#FF182B" stroke-width="6" stroke-linecap="round"/>
<path d="M394.143 607.741C395.032 607.741 400.54 607.741 408.828 607.654C418.483 607.553 425.853 606.024 425.206 605.476C422.805 603.259 416.327 597.721 411.181 594.498C410.238 593.971 409.586 593.629 408.384 592.956" stroke="#FF182B" stroke-width="6" stroke-linecap="round"/>
<path d="M425.02 606.929C423.942 608.282 418.195 614.469 414.21 618.039C413.151 618.841 412.129 619.65 411.1 620.474C410.631 620.829 410.27 621.059 409.125 621.952" stroke="#FF182B" stroke-width="6" stroke-linecap="round"/>
<path d="M407.193 226.9C408.083 226.9 413.591 226.9 421.879 226.813C431.534 226.712 438.904 225.183 438.257 224.635C435.856 222.419 429.378 216.88 424.231 213.657C423.288 213.13 422.637 212.788 421.435 212.115" stroke="#FF182B" stroke-width="6" stroke-linecap="round"/>
<path d="M438.071 226.088C436.993 227.441 431.246 233.628 427.261 237.199C426.202 238.001 425.179 238.809 424.151 239.633C423.682 239.989 423.321 240.218 422.176 241.112" stroke="#FF182B" stroke-width="6" stroke-linecap="round"/>
<path d="M563.412 661.405C562.473 661.405 558.735 660.784 555.668 659.611C551.849 658.15 541.319 660.792 534.138 664.138C528.707 666.668 526.101 673.232 523.587 681.432C521.084 689.598 522.349 696.515 523.154 700.008C524.02 703.763 525.903 706.451 531.593 712.175C534.523 715.123 539.759 716.109 544.188 717.015C550.505 718.306 554.8 715.323 560.449 712.239C564.363 710.101 567.155 706.163 569.041 703.232C570.716 700.63 570.525 691.58 569.636 683.088C568.789 675 565.394 671.83 563.635 668.627C562.608 667.288 561.585 666.087 560.551 664.886C560.001 664.269 559.399 663.636 557.834 662.151" stroke="#FF182B" stroke-width="6" stroke-linecap="round"/>
<path d="M594.449 208.921C594.449 209.122 594.449 212.739 594.563 218.514C594.678 220.775 594.906 221.676 595.219 222.613C595.531 223.55 595.921 224.496 597.532 227.256" stroke="#FF182B" stroke-width="6" stroke-linecap="round"/>
<path d="M600.014 240.81C599.945 240.81 600.464 241.564 601.04 243.093C601.062 243.867 600.534 244.639 599.836 244.903C599.139 245.168 598.289 244.903 598.602 242.246" stroke="#FF182B" stroke-width="6" stroke-linecap="round"/>
<path d="M614.164 199.756C613.225 199.756 609.487 199.136 606.42 197.963C602.6 196.501 592.071 199.144 584.89 202.489C579.459 205.02 576.853 211.584 574.339 219.784C571.836 227.95 573.101 234.866 573.906 238.359C574.772 242.115 576.655 244.802 582.345 250.527C585.275 253.475 590.511 254.461 594.94 255.366C601.257 256.657 605.552 253.674 611.201 250.59C615.115 248.453 617.907 244.515 619.793 241.583C621.468 238.981 621.277 229.932 620.387 221.439C619.541 213.352 616.146 210.182 614.387 206.979C613.36 205.639 612.337 204.439 611.302 203.237C610.752 202.62 610.151 201.988 608.586 200.503" stroke="#FF182B" stroke-width="6" stroke-linecap="round"/>
<circle cx="437.19" cy="556.918" r="13.6626" fill="#407AF6"/>
<path d="M449.568 548.391C449.598 548.391 450.296 548.391 451.643 548.298C452.93 548.02 456.758 546.829 461.786 545.279C463.63 544.73 464.036 544.661 464.662 544.483" stroke="#A1A0A0" stroke-width="6" stroke-linecap="round"/>
<path d="M465.171 543.509C465.15 543.509 465.13 544.044 464.992 544.809C464.945 545.068 464.619 544.949 464.451 544.781C464.283 544.612 464.2 544.368 464.157 544.106C464.114 543.843 464.114 543.57 464.143 543.256" stroke="#F9AD16" stroke-width="6" stroke-linecap="round"/>
<path d="M494.7 510.149C494.673 510.149 494.279 510.149 493.542 509.912C490.965 509.082 491.124 504.668 491.307 503.675C491.77 501.169 496.447 502.308 497.118 501.773C497.782 501.242 497.914 499.858 497.854 498.371C497.748 495.731 494.253 493.968 493.872 492.46C493.212 489.847 500.24 488.701 501.688 487.24C502.207 485.265 502.121 483.268 501.866 482.368C501.698 481.934 501.455 481.547 500.866 481.046" stroke="#A1A0A0" stroke-width="4" stroke-linecap="round"/>
<path d="M506.818 524.926C506.789 524.926 506.091 524.926 504.744 524.833C503.456 524.555 499.629 523.364 494.6 521.814C492.757 521.265 492.351 521.197 491.724 521.019" stroke="#A1A0A0" stroke-width="6" stroke-linecap="round"/>
<path d="M491.216 520.044C491.236 520.044 491.257 520.579 491.395 521.344C491.442 521.604 491.768 521.484 491.936 521.316C492.104 521.148 492.187 520.904 492.23 520.641C492.272 520.379 492.272 520.105 492.244 519.791" stroke="#F9AD16" stroke-width="6" stroke-linecap="round"/>
<circle cx="518.079" cy="533.872" r="13.6626" fill="#407AF6"/>
<path d="M463.268 534.84C463.268 534.806 463.268 533.668 463.057 531.806C462.808 529.612 460.657 529.205 460.072 528.576C457.822 526.158 459.484 520.838 458.821 520.254C458.426 520.03 457.912 519.957 457.13 519.917C456.348 519.877 455.315 519.873 453.242 519.401" stroke="#A1A0A0" stroke-width="6" stroke-linecap="round"/>
<path d="M353.816 589.511C353.816 615.11 343.585 624.635 323.201 624.635C302.816 624.635 279.998 610.13 279.998 589.511C279.998 568.891 296.523 552.176 316.907 552.176C337.292 552.176 353.816 568.891 353.816 589.511Z" fill="#FF99A2"/>
<path d="M148.961 726.213V705.688L237.872 676.275L326.237 659.342L334.708 681.191L352.86 685.163L357.7 705.688L343.784 718.268V735.482L257.303 759.64L162.878 773.884L159.852 761.966L167.113 735.482L148.961 726.213Z" fill="#FFDC9B"/>
<path d="M209.935 712.138C210.558 716.1 211.805 725.061 211.606 728.235C211.563 728.906 211.961 729.277 212.35 729.419C215.699 728.658 220.198 727.045 221.187 726.699" stroke="black" stroke-width="6" stroke-linecap="round"/>
<path d="M219.781 711.683L224.051 738.817" stroke="black" stroke-width="6" stroke-linecap="round"/>
<path d="M237.605 709.105C237.571 709.11 234.227 708.763 231.72 709.472C228.589 710.357 228.722 713.855 228.485 716.459C228.353 717.903 228.968 719.128 229.538 720.023C229.822 720.468 230.245 720.79 230.716 720.991C231.675 721.401 232.941 721.177 234.092 720.825C236.02 720.236 237.839 721.231 238.644 717.106C238.957 715.505 237.605 709.105 237.605 709.105ZM237.605 709.105C237.605 709.105 239.328 719.969 241.037 730.503C241.759 734.761 241.507 734.934 242.015 737.096" stroke="black" stroke-width="6" stroke-linecap="round"/>
<path d="M300.218 696.731C300.184 696.736 296.841 696.389 294.334 697.098C291.202 697.983 291.335 701.481 291.098 704.085C290.967 705.529 291.581 706.754 292.152 707.649C292.436 708.094 292.858 708.416 293.329 708.617C294.288 709.026 295.555 708.803 296.705 708.451C298.634 707.862 300.452 708.857 301.257 704.732C301.57 703.131 300.218 696.731 300.218 696.731ZM300.218 696.731C300.218 696.731 301.941 707.595 303.651 718.129C304.373 722.387 304.12 722.56 304.628 724.722" stroke="black" stroke-width="6" stroke-linecap="round"/>
<path d="M319.044 693.767C319.01 693.772 315.667 693.425 313.16 694.134C310.028 695.019 310.161 698.517 309.924 701.121C309.793 702.565 310.407 703.79 310.978 704.685C311.262 705.13 311.685 705.452 312.155 705.653C313.114 706.063 314.381 705.839 315.531 705.488C317.46 704.898 319.279 705.894 320.084 701.768C320.396 700.167 319.044 693.767 319.044 693.767ZM319.044 693.767C319.044 693.767 320.767 704.631 322.477 715.165C323.199 719.423 322.946 719.596 323.455 721.758" stroke="black" stroke-width="6" stroke-linecap="round"/>
<path d="M202.133 744.366C197.024 745.17 187.239 746.378 187.764 745.608C188.853 744.012 189.575 742.012 190.252 740.137C191.103 737.783 190.384 735.266 189.463 729.072C188.696 723.918 186.782 718.61 186.792 714.877C186.794 713.831 187.732 712.978 188.463 712.14C190.255 710.083 195.479 711.075 197.7 711.82C198.745 713.631 199.348 715.422 199.67 716.538C199.834 717.168 199.999 717.928 200.344 719.077" stroke="black" stroke-width="6" stroke-linecap="round"/>
<path d="M198.049 726.97C198.014 726.975 197.98 726.981 195.253 727.421C192.525 727.862 187.106 728.738 180.873 730.077" stroke="black" stroke-width="6" stroke-linecap="round"/>
<path d="M251.338 718.755L260.14 717.37" stroke="black" stroke-width="6" stroke-linecap="round"/>
<path d="M269.685 707.712C269.674 707.643 269.623 707.156 269.701 706.249C269.878 704.198 273.736 700.63 276.368 698.288C276.845 697.863 277.749 697.884 278.401 697.924C279.052 697.964 279.544 698.218 279.954 698.542C282.673 700.698 281.808 707.911 280.835 712.283C279.739 717.212 276.974 724.907 275.787 727.304C275.266 728.357 274.405 729.153 273.642 729.794C273.266 730.111 272.837 730.317 274.226 730.191C278.815 729.576 284.569 728.348 288.606 727.176C290.187 726.728 290.818 726.58 291.467 726.427" stroke="black" stroke-width="6" stroke-linecap="round"/>
<path d="M323.582 662.113C325.215 661.832 326.347 660.274 326.111 658.634C325.876 656.994 324.361 655.893 322.728 656.174L323.155 659.143L323.582 662.113ZM196.357 689.637L197.154 692.519L196.357 689.637ZM175.002 695.196L175.913 698.039L175.002 695.196ZM158.72 700.525L157.953 697.634L158.72 700.525ZM149.639 703.852L150.902 706.548L150.902 706.548L149.639 703.852ZM150.948 727.477L147.972 727.816L150.948 727.477ZM151.426 728.927L150.285 731.74L151.426 728.927ZM155.547 728.36L155.49 725.35L155.547 728.36ZM164.082 735.025L161.957 737.198V737.198L164.082 735.025ZM164.587 749.198L161.889 747.979L164.587 749.198ZM157.096 757.956L155.022 755.844V755.844L157.096 757.956ZM158.618 773.421L161.537 772.702L158.618 773.421ZM279.183 755.32L279.636 758.285L279.183 755.32ZM306.502 748.89L305.219 746.204L306.502 748.89ZM311.268 747.253L311.917 750.176L311.268 747.253ZM338.125 740.52L337.452 737.604L338.125 740.52ZM344.646 738.543L342.883 736.158V736.158L344.646 738.543ZM344.082 720.305L341.098 720.526L344.082 720.305ZM355.097 707.316L352.565 705.785V705.785L355.097 707.316ZM356.52 692.24L359.479 691.743L356.52 692.24ZM349.97 682.711L348.381 685.304L349.97 682.711ZM337.338 680.682L336.865 683.669L337.338 680.682ZM335.78 679.943L333.676 682.137V682.137L335.78 679.943ZM332.21 670.055L329.308 670.846L332.21 670.055ZM329.038 659.487L329.195 656.475L329.175 656.474L329.154 656.474L329.038 659.487ZM323.45 655.966C321.832 655.682 320.258 656.781 319.933 658.42C319.609 660.06 320.657 661.619 322.275 661.903L322.862 658.935L323.45 655.966ZM323.155 659.143L322.728 656.174C322.525 656.209 322.315 656.246 310.217 658.465L310.676 661.429L311.136 664.392C323.269 662.166 323.422 662.14 323.582 662.113L323.155 659.143ZM310.676 661.429L310.217 658.465C298.114 660.685 274.028 665.106 258.238 668.418L258.772 671.367L259.306 674.316C275.005 671.023 299.008 666.617 311.136 664.392L310.676 661.429ZM258.772 671.367L258.238 668.418C242.386 671.742 235.585 673.823 230.107 675.446L230.879 678.335L231.65 681.224C237.036 679.628 243.668 677.595 259.306 674.316L258.772 671.367ZM230.879 678.335L230.107 675.446C224.714 677.043 220.689 678.165 214.975 680.114L215.865 682.966L216.754 685.817C222.318 683.919 226.179 682.844 231.65 681.224L230.879 678.335ZM215.865 682.966L214.975 680.114C209.194 682.086 202.161 684.74 195.561 686.756L196.357 689.637L197.154 692.519C203.859 690.471 211.257 687.693 216.754 685.817L215.865 682.966ZM196.357 689.637L195.561 686.756C189.436 688.626 184.707 689.809 181.239 690.619C179.472 691.032 178.103 691.331 176.918 691.604C175.817 691.856 174.818 692.097 174.09 692.352L175.002 695.196L175.913 698.039C176.268 697.915 176.93 697.745 178.098 697.477C179.181 697.228 180.689 696.896 182.44 696.488C186.006 695.655 190.871 694.438 197.154 692.519L196.357 689.637ZM175.002 695.196L174.09 692.352C166.085 695.152 161.984 696.446 157.953 697.634L158.72 700.525L159.488 703.415C163.636 702.192 167.835 700.865 175.913 698.039L175.002 695.196ZM158.72 700.525L157.953 697.634C151.386 699.57 149.63 700.533 148.377 701.156L149.639 703.852L150.902 706.548C151.857 706.073 153.283 705.244 159.488 703.415L158.72 700.525ZM149.639 703.852L148.377 701.156C145.446 702.612 144.693 705.766 144.521 708.066C144.335 710.55 144.703 713.415 145.203 716.059C145.71 718.744 146.401 721.427 146.963 723.584C147.249 724.68 147.495 725.617 147.681 726.39C147.879 727.214 147.958 727.651 147.972 727.816L150.948 727.477L153.924 727.139C153.866 726.462 153.679 725.614 153.489 724.824C153.286 723.982 153.021 722.975 152.744 721.91C152.18 719.745 151.538 717.241 151.072 714.78C150.599 712.277 150.353 710.037 150.478 708.363C150.617 706.505 151.102 706.448 150.902 706.548L149.639 703.852ZM150.948 727.477L147.972 727.816C147.977 727.872 148.012 728.602 148.127 729.119C148.27 729.763 148.736 731.136 150.285 731.74L151.426 728.927L152.568 726.113C153.051 726.302 153.425 726.633 153.667 726.998C153.879 727.316 153.943 727.587 153.959 727.656C153.974 727.727 153.971 727.745 153.961 727.627C153.957 727.574 153.952 727.516 153.946 727.429C153.941 727.35 153.933 727.247 153.924 727.139L150.948 727.477ZM151.426 728.927L150.285 731.74C151.885 732.365 153.463 731.957 154.202 731.756C154.42 731.696 154.632 731.633 154.805 731.582C154.989 731.527 155.131 731.485 155.265 731.449C155.553 731.371 155.631 731.368 155.605 731.37L155.547 728.36L155.49 725.35C154.847 725.38 154.257 725.524 153.853 725.634C153.641 725.691 153.431 725.754 153.259 725.805C153.076 725.859 152.929 725.903 152.787 725.941C152.493 726.021 152.351 726.044 152.287 726.048C152.237 726.052 152.365 726.034 152.568 726.113L151.426 728.927ZM155.547 728.36L155.605 731.37C155.396 731.379 155.454 731.305 155.883 731.547C156.287 731.775 156.808 732.162 157.466 732.744C158.834 733.956 160.216 735.468 161.957 737.198L164.082 735.025L166.207 732.852C164.74 731.394 162.998 729.52 161.473 728.17C160.683 727.471 159.815 726.784 158.905 726.27C158.021 725.771 156.842 725.288 155.49 725.35L155.547 728.36ZM164.082 735.025L161.957 737.198C162.652 737.889 163.165 739.598 163.054 742.228C162.949 744.712 162.329 747.033 161.889 747.979L164.587 749.198L167.286 750.418C168.142 748.577 168.892 745.425 169.023 742.326C169.147 739.373 168.759 735.389 166.207 732.852L164.082 735.025ZM164.587 749.198L161.889 747.979C161.26 749.331 160.231 750.653 158.955 752C157.564 753.468 156.424 754.442 155.022 755.844L157.096 757.956L159.17 760.068C160.098 759.14 161.869 757.531 163.223 756.101C164.693 754.549 166.245 752.657 167.286 750.418L164.587 749.198ZM157.096 757.956L155.022 755.844C153.618 757.248 153.294 759.142 153.229 760.52C153.159 761.998 153.357 763.622 153.631 765.159C154.151 768.073 155.201 771.848 155.699 774.14L158.618 773.421L161.537 772.702C160.881 769.686 160.034 766.865 159.512 763.942C159.266 762.56 159.158 761.455 159.196 760.649C159.239 759.744 159.438 759.801 159.17 760.068L157.096 757.956ZM158.618 773.421L155.699 774.14C155.969 775.382 156.591 777.036 158.425 777.766C159.147 778.054 159.846 778.099 160.311 778.109C160.765 778.118 161.303 778.089 161.692 778.075L161.659 775.064L161.625 772.053C161.356 772.064 161.183 772.072 160.986 772.078C160.803 772.084 160.679 772.086 160.586 772.084C160.493 772.082 160.471 772.077 160.491 772.081C160.515 772.084 160.61 772.1 160.745 772.154C160.887 772.21 161.047 772.299 161.201 772.427C161.353 772.554 161.457 772.684 161.521 772.785C161.581 772.879 161.6 772.935 161.594 772.919C161.588 772.902 161.566 772.837 161.537 772.702L158.618 773.421ZM161.659 775.064L161.692 778.075C163.781 777.995 167.107 777.891 190.382 773.999L189.97 771.027L189.557 768.055C166.264 771.95 163.286 771.99 161.625 772.053L161.659 775.064ZM189.97 771.027L190.382 773.999C213.688 770.101 257.026 762.384 279.636 758.285L279.183 755.32L278.73 752.356C256.125 756.454 212.82 764.164 189.557 768.055L189.97 771.027ZM279.183 755.32L279.636 758.285C302.771 754.091 305.035 752.968 307.786 751.575L306.502 748.89L305.219 746.204C303.393 747.129 302.018 748.134 278.73 752.356L279.183 755.32ZM306.502 748.89L307.786 751.575C309.251 750.833 310.403 750.556 311.917 750.176L311.268 747.253L310.619 744.331C309.145 744.701 307.372 745.114 305.219 746.204L306.502 748.89ZM311.268 747.253L311.917 750.176C314.018 749.649 324.526 747.143 338.798 743.437L338.125 740.52L337.452 737.604C323.2 741.305 312.819 743.779 310.619 744.331L311.268 747.253ZM338.125 740.52L338.798 743.437C341.331 742.779 342.893 742.373 343.88 742.078C344.833 741.792 345.652 741.505 346.408 740.928L344.646 738.543L342.883 736.158C343.087 736.003 343.209 736.039 342.322 736.304C341.469 736.559 340.046 736.93 337.452 737.604L338.125 740.52ZM344.646 738.543L346.408 740.928C347.405 740.167 347.91 739.137 348.18 738.315C348.455 737.478 348.575 736.587 348.625 735.76C348.725 734.107 348.574 732.178 348.359 730.321C348.143 728.446 347.836 726.443 347.583 724.671C347.322 722.841 347.121 721.277 347.065 720.085L344.082 720.305L341.098 720.526C341.169 722.047 341.412 723.881 341.67 725.683C341.935 727.542 342.221 729.404 342.425 731.173C342.631 732.959 342.728 734.453 342.662 735.55C342.628 736.098 342.561 736.414 342.513 736.558C342.461 736.718 342.509 736.444 342.883 736.158L344.646 738.543ZM344.082 720.305L347.065 720.085C347.061 719.995 347.089 719.609 347.708 718.783C348.318 717.97 349.245 717.069 350.447 716.014C351.525 715.068 353.03 713.828 354.206 712.753C355.426 711.637 356.729 710.32 357.629 708.847L355.097 707.316L352.565 705.785C352.143 706.476 351.383 707.308 350.257 708.337C349.087 709.407 347.964 710.31 346.593 711.514C345.346 712.609 344.001 713.865 342.978 715.229C341.965 716.58 340.998 718.39 341.098 720.526L344.082 720.305ZM355.097 707.316L357.629 708.847C360.452 704.226 360.471 698.859 359.479 691.743L356.52 692.24L353.562 692.736C354.534 699.704 354.173 703.153 352.565 705.785L355.097 707.316ZM356.52 692.24L359.479 691.743C358.701 686.169 354.483 681.892 351.558 680.118L349.97 682.711L348.381 685.304C350.38 686.516 353.109 689.487 353.562 692.736L356.52 692.24ZM349.97 682.711L351.558 680.118C349.035 678.588 346.195 678.16 343.815 677.994C342.619 677.91 341.424 677.889 340.419 677.86C339.366 677.83 338.519 677.792 337.811 677.696L337.338 680.682L336.865 683.669C337.917 683.811 339.049 683.853 340.092 683.883C341.185 683.915 342.206 683.933 343.247 684.005C345.34 684.151 347.054 684.499 348.381 685.304L349.97 682.711ZM337.338 680.682L337.811 677.696C337.789 677.693 337.793 677.691 337.814 677.7C337.824 677.705 337.836 677.712 337.849 677.721C337.862 677.729 337.874 677.739 337.883 677.748L335.78 679.943L333.676 682.137C334.594 683.031 335.724 683.514 336.865 683.669L337.338 680.682ZM335.78 679.943L337.883 677.748C337.478 677.354 337.05 676.625 336.578 675.11C336.099 673.57 335.718 671.75 335.113 669.264L332.21 670.055L329.308 670.846C329.847 673.058 330.32 675.276 330.874 677.053C331.436 678.854 332.22 680.72 333.676 682.137L335.78 679.943ZM332.21 670.055L335.113 669.264C334.928 668.508 334.756 666.96 334.539 665.064C334.437 664.184 334.329 663.266 334.209 662.459C334.097 661.708 333.947 660.841 333.72 660.163L330.888 661.195L328.055 662.227C328.098 662.356 328.188 662.753 328.3 663.505C328.404 664.201 328.502 665.027 328.604 665.913C328.792 667.549 329.011 669.623 329.308 670.846L332.21 670.055ZM330.888 661.195L333.72 660.163C333.368 659.113 332.819 658.014 331.793 657.275C330.711 656.495 329.578 656.485 329.195 656.475L329.038 659.487L328.881 662.498C329.035 662.502 328.967 662.508 328.844 662.482C328.68 662.447 328.455 662.367 328.237 662.21C328.03 662.061 327.937 661.92 327.923 661.897C327.915 661.885 327.969 661.969 328.055 662.227L330.888 661.195ZM329.038 659.487L329.154 656.474C326.543 656.441 324.644 656.176 323.45 655.966L322.862 658.935L322.275 661.903C323.713 662.156 325.933 662.461 328.922 662.499L329.038 659.487Z" fill="black"/>
<path d="M294.715 581.294C294.818 580.569 295.377 578.526 298.369 574.215C299.931 571.965 301.29 570.915 301.701 570.789C301.908 570.726 301.842 571.613 301.374 576.261C300.906 580.909 299.969 589.533 299.505 594.184C299.042 598.834 299.08 599.251 299.296 599.871" stroke="black" stroke-width="6" stroke-linecap="round"/>
<path d="M318.666 575.816C316.944 575.571 313.382 575.235 312.591 575.649C310.469 576.758 309.876 579.806 309.218 581.829C308.924 582.732 308.852 583.436 309.77 584.182C314.813 588.283 317.885 589.27 318.837 591.309C320.488 594.845 317.929 600.712 316.775 602.147C315.447 603.798 311.085 602.577 308.834 601.431C307.084 600.541 309.037 596.82 310.165 594.386C311.191 592.169 315.814 589.64 319.122 587.461C320.611 586.479 321.563 585.468 321.916 584.626C322.057 582.401 321.467 580.371 320.789 578.664C320.587 578.161 320.369 577.534 319.508 576.078" stroke="black" stroke-width="6" stroke-linecap="round"/>
<path d="M334.035 585.622L331.777 601.464" stroke="black" stroke-width="6" stroke-linecap="round"/>
<path d="M327.371 593.878L343.023 596.109" stroke="black" stroke-width="6" stroke-linecap="round"/>
<path d="M316.815 554.322C316.801 554.32 314.574 554.046 310.429 553.779C308.509 553.655 306.937 554.078 305.26 554.583C303.584 555.088 301.844 555.796 299.43 556.967C297.017 558.138 293.982 559.75 292.222 560.734C290.035 561.957 289.136 562.959 288.127 564.22C287.147 565.445 286.357 566.905 285.194 568.674C283.564 571.154 282.027 573.063 281.393 574.234C280.886 575.171 280.674 576.055 280.298 578.35C279.989 580.241 279.595 583.628 279.484 586.86C279.373 590.091 279.598 593.07 279.791 595.049C280.071 597.924 280.534 599.627 281.063 601.318C281.649 603.19 282.413 604.92 283.17 606.371C283.874 607.722 285.437 609.465 287.263 611.583C288.558 613.084 289.61 614.408 291.053 615.634C292.663 617.001 294.416 618.025 298.415 619.495C301.589 620.662 307.252 622.16 311.796 623.219C316.34 624.279 319.636 624.722 323.459 624.704C327.282 624.687 331.531 624.194 334.396 623.758C337.26 623.322 338.61 622.958 340.053 622.45C343.023 621.403 344.886 620.449 345.728 619.929C346.879 619.219 348.299 617.849 349.686 616.455C350.55 615.587 351.311 613.692 352.414 610.072C353.889 605.233 353.889 601.704 353.813 599.668C353.756 598.127 353.505 595.567 353.015 591.343C352.525 587.119 351.762 581.311 351.124 577.427C350.185 571.715 349.178 569.172 348.497 567.769C348.168 567.09 347.708 566.585 344.998 564.477C342.289 562.369 337.302 558.7 334.186 556.545C331.069 554.39 329.973 553.861 328.843 553.441C326.617 552.614 323.619 552.1 320.614 551.633C317.79 551.194 316.16 552.285 314.906 552.947C314.54 553.087 314.12 553.171 313.807 553.198C313.494 553.225 313.301 553.193 313.083 553.012" stroke="black" stroke-width="6" stroke-linecap="round"/>
<path d="M419.151 935.347C419.15 935.144 419.113 927.433 419.099 915.382C419.121 910.937 419.203 909.884 419.274 906.081C419.344 902.278 419.402 895.757 419.462 889.037" stroke="black" stroke-width="6" stroke-linecap="round"/>
<path d="M442.222 896.459L421.119 916.877L408.311 916.938L398.939 896.666L391.696 860.041L398.592 824.233L420.65 818.827L441.93 835.51L449.589 866.832L442.222 896.459Z" fill="#9ECB75"/>
<path d="M407.488 912.827C410.28 914.739 413.629 915.322 414.826 915.316C415.398 915.02 425.89 914.127 426.443 913.834C426.995 913.541 427.527 913.252 428.113 912.861C430.465 911.156 432.679 909.734 434.587 907.565C437.322 904.456 438.805 901.431 440.989 896.95C443.721 891.347 447.509 884.133 447.819 876.756C448.209 867.462 448.236 854.308 447.116 850.384C445.396 844.359 444.156 839.858 441.562 835.792C439.881 833.158 436.695 830.558 432.335 826.693C429.738 824.39 427.447 822.49 424.105 821.802L424.049 821.791C420.503 821.06 411.147 819.132 404.988 821.881C403.411 822.585 401.875 823.378 400.59 825.618C396.743 832.324 394.854 835.091 392.126 848.453C391.403 851.996 390.619 859.482 391.845 870.392C392.631 877.386 393.485 880.996 394.874 885.662C397.674 895.067 399.657 901.599 400.293 902.816C401.839 905.78 403.839 910.329 407.488 912.827Z" stroke="black" stroke-width="6" stroke-linecap="round"/>
<path d="M163.667 244.811C163.667 239.244 160.154 204.478 161.667 197.915C161.836 197.184 162.587 196.841 163.317 196.626C166.684 195.637 172.297 199.251 176.896 202.441C182.319 206.203 189.388 211.212 192.26 212.922C197.481 216.03 211.009 217.59 211.009 217.59C211.009 217.59 225.612 212.805 228.542 210.232C234.243 205.226 244.145 193.663 244.145 193.663C244.145 193.663 251.172 202.234 261.098 210.271C264.834 213.297 267.362 214.676 271.523 215.322C276.825 216.144 285.791 213.41 294.995 209.916C306.054 205.718 316.692 197.021 321.22 194.939C321.745 194.697 322.185 195.732 322.395 203.134C322.605 210.536 322.605 224.68 322.809 232.24C323.014 239.801 323.423 240.35 323.953 240.795C328.051 244.23 336.961 245.864 339.872 247.046C341.409 247.67 342.77 248.46 343.675 249.394C344.581 250.329 337.629 256.89 327.061 265.778C321.281 270.64 320.216 273.682 318.555 277.456C317.886 278.975 317.637 280.328 317.818 281.654C317.994 282.943 320.354 285.291 325.702 290.713C340.848 306.071 342.992 307.746 343.636 309.017C343.94 309.618 343.765 310.302 343.349 310.724C340.819 313.291 335.195 311.721 329.123 313.096C325.035 314.022 322.036 315.342 320.003 317.405C317.812 319.627 318.515 324.932 319.626 329.034C321.708 336.717 327.822 343.853 331.693 348.194C334.569 351.419 337.507 353.115 336.945 353.886C334.797 356.829 323.825 353.454 311.203 351.66C300.71 350.169 295.303 347.85 292.378 346.94C279.999 343.088 271.985 340.216 270.555 340.287C265.052 340.563 259.889 349.194 254.806 355.53C248.594 363.272 245.376 369.553 242.35 371.747C241.867 372.098 241.163 371.302 240.686 370.314C237.373 363.461 237.503 353.772 235.343 349.132C234.115 346.496 232.452 344.664 231.355 343.484C230.842 342.932 230.176 342.724 228.971 343.254C225.743 344.672 219.171 349.385 211.069 354.047C206.836 356.483 200.49 359.204 191.856 362.954C180.175 368.028 169.323 369.806 168.256 369.693C167.1 369.57 170.055 362.444 174.358 353.673C178.306 345.625 184.195 337.709 185.461 335.664C185.932 334.904 185.264 334.34 183.071 334.096C177.011 333.423 172.299 333.976 166.667 334.223C152.446 334.847 141.904 334.245 140.345 333.367C139.667 332.985 139.657 332.134 139.717 331.462C139.835 330.139 140.659 328.934 143.006 324.788C148.641 314.835 153.454 306.284 156.321 302.642C159.366 298.776 162.599 294.844 164.613 291.275C165.402 289.878 165.058 288.999 164.62 288.344C162.067 284.527 140.044 264.981 133.277 258.38C133.277 258.38 133.277 258.38 133.277 258.38C133.276 258.38 133.276 258.38 133.276 258.38C136.657 262.03 129.523 254.719 133.277 258.38C133.472 258.291 162.363 245.206 163.667 244.811Z" fill="#FFDC9B"/>
<path d="M133.276 258.38C136.657 262.031 129.523 254.718 133.277 258.38C140.044 264.981 162.067 284.527 164.62 288.344C165.058 288.999 165.402 289.878 164.613 291.275C162.599 294.844 159.366 298.776 156.321 302.642C153.454 306.284 148.641 314.835 143.006 324.788C140.659 328.934 139.835 330.139 139.717 331.462C139.657 332.134 139.667 332.985 140.345 333.367C141.904 334.245 152.446 334.847 166.667 334.223C172.299 333.976 177.011 333.423 183.071 334.096C185.264 334.34 185.932 334.904 185.461 335.664C184.195 337.709 178.306 345.625 174.358 353.673C170.055 362.444 167.1 369.57 168.256 369.693C169.323 369.806 180.175 368.028 191.856 362.954C200.49 359.204 206.836 356.483 211.069 354.047C219.171 349.385 225.743 344.672 228.971 343.254C230.176 342.724 230.842 342.932 231.355 343.484C232.452 344.664 234.115 346.496 235.343 349.132C237.503 353.772 237.373 363.461 240.686 370.314C241.163 371.302 241.867 372.098 242.35 371.747C245.376 369.553 248.594 363.272 254.806 355.53C259.889 349.194 265.052 340.563 270.555 340.287C271.985 340.216 279.999 343.088 292.378 346.94C295.303 347.85 300.71 350.169 311.203 351.66C323.825 353.454 334.797 356.829 336.945 353.886C337.507 353.115 334.569 351.419 331.693 348.194C327.822 343.853 321.708 336.717 319.626 329.034C318.515 324.932 317.812 319.627 320.003 317.405C322.036 315.342 325.035 314.022 329.123 313.096C335.195 311.721 340.819 313.291 343.349 310.724C343.765 310.302 343.94 309.618 343.636 309.017C342.992 307.746 340.848 306.071 325.702 290.713C320.354 285.291 317.994 282.943 317.818 281.654C317.637 280.328 317.886 278.975 318.555 277.456C320.216 273.682 321.281 270.64 327.061 265.778C337.629 256.89 344.581 250.329 343.675 249.394C342.77 248.46 341.409 247.67 339.872 247.046C336.961 245.864 328.051 244.23 323.953 240.795C323.423 240.35 323.014 239.801 322.809 232.24C322.605 224.68 322.605 210.536 322.395 203.134C322.185 195.732 321.745 194.697 321.22 194.939C316.692 197.021 306.054 205.718 294.995 209.916C285.791 213.41 276.825 216.144 271.523 215.322C267.362 214.676 264.834 213.297 261.098 210.271C251.172 202.234 244.145 193.663 244.145 193.663C244.145 193.663 234.243 205.226 228.542 210.232C225.612 212.805 211.009 217.59 211.009 217.59C211.009 217.59 197.481 216.03 192.26 212.922C189.388 211.212 182.319 206.203 176.896 202.441C172.297 199.251 166.684 195.637 163.317 196.626C162.587 196.841 161.836 197.184 161.667 197.915C160.154 204.478 163.667 239.244 163.667 244.811C162.359 245.208 133.276 258.38 133.276 258.38ZM133.276 258.38C130.628 255.523 134.446 261.954 133.276 258.38Z" stroke="black" stroke-width="6" stroke-linecap="round"/>
<path d="M181.416 245.152C181.416 244.344 181.839 241.953 183.307 239.918C184.625 238.091 188.249 237.671 194.076 237.748C197.225 237.789 198.658 241.127 199.719 243.119C201.446 246.361 200.094 251.371 198.564 254.41C197.603 256.318 193.903 257.511 190.493 258.535C186.482 259.738 201.399 258.037 203.493 258.835C204.35 259.162 204.788 260.028 205.08 260.917C205.763 263 204.705 266.34 200.719 272.527C196.878 276.635 193.973 277.819 190.585 278.189C189.005 278.239 186.497 278.247 183.844 278.209" stroke="black" stroke-width="6" stroke-linecap="round"/>
<path d="M214.887 274.146C214.887 274.205 214.887 274.264 214.887 275.353C214.887 276.443 214.887 278.561 214.85 279.951C214.814 281.341 214.741 281.938 214.604 282.809" stroke="black" stroke-width="6" stroke-linecap="round"/>
<path d="M232.435 234.774C231.943 234.765 230.304 235.458 228.439 237.329C226.312 239.463 225.803 241.451 224.645 245.139C223.796 247.846 224.011 253.292 224.436 258.197C224.697 261.205 225.723 263.248 226.365 265.207C227.13 267.538 229.478 268.723 231.243 269.53C233.105 270.381 235.797 270.185 237.902 269.771C239.603 269.437 241.355 266.777 243.389 263.316C244.816 260.89 244.714 252.537 244.05 245.918C243.773 243.152 242.051 240.24 241.022 238.22C239.67 236.751 237.788 235.534 235.714 234.579C235.217 234.354 234.731 234.106 233.292 233.621" stroke="black" stroke-width="6" stroke-linecap="round"/>
<path d="M257.601 232.95C257.267 233.315 256.088 235.221 254.807 238.117C253.249 241.639 251.377 247.864 251.121 254.866C250.928 260.159 255.315 266.242 256.713 267.71C258.372 269.452 260.595 269.356 265.214 269.367C267.665 269.373 269.061 267.772 270.747 265.858C274.371 261.744 274.043 259.079 274.083 252.346C274.109 247.921 271.993 244.036 270.946 241.176C270.229 239.216 268.5 237.505 267.311 235.81C266.16 234.169 264.11 233.022 262.185 232.493C261.745 232.419 261.336 232.378 260.709 232.356C260.082 232.335 259.25 232.335 258.393 232.335" stroke="black" stroke-width="6" stroke-linecap="round"/>
<path d="M288.956 231.815C288.646 232.11 286.359 235.042 283.595 239.706C281.507 243.228 281.189 248.404 280.877 259.399C280.764 263.39 281.888 266.112 282.596 267.81C283.282 269.453 286.111 270.472 289.479 271.169C291.698 271.629 293.421 271.096 294.244 270.756C296.818 269.692 299.201 266.573 300.61 264.407C302.049 262.194 301.839 253.779 301.209 245.595C300.896 241.52 299.448 238.873 297.259 234.89C296.653 234 296.081 233.354 295.564 232.799C295.047 232.244 294.604 231.8 293.181 230.826" stroke="black" stroke-width="6" stroke-linecap="round"/>
<path d="M271.371 102.811C271.374 102.782 272.723 101.075 276.028 97.2167C280.306 92.2237 284.292 88.323 286.124 86.3667C286.696 85.7565 286.891 86.4321 286.902 87.0243C286.912 87.6165 286.822 88.235 285.688 95.3546C284.555 102.474 282.38 116.076 280.14 130.09" stroke="black" stroke-width="6" stroke-linecap="round"/>
<path d="M297.956 128.154C298.05 127.537 300.44 122.22 304.404 114.591C308.46 106.785 309.63 105.692 310.703 104.143C311.442 103.075 311.919 102.086 312.353 101.775C312.526 101.651 312.759 102.026 313.896 106.578C315.033 111.131 317.105 119.961 318.245 124.686C319.385 129.411 319.529 129.764 319.901 130.737" stroke="black" stroke-width="6" stroke-linecap="round"/>
<path d="M303.41 119.474L316.919 120.912" stroke="black" stroke-width="6" stroke-linecap="round"/>
<path d="M326.914 130.894C326.916 130.874 327.425 126.353 328.377 118.764C329.245 111.842 330.228 108.557 330.535 107.11C330.617 106.725 330.665 107.065 330.781 107.136C332.842 108.401 337.24 117.78 337.698 118.104C338.172 118.438 338.67 116.87 341.339 114.33C344.47 111.349 346.821 108.384 348.444 106.978C348.93 106.558 349.041 106.996 348.297 110.096C347.553 113.195 347.024 119.116 346.035 123.328C345.046 127.539 344.637 129.97 344.067 133.003" stroke="black" stroke-width="6" stroke-linecap="round"/>
<path d="M220.687 84.5519L243.533 84.0425L233.469 102.613L220.687 84.5519Z" fill="#ED3E7B"/>
<path d="M245.679 82.6073C245.639 82.6648 243.635 86.0259 240.571 91.2035C239.342 93.279 238.398 95.7843 236.958 99.417C235.682 102.637 234.764 103.468 234.563 103.914C234.459 104.145 234.435 104.45 234.461 108.782C234.486 113.113 234.582 121.479 234.652 126.58" stroke="black" stroke-width="6" stroke-linecap="round"/>
<path d="M221.869 127.657L248.458 127.344" stroke="black" stroke-width="6" stroke-linecap="round"/>
<path d="M233.805 103.617C233.618 103.471 231.136 100.013 229.428 97.4491C228.475 96.0198 226.792 94.3116 225.166 92.5767C223.054 90.3225 222.2 87.801 221.233 86.9661C220.275 86.1384 219.328 84.0315 218.537 82.0823C217.927 80.577 217.338 79.8808 216.792 79.1691C216.483 78.7688 214.369 74.1201 214.369 74.1201" stroke="black" stroke-width="6" stroke-linecap="round"/>
<path d="M246.57 82.1804C247.077 81.325 248.298 79.1497 248.74 78.0389C249.767 75.6452 250.845 73.001 251.1 72.5711C251.229 72.3679 251.356 72.1951 251.76 71.6855" stroke="black" stroke-width="6" stroke-linecap="round"/>
<path d="M251.924 71.6843C251.898 71.6846 251.872 71.6849 247.13 71.7485C242.389 71.812 232.933 71.9388 227.168 72.1436C221.403 72.3483 219.616 72.6271 218.441 72.8292C216.06 73.2943 215.503 73.3978 215.117 73.5097C214.927 73.5705 214.747 73.6394 214.408 73.7382" stroke="black" stroke-width="6" stroke-linecap="round"/>
<path d="M221.145 84.4749C221.131 84.475 224.458 84.4359 229.662 84.3438C231.841 84.2255 241.494 83.9998 245.361 83.8634" stroke="black" stroke-width="6" stroke-linecap="round"/>
<path d="M284.476 296.856C284.452 296.856 284.427 296.856 281.893 296.856C279.359 296.856 274.316 296.856 268.9 297.012" stroke="black" stroke-width="6" stroke-linecap="round"/>
<path d="M214.734 299.523C213.811 299.523 211.521 299.708 210.436 300.322C208.19 301.594 206.971 303.184 206.287 304.359C205.564 305.602 206.199 307.58 207.147 309.288C207.883 310.612 209.404 311.044 211.354 311.704C215.314 313.046 216.461 313.372 217.427 314.118C218.249 314.753 218.835 315.505 219.132 316.059C220.014 317.707 219.251 320.278 218.699 321.282C218.224 322.147 217.417 322.725 216.372 323.335C213.245 324.187 210.652 324.477 209.295 324.613C208.751 324.646 207.899 324.67 207.021 324.695" stroke="black" stroke-width="6" stroke-linecap="round"/>
<path d="M227.97 313.277C227.985 313.277 230.706 313.277 235.195 313.23C237.731 313.204 238.722 312.911 239.127 312.692C239.973 312.234 240.342 311.161 240.624 310.033C240.869 309.05 240.527 308.169 240.231 307.694C239.65 306.762 238.396 306.027 237.408 305.292C236.637 304.717 235.32 304.341 231.866 304.321C229.619 304.308 228.889 305.373 227.938 306.34C227.169 307.122 227.046 308.253 226.826 310.052C226.57 312.142 226.365 313.736 227.226 316.285C227.846 318.121 228.918 318.919 229.857 319.421C231.358 320.224 233.052 320.181 234.682 320.584C236.068 320.928 237.065 321.222 240.331 321.266C241.203 321.205 241.85 321.057 242.288 320.947C242.725 320.837 242.934 320.769 243.448 320.635" stroke="black" stroke-width="6" stroke-linecap="round"/>
<path d="M257.833 304.554C257.32 304.554 255.817 304.695 253.999 305.728C251.812 306.972 251.261 308.671 250.199 311.561C249.347 313.882 250.068 317.241 250.671 317.962C251.466 318.913 253.624 319.375 255.669 319.64C259.323 320.115 260.352 319.288 261.138 318.8C261.322 318.666 261.485 318.528 261.661 318.385C261.837 318.243 262.02 318.101 262.28 317.913" stroke="black" stroke-width="6" stroke-linecap="round"/>
<path d="M259.125 304.372C259.432 304.372 260.448 304.607 261.146 305.237C261.803 305.831 262.031 307.355 262.295 309.162C262.454 310.245 262.49 311.24 262.611 312.165C262.743 313.171 262.856 314.593 262.986 315.716C263.088 316.601 263.449 317.201 263.758 317.527C265.36 317.843 267.853 317.933 269.11 318.051C269.666 318.066 270.536 318.066 271.431 318.066" stroke="black" stroke-width="6" stroke-linecap="round"/>
<path d="M275.48 293.697C275.48 293.713 275.492 296.465 275.522 300.739C275.535 302.501 276.042 305.746 276.757 310.476C277.261 313.803 278.067 315.971 278.319 316.866C278.61 317.898 279.542 318.73 280.555 319.409C281.028 319.58 281.584 319.697 282.239 319.782C282.57 319.812 282.901 319.814 283.241 319.817" stroke="black" stroke-width="6" stroke-linecap="round"/>
<path d="M296.182 305.053C294.882 305.053 291.67 305.295 290.445 306.057C289.654 306.549 289.103 307.246 288.764 307.798C287.973 309.086 288.643 311.107 288.915 311.621C289.421 312.573 291.675 312.498 294.677 313.329C296.226 313.758 297.55 314.976 298.197 316.066C298.307 316.252 298.214 316.496 298.109 316.686C297.665 317.486 296.38 317.982 294.269 319.039C292.959 319.702 291.724 320.034 290.545 320.172C290.21 320.193 289.775 320.212 289.327 320.231" stroke="black" stroke-width="6" stroke-linecap="round"/>
<path d="M238.392 853.074L236.917 845.846H242.4L247.883 851.561L308.198 867.867L305.878 875.767H296.599V886.526H291.538L287.531 881.146L274.877 874.086L225.527 860.134L227.848 854.419L238.392 853.074Z" fill="white"/>
<path d="M246.688 850.765C246.626 850.488 246.206 849.497 245.204 848.273C243.892 846.671 241.207 845.901 239.194 845.849C238.354 845.828 237.817 846.289 237.389 846.6C236.025 847.594 236.968 850.189 237.647 851.228C237.981 851.738 238.605 852.236 238.916 852.8C240.114 854.968 230.574 853.555 229.3 854.04C228.049 854.517 227.18 855.307 226.422 856.125C225.62 856.991 225.528 858.724 226.013 859.967C226.485 861.175 229.073 861.31 230.294 861.913C232.405 862.955 236.376 863.273 239.467 863.586C241.439 863.786 242.888 864.129 243.629 864.307C244.271 864.462 248.038 865.5 256.452 867.971C261.426 869.432 267.667 871.654 271.259 872.929C277.282 875.068 280.412 876.828 282.074 877.736C283.625 878.583 284.742 879.385 285.605 880.216C286.547 881.122 287.694 882.899 289.755 885.512C290.399 886.328 290.999 886.7 291.571 886.978C292.872 887.609 295.494 887.465 296.999 886.98C298.303 886.56 297.798 883.636 297.898 881.691C298.071 878.321 297.272 877.286 296.427 876.298C296.178 876.007 295.861 875.67 295.851 875.426C295.841 875.182 296.138 875.048 296.456 874.985C297.697 874.737 301.91 875.132 304.759 874.953C306.076 874.87 307.011 873.748 308.057 872.702C308.521 872.238 308.668 871.715 308.76 871.018C308.911 869.873 308.408 868.806 307.673 868.193C306.533 867.243 304.849 866.753 303.53 866.543C301.271 866.184 299.041 865.744 297.302 865.487C295.8 865.266 294.201 865.016 291.696 864.554C287.026 863.693 283.864 862.704 281.48 861.77C279.403 860.956 275.568 859.452 272.476 858.36C267.222 856.504 264.443 855.823 263.581 855.512C260.208 854.297 254.499 853.208 252.701 852.688C250.847 852.222 249.736 851.836 248.724 851.307C248.479 851.162 248.235 851.014 247.984 850.862" stroke="black" stroke-width="6" stroke-linecap="round"/>
<path d="M287.321 850.721L295.333 846.015L296.81 850.721V854.924H306.511L307.987 860.135L293.224 863.329L251.046 878.121L243.454 886.694H237.549V874.255H228.059L225.951 868.372L233.754 866.354L287.321 850.721Z" fill="white"/>
<path d="M287.816 850.765C287.878 850.488 288.298 849.497 289.3 848.273C290.612 846.671 293.297 845.901 295.31 845.849C296.15 845.828 296.687 846.289 297.115 846.6C298.479 847.594 297.536 850.189 296.857 851.228C296.523 851.738 295.899 852.236 295.588 852.8C294.39 854.968 303.93 853.555 305.204 854.04C306.454 854.517 307.324 855.307 308.082 856.125C308.883 856.991 308.976 858.724 308.491 859.967C308.019 861.175 305.431 861.31 304.209 861.913C302.099 862.955 298.128 863.273 295.037 863.586C293.064 863.786 291.616 864.129 290.875 864.307C290.233 864.462 286.466 865.5 278.052 867.971C273.078 869.432 266.837 871.654 263.245 872.929C257.222 875.068 254.092 876.828 252.43 877.736C250.879 878.583 249.762 879.385 248.899 880.216C247.957 881.122 246.81 882.899 244.749 885.512C244.105 886.328 243.505 886.7 242.933 886.978C241.632 887.609 239.01 887.465 237.505 886.98C236.201 886.56 236.706 883.636 236.606 881.691C236.433 878.321 237.231 877.286 238.076 876.298C238.325 876.007 238.643 875.67 238.653 875.426C238.663 875.182 238.366 875.048 238.048 874.985C236.807 874.737 232.594 875.132 229.745 874.953C228.428 874.87 227.493 873.748 226.447 872.702C225.983 872.238 225.836 871.715 225.744 871.018C225.593 869.873 226.096 868.806 226.831 868.193C227.971 867.243 229.655 866.753 230.974 866.543C233.233 866.184 235.463 865.744 237.202 865.487C238.704 865.266 240.303 865.016 242.808 864.554C247.478 863.693 250.64 862.704 253.024 861.77C255.1 860.956 258.936 859.452 262.028 858.36C267.282 856.504 270.061 855.823 270.923 855.512C274.296 854.297 280.005 853.208 281.803 852.688C283.657 852.222 284.768 851.836 285.78 851.307C286.025 851.162 286.269 851.014 286.52 850.862" stroke="black" stroke-width="6" stroke-linecap="round"/>
<path d="M254.815 803.902L271.136 800.709L280.908 805.316L286.215 817.207L278.764 826.432L276.813 838.318L269.185 841.689H260.669L254.815 828.206L248.074 823.771L247.01 813.659L254.815 803.902Z" fill="white"/>
<path d="M267.568 799.568C267.568 799.55 265.047 799.544 260.947 799.603C258.799 799.634 257.575 800.129 255.695 800.952C252.613 802.302 250.428 803.656 249.601 804.282C247.389 805.957 245.913 808.644 245.403 810.176C244.782 812.04 244.896 815.532 245.121 819.642C245.429 825.283 247.004 826.635 247.717 827.81C248.272 828.723 249.368 829.187 251.187 829.658C252.546 830.01 253.688 830.151 254.871 830.344C255.896 830.512 257.038 830.9 257.841 831.471C258.572 831.992 258.415 833.509 258.536 834.575C258.694 835.973 258.937 838.204 259.146 839.513C259.446 841.397 259.753 842.735 260.131 843.982C260.208 844.234 260.305 844.441 260.463 844.563C261.191 845.125 262.339 844.562 263.147 844.086C263.6 843.818 264.088 843.276 264.677 842.855C265.568 842.219 266.869 844.104 267.854 844.916C268.228 845.224 268.618 845.39 269.029 845.345C269.94 845.246 270.776 843.425 271.679 842.222C271.843 842.003 271.939 841.799 272.097 841.654C272.256 841.51 272.457 841.418 272.677 841.47C273.701 841.709 274.375 843.162 275.756 844.198C276.034 844.407 276.289 844.391 276.492 844.337C276.91 844.226 277.233 843.722 277.542 843.224C278.13 842.278 278.173 837.178 278.167 834.019C278.162 831.637 278.084 830.752 278.718 829.902C279.424 828.956 281.287 827.76 282.556 826.781C283.508 826.047 284.166 824.971 284.776 823.901C285.034 823.448 285.038 820.849 285.074 817.234C285.101 814.492 283.695 812.318 282.733 810.876C281.683 809.303 280.63 807.957 279.615 805.799C278.928 804.337 278.092 803.741 276.663 802.915C274.993 801.95 273.941 801.306 273.033 800.827C271.993 800.444 270.675 800.167 269.365 800.07C268.522 800.03 267.319 800.006 266.079 799.982" stroke="black" stroke-width="6" stroke-linecap="round"/>
<path d="M258.834 817.141C258.741 817.157 258.185 817.502 257.749 817.96C257.286 818.447 257.184 819.14 257.234 819.934C257.299 820.966 258.209 821.506 258.493 821.797C258.698 822.006 259.126 821.988 259.515 821.971C259.988 821.95 260.251 821.62 260.482 821.409C260.774 821.144 260.688 819.541 260.648 818.666C260.635 818.383 260.464 818.066 260.29 817.856C260.025 817.688 259.881 817.55 259.787 817.454C259.739 817.405 259.691 817.358 259.492 817.261" stroke="black" stroke-width="6" stroke-linecap="round"/>
<path d="M271.567 815.835C271.567 815.93 271.346 816.492 270.776 817.29C270.318 817.932 270.261 818.834 270.374 819.5C270.451 819.956 271.613 820.785 272.305 821.275C272.474 821.394 272.884 821.402 273.29 821.374C273.602 821.353 273.891 820.972 274.284 820.601C274.499 820.397 274.526 819.65 274.522 818.535C274.519 817.608 274.287 817.363 273.975 816.935C273.754 816.632 273.39 816.401 273.087 816.228C272.653 816.061 272.255 815.924 272.008 815.879C271.852 815.864 271.634 815.862 271.396 815.868" stroke="black" stroke-width="6" stroke-linecap="round"/>
</g>
<defs>
<clipPath id="clip0_8913_3916">
<rect width="2162" height="1213" fill="white"/>
</clipPath>
</defs>
</svg>
