<svg width="1308" height="1611" viewBox="0 0 1308 1611" fill="none" xmlns="http://www.w3.org/2000/svg">
<g clip-path="url(#clip0_8914_4224)">
<rect width="1308" height="1611" fill="white"/>
<rect x="3.04492" y="793.598" width="1444.1" height="1349.87" transform="rotate(-90 3.04492 793.598)" fill="#BCDFF1"/>
<path d="M79.4474 716.213C79.6997 713.857 82.7008 705.816 87.998 698.429C90.1219 695.467 92.8963 694.094 96.9625 693.473C103.234 692.515 109.334 694.377 113.315 696.704C119.653 700.409 125.106 711.236 130.28 716.934C134.654 721.751 143.784 712.397 149.457 709.251C155.336 705.991 162.272 705.283 173.024 705.407C180.793 707.94 184.987 710.474 187.738 712.807C189.129 714.077 190.509 715.522 193.76 719.635" stroke="#7AC6EE" stroke-width="6" stroke-linecap="round"/>
<path d="M98.4465 613.787C98.6587 612.165 101.169 606.628 105.595 601.54C107.37 599.5 109.686 598.553 113.08 598.123C118.315 597.459 123.405 598.736 126.726 600.335C132.012 602.881 136.557 610.329 140.87 614.247C144.518 617.56 152.144 611.115 156.881 608.946C161.79 606.698 167.579 606.206 176.552 606.284C183.035 608.022 186.533 609.763 188.828 611.367C189.987 612.24 191.138 613.233 193.848 616.062" stroke="#7AC6EE" stroke-width="6" stroke-linecap="round"/>
<rect x="1223.02" y="1317.38" width="122.189" height="125.388" fill="#EDF4DC"/>
<rect x="-43.5898" y="1474.65" width="162.037" height="86.0527" transform="rotate(-90 -43.5898 1474.65)" fill="#EDF4DC"/>
<rect opacity="0.5" width="217.191" height="1342.16" transform="matrix(4.37114e-08 1 1 -4.37114e-08 3.04492 1103.27)" fill="#DCE9B9"/>
<rect opacity="0.5" x="3.04492" y="1103.27" width="307.924" height="1368.58" transform="rotate(-90 3.04492 1103.27)" fill="#D9D9D9"/>
<rect x="198.297" y="1215.83" width="32.8223" height="98.3799" transform="rotate(-90 198.297 1215.83)" fill="#D9D9D9"/>
<path d="M39.3887 1474.65L39.3887 1201.75L442.046 1206.81L442.046 1474.65L39.3887 1474.65Z" fill="#D9D9D9"/>
<path d="M570.388 1452.81L561.704 1445.27L542.131 1341.97L542.131 1222.36L727.658 1215.09L826.08 1211.88L912.423 1218.73L920.358 1452.81L758.763 1467.35L570.388 1452.81Z" fill="#D9D9D9"/>
<path d="M914.631 954.285L914.631 892.891L1317.69 888.32L1317.69 954.285L914.631 954.285Z" fill="#DCE9B9"/>
<path d="M909.387 892.262C920.522 892.262 959.787 893.252 986.739 894.296C1000.56 894.832 1026.02 894.579 1043.09 894.565C1081.16 894.532 1095.55 893.251 1104.53 892.486C1114.56 891.632 1147.81 891.226 1176.21 890.334C1184.81 890.064 1192.89 889.219 1214.45 888.877C1255.72 888.648 1285.31 888.67 1291.51 888.967C1295.63 889.118 1301.72 889.269 1308 889.425" stroke="black" stroke-width="6" stroke-linecap="round"/>
<path d="M3.04492 795.35L1327.59 795.35" stroke="black" stroke-width="6" stroke-linecap="round"/>
<path d="M2.03516 1103.27L5.94584e+06 1102.55" stroke="black" stroke-width="6" stroke-linecap="round"/>
<path d="M107.635 1023.04C115.386 1023.04 134.181 1023.66 144.514 1024.08C148.749 1024.38 152.637 1024.84 156.671 1025.29C158.669 1025.49 160.57 1025.63 162.529 1025.78" stroke="#F7B500" stroke-width="6" stroke-linecap="round"/>
<path d="M9.59375 1023.04C17.3465 1023.04 36.1461 1023.66 46.4814 1024.08C50.7175 1024.38 54.6065 1024.84 58.6407 1025.29C60.6398 1025.49 62.5413 1025.63 64.5004 1025.78" stroke="#F7B500" stroke-width="6" stroke-linecap="round"/>
<path d="M217.24 1023.06L283.692 1023.06" stroke="#F7B500" stroke-width="6" stroke-linecap="round"/>
<path d="M348.928 1022.03L413.606 1022.03" stroke="#F7B500" stroke-width="6" stroke-linecap="round"/>
<path d="M492.764 1020.33C492.819 1020.33 492.874 1020.33 503.489 1020.33C514.105 1020.33 535.28 1020.33 557.424 1019.83" stroke="#F7B500" stroke-width="6" stroke-linecap="round"/>
<path d="M634.387 1020.83C634.501 1020.83 634.615 1020.83 646.324 1020.83C658.034 1020.83 681.336 1020.83 706.236 1020.42" stroke="#F7B500" stroke-width="6" stroke-linecap="round"/>
<path d="M774.557 1020.46C774.557 1020.53 774.557 1020.59 785.191 1020.65C795.826 1020.72 817.095 1020.78 839.211 1020.66" stroke="#F7B500" stroke-width="6" stroke-linecap="round"/>
<path d="M908.387 1020.83C908.501 1020.83 908.615 1020.83 920.324 1020.83C932.034 1020.83 955.336 1020.83 980.236 1020.42" stroke="#F7B500" stroke-width="6" stroke-linecap="round"/>
<path d="M597.346 1219.36L597.346 1196.53L656.947 1196.53L660.532 1219.36L597.346 1219.36Z" fill="#D9D9D9"/>
<path d="M779.932 1219.36L783.184 1192.11L859.87 1195.39L859.87 1213.62L779.932 1219.36Z" fill="#D9D9D9"/>
<path d="M1048.56 1020.46C1048.56 1020.53 1048.56 1020.59 1059.19 1020.65C1069.83 1020.72 1091.1 1020.78 1113.21 1020.66" stroke="#F7B500" stroke-width="6" stroke-linecap="round"/>
<path d="M1048.56 1020.46C1048.56 1020.53 1048.56 1020.59 1059.19 1020.65C1069.83 1020.72 1091.1 1020.78 1113.21 1020.66" stroke="#F7B500" stroke-width="6" stroke-linecap="round"/>
<path d="M1160.56 1020.46C1160.56 1020.53 1160.56 1020.59 1171.19 1020.65C1181.83 1020.72 1203.1 1020.78 1225.21 1020.66" stroke="#F7B500" stroke-width="6" stroke-linecap="round"/>
<path d="M1263 1020.46C1263 1020.53 1263 1020.59 1273.63 1020.65C1284.27 1020.72 1305.54 1020.78 1327.65 1020.66" stroke="#F7B500" stroke-width="6" stroke-linecap="round"/>
<path d="M236.504 1203.18C236.331 1203.18 236.158 1203.18 207.608 1203.03C179.058 1202.88 122.136 1202.58 91.681 1202.36C58.9638 1202.03 55.0303 1201.73 51.0654 1201.47C48.7031 1201.38 45.6296 1201.38 42.4629 1201.38" stroke="black" stroke-width="6" stroke-linecap="round"/>
<path d="M38.8926 1474.07L38.8926 1204.79" stroke="black" stroke-width="6" stroke-linecap="round"/>
<path d="M40.8145 1475.64C41.4201 1475.64 42.0257 1475.64 68.6087 1475.76C95.1917 1475.89 147.734 1476.14 195.791 1476.89C243.849 1477.64 285.83 1478.87 314.959 1478.46C344.087 1478.04 359.09 1475.93 369.278 1474.71C393.016 1471.88 407.691 1472.31 434.366 1470.02C439.638 1469.57 441.042 1469.07 442.057 1467.93C446.863 1462.53 444.417 1453.71 444.44 1427.13C444.462 1402.41 443.795 1354.9 443.207 1327.99C442.513 1296.2 441.079 1289.22 440.805 1280.33C439.792 1247.58 439.542 1237.23 438.271 1228.97C437.15 1221.7 429.698 1215.47 426.354 1208.95C425.577 1207.44 423.949 1206.69 396.243 1205.88C368.538 1205.07 314.553 1204.46 285.77 1203.93C251.518 1201.86 240.107 1203.55 234.723 1203.2" stroke="black" stroke-width="6" stroke-linecap="round"/>
<path d="M541.756 1218.95C541.756 1219.01 541.756 1213.07 541.792 1230.11C541.828 1247.14 541.899 1281.16 542.151 1299.81C542.403 1318.47 542.833 1320.75 545.014 1335.68C547.194 1350.62 551.113 1378.15 553.918 1395.69C559.332 1429.56 560.67 1439.62 561.296 1448.04C561.54 1451.31 563.175 1452.31 564.715 1452.85C566.256 1453.4 568.048 1453.4 583.954 1455.32C599.86 1457.24 629.826 1461.08 663.479 1463.02C697.133 1464.96 733.565 1464.88 770.747 1464.21C807.928 1463.55 844.755 1462.3 865.308 1461.41C897.544 1460.02 912.965 1453.16 919.556 1449.58C920.903 1448.85 921.657 1447.28 922.301 1445.82C922.946 1444.35 923.286 1442.75 922.799 1417.14C922.313 1391.53 920.991 1341.97 919.505 1308.09C917.284 1257.45 914.749 1238.31 914.665 1233.65C914.556 1227.67 913.643 1222.35 911.984 1219.14C910.452 1216.17 902.321 1214.85 876.947 1211.99C857.156 1209.77 823.002 1210.69 769.863 1213.29C716.725 1215.88 663.553 1217.33 626.138 1219.98C584.019 1221.59 578.213 1219.94 573.778 1218.5C571.782 1217.92 547.169 1220.28 541.756 1218.95Z" stroke="black" stroke-width="6" stroke-linecap="round"/>
<path d="M115.686 1188.57C115.686 1188.37 115.686 1180.65 115.729 1168.6C115.772 1164.16 115.859 1163.11 115.948 1159.3C116.037 1155.5 116.126 1148.98 116.218 1142.26" stroke="black" stroke-width="6" stroke-linecap="round"/>
<path d="M138.942 1149.79L117.742 1170.11H104.934L95.6587 1149.79L88.5918 1113.14L95.6587 1077.36L117.742 1072.06L138.942 1088.84L146.451 1120.2L138.942 1149.79Z" fill="#9ECB75"/>
<path d="M104.13 1166C106.913 1167.92 110.259 1168.52 111.456 1168.52C112.03 1168.23 122.526 1167.38 123.08 1167.09C123.634 1166.8 124.167 1166.52 124.755 1166.13C127.115 1164.43 129.336 1163.02 131.254 1160.86C134.004 1157.77 135.501 1154.75 137.707 1150.28C140.466 1144.69 144.288 1137.49 144.633 1130.12C145.068 1120.83 145.158 1107.67 144.057 1103.74C142.366 1097.71 141.147 1093.2 138.572 1089.12C136.904 1086.48 133.731 1083.87 129.39 1079.98C126.803 1077.67 124.521 1075.76 121.183 1075.05L121.127 1075.04C117.584 1074.29 108.237 1072.32 102.065 1075.04C100.485 1075.74 98.9451 1076.52 97.6494 1078.75C93.771 1085.44 91.868 1088.2 89.0769 1101.55C88.3368 1105.09 87.5173 1112.57 88.6908 1123.49C89.443 1130.48 90.2797 1134.1 91.6466 1138.77C94.4017 1148.19 96.3535 1154.73 96.983 1155.95C98.5156 1158.92 100.494 1163.48 104.13 1166Z" stroke="black" stroke-width="6" stroke-linecap="round"/>
<path d="M1098.29 1191.71C1098.29 1191.51 1098.29 1183.8 1098.33 1171.75C1098.38 1167.3 1098.46 1166.25 1098.55 1162.45C1098.64 1158.64 1098.73 1152.12 1098.82 1145.4" stroke="black" stroke-width="6" stroke-linecap="round"/>
<path d="M1121.54 1152.93L1100.34 1173.25H1087.54L1078.26 1152.93L1071.19 1116.28L1078.26 1080.5L1100.34 1075.2L1121.54 1091.99L1129.05 1123.34L1121.54 1152.93Z" fill="#9ECB75"/>
<path d="M1086.73 1169.14C1089.52 1171.06 1092.86 1171.66 1094.06 1171.66C1094.63 1171.37 1105.13 1170.52 1105.68 1170.23C1106.24 1169.94 1106.77 1169.66 1107.36 1169.27C1109.72 1167.58 1111.94 1166.16 1113.86 1164C1116.61 1160.91 1118.1 1157.89 1120.31 1153.42C1123.07 1147.83 1126.89 1140.63 1127.24 1133.26C1127.67 1123.97 1127.76 1110.81 1126.66 1106.88C1124.97 1100.85 1123.75 1096.34 1121.18 1092.26C1119.51 1089.62 1116.33 1087.01 1111.99 1083.12C1109.41 1080.81 1107.12 1078.9 1103.79 1078.19L1103.73 1078.18C1100.19 1077.43 1090.84 1075.46 1084.67 1078.18C1083.09 1078.88 1081.55 1079.66 1080.25 1081.9C1076.37 1088.58 1074.47 1091.34 1071.68 1104.69C1070.94 1108.23 1070.12 1115.71 1071.29 1126.63C1072.05 1133.62 1072.88 1137.24 1074.25 1141.91C1077.01 1151.33 1078.96 1157.87 1079.59 1159.09C1081.12 1162.06 1083.1 1166.62 1086.73 1169.14Z" stroke="black" stroke-width="6" stroke-linecap="round"/>
<path d="M993.133 940.704C993.133 940.501 993.133 932.79 993.176 920.739C993.219 916.294 993.306 915.242 993.395 911.439C993.484 907.636 993.573 901.115 993.665 894.396" stroke="black" stroke-width="6" stroke-linecap="round"/>
<path d="M1016.39 901.927L995.189 922.244H982.381L973.106 901.927L966.039 865.268L973.106 829.493L995.189 824.193L1016.39 840.977L1023.9 872.335L1016.39 901.927Z" fill="#9ECB75"/>
<path d="M981.577 918.128C984.36 920.054 987.706 920.652 988.904 920.652C989.478 920.359 999.974 919.516 1000.53 919.226C1001.08 918.936 1001.61 918.649 1002.2 918.262C1004.56 916.568 1006.78 915.156 1008.7 912.996C1011.45 909.9 1012.95 906.883 1015.15 902.412C1017.91 896.821 1021.74 889.626 1022.08 882.251C1022.52 872.959 1022.61 859.805 1021.5 855.875C1019.81 849.843 1018.59 845.335 1016.02 841.257C1014.35 838.616 1011.18 836 1006.84 832.114C1004.25 829.799 1001.97 827.888 998.63 827.184L998.574 827.172C995.031 826.424 985.685 824.452 979.512 827.172C977.933 827.868 976.392 828.654 975.097 830.888C971.218 837.575 969.315 840.333 966.524 853.682C965.784 857.222 964.965 864.703 966.138 875.619C966.89 882.616 967.727 886.231 969.094 890.903C971.849 900.321 973.801 906.863 974.43 908.083C975.963 911.054 977.941 915.613 981.577 918.128Z" stroke="black" stroke-width="6" stroke-linecap="round"/>
<path d="M1141.82 930.544C1141.82 930.341 1141.82 922.63 1141.87 910.578C1141.91 906.134 1142 905.082 1142.08 901.279C1142.17 897.476 1142.26 890.955 1142.35 884.236" stroke="black" stroke-width="6" stroke-linecap="round"/>
<path d="M1165.08 891.767L1143.88 912.084H1131.07L1121.79 891.767L1114.73 855.108L1121.79 819.333L1143.88 814.033L1165.08 830.817L1172.59 862.175L1165.08 891.767Z" fill="#9ECB75"/>
<path d="M1130.26 907.97C1133.05 909.896 1136.39 910.494 1137.59 910.494C1138.17 910.201 1148.66 909.358 1149.21 909.068C1149.77 908.778 1150.3 908.491 1150.89 908.103C1153.25 906.409 1155.47 904.998 1157.39 902.838C1160.14 899.742 1161.64 896.724 1163.84 892.254C1166.6 886.663 1170.42 879.468 1170.77 872.093C1171.2 862.801 1171.29 849.647 1170.19 845.717C1168.5 839.684 1167.28 835.177 1164.71 831.099C1163.04 828.457 1159.87 825.841 1155.52 821.956C1152.94 819.64 1150.66 817.73 1147.32 817.026L1147.26 817.014C1143.72 816.266 1134.37 814.294 1128.2 817.014C1126.62 817.71 1125.08 818.496 1123.78 820.73C1119.91 827.417 1118 830.175 1115.21 843.524C1114.47 847.063 1113.65 854.545 1114.83 865.461C1115.58 872.458 1116.41 876.073 1117.78 880.745C1120.54 890.163 1122.49 896.704 1123.12 897.925C1124.65 900.896 1126.63 905.454 1130.26 907.97Z" stroke="black" stroke-width="6" stroke-linecap="round"/>
<path d="M697.146 1203.87C697.146 1203.66 697.146 1195.95 697.19 1183.9C697.233 1179.46 697.32 1178.41 697.409 1174.6C697.498 1170.8 697.587 1164.28 697.679 1157.56" stroke="black" stroke-width="6" stroke-linecap="round"/>
<path d="M720.401 1165.09L699.201 1185.41H686.393L677.118 1165.09L670.051 1128.43L677.118 1092.66L699.201 1087.36L720.401 1104.14L727.91 1135.5L720.401 1165.09Z" fill="#9ECB75"/>
<path d="M685.589 1181.29C688.372 1183.22 691.718 1183.82 692.915 1183.82C693.489 1183.52 703.985 1182.68 704.539 1182.39C705.093 1182.1 705.626 1181.81 706.214 1181.43C708.574 1179.73 710.795 1178.32 712.713 1176.16C715.463 1173.06 716.96 1170.05 719.166 1165.58C721.925 1159.99 725.747 1152.79 726.092 1145.42C726.527 1136.12 726.617 1122.97 725.516 1119.04C723.825 1113.01 722.606 1108.5 720.031 1104.42C718.363 1101.78 715.189 1099.16 710.849 1095.28C708.262 1092.96 705.98 1091.05 702.642 1090.35L702.586 1090.34C699.043 1089.59 689.696 1087.62 683.524 1090.34C681.944 1091.03 680.404 1091.82 679.108 1094.05C675.23 1100.74 673.327 1103.5 670.536 1116.85C669.796 1120.39 668.976 1127.87 670.15 1138.78C670.902 1145.78 671.739 1149.39 673.106 1154.07C675.861 1163.49 677.813 1170.03 678.442 1171.25C679.975 1174.22 681.953 1178.78 685.589 1181.29Z" stroke="black" stroke-width="6" stroke-linecap="round"/>
<path d="M358.939 1189.16C358.939 1188.95 358.939 1181.24 358.983 1169.19C359.026 1164.75 359.113 1163.69 359.202 1159.89C359.291 1156.09 359.38 1149.57 359.471 1142.85" stroke="black" stroke-width="6" stroke-linecap="round"/>
<path d="M382.196 1150.38L360.996 1170.7H348.188L338.913 1150.38L331.846 1113.72L338.913 1077.95L360.996 1072.65L382.196 1089.43L389.705 1120.79L382.196 1150.38Z" fill="#9ECB75"/>
<path d="M347.382 1166.58C350.165 1168.51 353.511 1169.11 354.708 1169.11C355.282 1168.81 365.778 1167.97 366.332 1167.68C366.886 1167.39 367.419 1167.1 368.007 1166.72C370.367 1165.02 372.588 1163.61 374.506 1161.45C377.256 1158.36 378.753 1155.34 380.959 1150.87C383.718 1145.28 387.54 1138.08 387.885 1130.71C388.32 1121.41 388.41 1108.26 387.309 1104.33C385.618 1098.3 384.399 1093.79 381.824 1089.71C380.156 1087.07 376.982 1084.45 372.641 1080.57C370.055 1078.25 367.773 1076.34 364.435 1075.64L364.379 1075.63C360.836 1074.88 351.489 1072.91 345.317 1075.63C343.737 1076.32 342.197 1077.11 340.901 1079.34C337.023 1086.03 335.12 1088.79 332.329 1102.14C331.589 1105.68 330.769 1113.16 331.943 1124.07C332.695 1131.07 333.532 1134.69 334.899 1139.36C337.654 1148.78 339.605 1155.32 340.235 1156.54C341.768 1159.51 343.746 1164.07 347.382 1166.58Z" stroke="black" stroke-width="6" stroke-linecap="round"/>
<path d="M997.033 1232.12V1219.13L1004.57 1211L1107.87 1203.87L1237.97 1213.83L1229.16 1390.11V1473.24V1444.23H982.486V1420.5L997.033 1232.12Z" fill="#D9D9D9"/>
<path d="M1020.61 1242.13L1056.92 1238.94V1276.47H1016.93L1020.61 1242.13Z" fill="#F7B500"/>
<path opacity="0.5" d="M1020.61 1384.76L1056.92 1381.57V1419.1H1016.93L1020.61 1384.76Z" fill="#1E1E1E"/>
<path opacity="0.5" d="M1014.97 1310.94L1056.92 1307.41V1347.43H1014.97V1310.94Z" fill="#1E1E1E"/>
<path opacity="0.5" d="M1175.16 1244.13L1211.47 1240.94V1278.47H1171.48L1175.16 1244.13Z" fill="#1E1E1E"/>
<path opacity="0.5" d="M1097.77 1238.94H1137.76V1276.47H1097.77V1238.94Z" fill="#1E1E1E"/>
<path opacity="0.5" d="M1133.13 1307.35H1093.14V1344.88H1133.13V1307.35Z" fill="#1E1E1E"/>
<path opacity="0.5" d="M1133.13 1379.43H1093.14V1416.97H1133.13V1379.43Z" fill="#1E1E1E"/>
<path opacity="0.5" d="M1211.1 1379.43H1171.12V1416.97H1211.1V1379.43Z" fill="#1E1E1E"/>
<path d="M1211.1 1304.05H1171.12L1167.42 1324.73L1171.12 1341.59H1211.1V1304.05Z" fill="#F7B500"/>
<path d="M986.186 1436.85C986.186 1436.64 986.186 1436.44 986.186 1423.93C986.186 1411.43 986.186 1386.63 987.946 1353.85C989.706 1321.08 993.226 1281.08 995.117 1257.65C997.464 1228.58 997.497 1221.47 998.03 1218.99C998.556 1216.55 1000.55 1214.66 1002.84 1213.11C1007.74 1209.78 1015.51 1209.72 1027.68 1208.42C1031.86 1207.97 1037.16 1206.91 1057.73 1207.23C1078.3 1207.55 1113.96 1209.15 1136.96 1210.66C1159.96 1212.18 1169.22 1213.58 1177.6 1214.3C1193.14 1215.64 1209.53 1214.31 1224.08 1212.95C1231.82 1212.22 1235.54 1211.08 1238.29 1212.95C1240.08 1214.17 1239.81 1218.6 1240.01 1229.23C1240.21 1239.86 1240.15 1257.25 1238.28 1278.69C1236.4 1300.13 1232.71 1325.1 1230.81 1345.81C1228.91 1366.52 1228.91 1382.22 1228.84 1390.95C1228.77 1399.69 1228.63 1400.98 1228.55 1408.32C1228.48 1415.66 1228.48 1429.01 1228.48 1442.76" stroke="black" stroke-width="6" stroke-linecap="round"/>
<path d="M1054.75 1237.54C1047.23 1237.58 1029.34 1238.81 1026.05 1240.31C1024.73 1240.91 1023.03 1240.85 1021.56 1241.32C1018.5 1242.3 1018.02 1259.07 1016.67 1271.16C1016.5 1272.74 1016.46 1273.78 1016.38 1275.07C1016.31 1276.36 1016.27 1277.87 1023.17 1278.71C1030.07 1279.55 1043.91 1279.68 1051.05 1278.62C1058.2 1277.55 1058.23 1275.3 1058.45 1273.42C1059.63 1267.64 1059.9 1256.69 1059.34 1243.18C1058.77 1238.58 1057.6 1238.55 1056.41 1238.52" stroke="black" stroke-width="6" stroke-linecap="round"/>
<path d="M1129.89 1304.05C1122.37 1304.09 1104.48 1305.32 1101.2 1306.81C1099.87 1307.42 1098.17 1307.36 1096.7 1307.83C1093.65 1308.81 1093.16 1325.58 1091.82 1337.66C1091.64 1339.24 1091.6 1340.29 1091.52 1341.58C1091.45 1342.87 1091.42 1344.38 1098.32 1345.22C1105.22 1346.06 1119.05 1346.18 1126.2 1345.12C1133.34 1344.06 1133.37 1341.8 1133.59 1339.93C1134.77 1334.15 1135.04 1323.2 1134.48 1309.69C1133.91 1305.08 1132.75 1305.06 1131.55 1305.03" stroke="black" stroke-width="6" stroke-linecap="round"/>
<path d="M1095.71 1240.41C1095.71 1240.45 1095.71 1247.77 1095.58 1260.73C1095.48 1270.23 1094.88 1275.52 1097.25 1277.59C1102.76 1282.37 1110.31 1278.47 1115.1 1278.61C1126.22 1278.93 1134.28 1278.54 1135.68 1278.28C1136.38 1278.16 1137.03 1278 1137.37 1277.18C1140.31 1269.99 1139.24 1254.7 1139.92 1247.3C1140.08 1245.51 1140.48 1243.12 1138.98 1240.25C1134.49 1238.53 1125.04 1237.82 1112.92 1237.57C1107.16 1237.46 1102.2 1237.38 1096.03 1237.65" stroke="black" stroke-width="6" stroke-linecap="round"/>
<path d="M1015.24 1310.34C1015.24 1310.39 1015.24 1317.71 1015.11 1330.67C1015.01 1340.17 1014.41 1345.46 1016.78 1347.53C1022.29 1352.31 1029.84 1348.41 1034.63 1348.55C1045.75 1348.87 1053.81 1348.48 1055.21 1348.22C1055.9 1348.1 1056.56 1347.94 1056.9 1347.12C1059.84 1339.93 1058.77 1324.64 1059.45 1317.24C1059.61 1315.45 1060 1313.06 1058.51 1310.19C1054.02 1308.47 1044.57 1307.76 1032.45 1307.51C1026.69 1307.4 1021.73 1307.32 1015.56 1307.59" stroke="black" stroke-width="6" stroke-linecap="round"/>
<path d="M1173.31 1241.1C1173.31 1241.2 1173.31 1253.51 1173.58 1272.35C1173.67 1278.92 1174.38 1279.41 1175.32 1279.66C1183.76 1281.83 1199.64 1277.61 1204.68 1277.32C1206.5 1277.22 1208.28 1277.15 1210.17 1276.91C1211.27 1276.77 1212.68 1276.73 1213.37 1272.12C1215.41 1258.52 1213.78 1248.26 1213.25 1246.97C1212.1 1244.21 1208.97 1242.93 1203.74 1239.83C1196.62 1238.89 1183.17 1239.86 1177.74 1240.52C1176.41 1240.56 1174.53 1240.56 1172.59 1240.56" stroke="black" stroke-width="6" stroke-linecap="round"/>
<path d="M1175.99 1378.02C1183.51 1378.06 1201.39 1379.29 1204.68 1380.79C1206.01 1381.39 1207.71 1381.33 1209.17 1381.8C1212.23 1382.78 1212.72 1399.55 1214.06 1411.64C1214.24 1413.22 1214.28 1414.26 1214.35 1415.55C1214.43 1416.84 1214.46 1418.35 1207.56 1419.19C1200.66 1420.03 1186.82 1420.16 1179.68 1419.09C1172.54 1418.03 1172.51 1415.78 1172.29 1413.9C1171.11 1408.12 1170.84 1397.17 1171.39 1383.66C1171.97 1379.06 1173.13 1379.03 1174.33 1379" stroke="black" stroke-width="6" stroke-linecap="round"/>
<path d="M1135.03 1380.88C1135.03 1380.93 1135.03 1388.25 1135.16 1401.21C1135.26 1410.71 1135.86 1416 1133.48 1418.07C1127.98 1422.85 1120.43 1418.95 1115.63 1419.09C1104.52 1419.41 1096.45 1419.02 1095.05 1418.76C1094.36 1418.64 1093.71 1418.48 1093.37 1417.66C1090.42 1410.47 1091.5 1395.18 1090.82 1387.78C1090.65 1385.99 1090.26 1383.6 1091.76 1380.73C1096.25 1379.01 1105.7 1378.29 1117.82 1378.05C1123.58 1377.93 1128.53 1377.86 1134.71 1378.13" stroke="black" stroke-width="6" stroke-linecap="round"/>
<path d="M1057.42 1381.58C1057.42 1381.68 1057.42 1393.99 1057.16 1412.83C1057.06 1419.4 1056.35 1419.89 1055.41 1420.14C1046.97 1422.31 1031.1 1418.09 1026.05 1417.8C1024.24 1417.7 1022.46 1417.63 1020.57 1417.39C1019.46 1417.25 1018.06 1417.21 1017.37 1412.6C1015.33 1399 1016.95 1388.74 1017.49 1387.45C1018.63 1384.69 1021.76 1383.41 1026.99 1380.31C1034.11 1379.37 1047.56 1380.35 1053 1381C1054.32 1381.04 1056.21 1381.04 1058.15 1381.04" stroke="black" stroke-width="6" stroke-linecap="round"/>
<path d="M1207.71 1305.71C1207.71 1305.81 1207.71 1318.12 1207.44 1336.95C1207.35 1343.53 1206.64 1344.02 1205.7 1344.26C1197.26 1346.43 1181.38 1342.21 1176.34 1341.93C1174.52 1341.82 1172.74 1341.75 1170.85 1341.51C1169.75 1341.37 1168.34 1341.34 1167.65 1336.73C1165.61 1323.13 1167.24 1312.87 1167.77 1311.57C1168.92 1308.82 1172.05 1307.54 1177.28 1304.44C1184.4 1303.5 1197.85 1304.47 1203.28 1305.13C1204.61 1305.17 1206.49 1305.17 1208.43 1305.17" stroke="black" stroke-width="6" stroke-linecap="round"/>
<path d="M649.278 1491.94C649.171 1491.94 644.064 1491.94 636.973 1492.89C629.735 1493.87 640.331 1506.34 639.751 1508.42C637.167 1517.72 617.406 1505.6 611.487 1504.76C603.423 1503.62 611.675 1525.55 611.312 1533.22C610.668 1546.78 570.001 1528.67 556.788 1529.22C552.107 1529.41 551.702 1531.27 551.804 1532.63C554.444 1538.06 558.302 1543.48 561.907 1552.5C562.58 1554.71 562.797 1556.29 563.02 1558.68" stroke="#FF182B" stroke-width="6" stroke-linecap="round"/>
<path d="M773.117 1504.33C772.994 1504.33 766.214 1504.33 756.076 1505.28C752.541 1505.61 752.738 1508.14 753.587 1510.84C754.436 1513.54 756.051 1516.98 756.518 1519.45C759.502 1535.25 712.369 1526.29 712.904 1530.35C714.439 1541.97 725.347 1557.65 725.814 1565.04C726.409 1574.46 709.654 1569.61 701.353 1577.1C699.563 1578.92 698.521 1580.12 696.957 1582.19C695.393 1584.26 693.34 1587.15 691.033 1590.32" stroke="#FF182B" stroke-width="6" stroke-linecap="round"/>
<path d="M902.374 1544.89C902.489 1544.89 897.271 1544.89 889.723 1543.87C886.404 1543.42 891.13 1536.32 893.893 1528.83C894.821 1526.32 894.41 1522.75 893.713 1520.9C890.715 1512.97 875.239 1513.59 866.695 1506.95C864.732 1505.42 863.546 1504.61 863.395 1503.57C866.202 1497.29 868.651 1490.16 869.048 1486.35C869.187 1484.18 869.2 1481.54 869.37 1478.64" stroke="#FF182B" stroke-width="6" stroke-linecap="round"/>
<path d="M248.582 1504.09C247.937 1504.09 237.705 1504.09 222.756 1504.89C217.652 1505.17 217.814 1507.31 218.671 1509.6C219.527 1511.88 221.13 1514.8 221.344 1516.81C222.447 1527.18 198.708 1530.58 194.204 1534.88C193.137 1537.7 193.473 1540.68 194.601 1543.58C195.052 1545.06 195.26 1546.56 194.245 1551.16" stroke="#FF182B" stroke-width="6" stroke-linecap="round"/>
<path d="M51.1507 1181.63C50.664 1181.51 42.936 1179.6 31.7969 1176.21C27.9934 1175.05 28.5156 1173.46 29.5884 1171.89C30.6612 1170.32 32.415 1168.43 32.952 1166.94C35.7194 1159.32 18.4237 1152.32 15.8235 1148.24C15.543 1145.91 16.3541 1143.72 17.7458 1141.74C18.3629 1140.71 18.7992 1139.61 18.8908 1135.95" stroke="#FF182B" stroke-width="6" stroke-linecap="round"/>
<path d="M90.0859 1501.08C89.9748 1501.08 85.1793 1501.08 78.2685 1501.91C75.9599 1502.19 76.633 1504.4 77.653 1506.26C78.6731 1508.12 80.1599 1510.13 80.338 1511.7C80.5161 1513.26 79.3403 1514.33 77.0764 1514.63C71.5426 1515.37 61.9192 1513.94 53.0407 1514.8C49.9165 1515.1 54.8128 1523.68 58.3607 1534.3C59.2529 1536.97 58.9226 1539.79 57.512 1541.22C48.8971 1549.96 34.2993 1543.23 32.5328 1545.44C31.8681 1546.72 31.6736 1548.35 31.3541 1549.87C31.0345 1551.39 30.5957 1552.76 29.7676 1554.17" stroke="#FF182B" stroke-width="6" stroke-linecap="round"/>
<path d="M480.352 1176.43C480.29 1176.43 477.636 1176.43 473.81 1177.17C472.533 1177.42 472.905 1179.38 473.47 1181.04C474.034 1182.69 474.857 1184.48 474.956 1185.87C475.055 1187.27 474.404 1188.21 473.151 1188.48C470.088 1189.14 464.761 1187.87 459.847 1188.63C458.117 1188.9 460.828 1196.54 462.791 1205.99C463.285 1208.36 463.102 1210.87 462.322 1212.14C457.553 1219.92 449.473 1213.93 448.495 1215.9C448.127 1217.04 448.02 1218.49 447.843 1219.84C447.666 1221.2 447.423 1222.41 446.965 1223.67" stroke="#FF182B" stroke-width="6" stroke-linecap="round"/>
<path d="M368.619 1501.08C368.73 1501.08 373.526 1501.08 380.437 1501.91C382.745 1502.19 382.072 1504.4 381.052 1506.26C380.032 1508.12 378.545 1510.13 378.367 1511.7C378.189 1513.26 379.365 1514.33 381.629 1514.63C387.162 1515.37 396.786 1513.94 405.664 1514.8C408.789 1515.1 403.892 1523.68 400.344 1534.3C399.452 1536.97 399.782 1539.79 401.193 1541.22C409.808 1549.96 424.406 1543.23 426.172 1545.44C426.837 1546.72 427.031 1548.35 427.351 1549.87C427.671 1551.39 428.109 1552.76 428.938 1554.17" stroke="#FF182B" stroke-width="6" stroke-linecap="round"/>
<path d="M577.095 907.449C576.415 909.536 582.893 952.178 582.893 952.342L909.798 952.342L912.553 895.756C911.888 894.736 911.243 893.746 909.798 893.251C906.248 892.766 902.736 892.864 897.056 893.024L896.687 893.034C884.685 893.089 875.755 893.338 831.578 893.447C788.818 893.552 707.172 893.018 663.853 894.055C615.626 895.21 607.274 896.361 601.311 897.391C592.494 898.916 579.099 901.294 577.095 907.449Z" fill="#B88659" stroke="black" stroke-width="6" stroke-linecap="round"/>
<path d="M603.303 936.998C605.162 937.435 610.446 938.458 614.57 938.171C616.072 938.066 615.997 935.663 616.157 933.971C616.368 931.727 615.831 929.745 614.902 928.453C612.955 925.746 609.475 925.488 606.937 925.665C605.132 927.664 603.679 930.019 603.011 932.83C602.92 933.62 602.914 934.509 602.908 935.425" stroke="black" stroke-width="6" stroke-linecap="round"/>
<path d="M617.467 927.508C617.928 927.181 619.648 925.596 621.915 923.772C622.689 923.157 623.323 922.658 623.984 922.163C624.314 921.919 624.631 921.687 625.102 921.349" stroke="black" stroke-width="6" stroke-linecap="round"/>
<path d="M625.104 921.35C622.463 921.264 614.495 920.438 611.393 919.386C609.564 918.476 608.348 917.668 607.713 917.188C607.386 916.942 607.049 916.69 606.646 916.231" stroke="black" stroke-width="6" stroke-linecap="round"/>
<path d="M625.686 921.519C625.686 921.533 625.686 921.548 625.686 924.03C625.686 926.511 625.686 931.461 625.778 936.744" stroke="black" stroke-width="6" stroke-linecap="round"/>
<rect x="3.04492" y="954.287" width="36.3789" height="339.541" transform="rotate(-90 3.04492 954.287)" fill="#DCE9B9"/>
<path d="M625.986 921.76C626.05 921.371 626.779 919.086 628.033 917.064C629.063 915.839 630.48 914.384 631.888 913.103C632.503 912.563 632.916 912.246 633.594 911.74" stroke="black" stroke-width="6" stroke-linecap="round"/>
<path d="M633.953 912.062L646.194 912.062" stroke="black" stroke-width="6" stroke-linecap="round"/>
<path d="M631.96 911.43C631.96 911.313 631.96 908.489 631.938 904.113C631.872 902.123 631.826 900.712 631.847 898.968C631.868 898.246 631.911 897.857 632.071 896.53" stroke="black" stroke-width="6" stroke-linecap="round"/>
<path d="M733.778 931.034C733.994 931.434 735.381 932.861 737.909 934.651C738.857 935.322 740.074 935.672 741.431 935.993C744.06 936.613 747.26 934.395 748.856 932.953C749.83 932.073 750.384 930.416 750.756 928.783C751.342 926.212 748.537 924.054 746.693 922.529C743.941 920.254 741.036 921.856 739.082 922.634C737.626 923.693 736.324 925.188 735.183 926.851C734.714 927.66 734.468 928.398 733.537 929.772" stroke="black" stroke-width="6" stroke-linecap="round"/>
<path d="M735.034 925.103C732.521 924.297 726.382 922.07 724.344 920.323C723.905 919.853 723.556 919.405 723.216 918.968C722.875 918.531 722.554 918.119 722.148 917.555" stroke="black" stroke-width="6" stroke-linecap="round"/>
<path d="M722.149 917.555C722.123 917.637 721.675 919.034 721.021 921.465C720.809 923.294 720.87 925.193 721.058 927.278C721.194 928.239 721.412 929.005 721.731 930.257" stroke="black" stroke-width="6" stroke-linecap="round"/>
<path d="M722.145 917.338C722.476 916.557 724.463 914.468 729.18 912.023C730.118 911.504 730.428 911.22 730.947 910.617C731.467 910.013 732.186 909.1 733.137 907.83" stroke="black" stroke-width="6" stroke-linecap="round"/>
<path d="M720.214 917.401C720.201 917.397 720.187 917.392 719.541 917.201C718.896 917.009 717.618 916.631 715.215 914.934C712.811 913.237 709.321 910.234 705.725 907.139" stroke="black" stroke-width="6" stroke-linecap="round"/>
<path d="M705.585 906.87C705.558 906.862 704.442 906.57 701.385 906.14C696.653 906.004 693.395 906.034 692.566 906.048C692.135 906.041 691.683 906.004 690.807 905.834" stroke="black" stroke-width="6" stroke-linecap="round"/>
<path d="M704.996 903.691C705.05 903.524 705.016 902.593 704.767 901.022C704.579 900.296 704.268 899.713 703.733 898.934C703.199 898.154 702.451 897.194 701.003 894.605" stroke="black" stroke-width="6" stroke-linecap="round"/>
<path d="M814.516 934.12C814.382 934.554 813.303 936.226 811.175 938.477C810.377 939.322 809.253 939.904 807.985 940.485C805.53 941.61 801.956 940.063 800.108 938.962C798.98 938.291 798.111 936.775 797.426 935.247C796.347 932.841 798.673 930.174 800.182 928.317C802.433 925.546 805.597 926.546 807.666 926.925C809.301 927.677 810.871 928.888 812.317 930.294C812.936 930.996 813.321 931.671 814.504 932.835" stroke="black" stroke-width="6" stroke-linecap="round"/>
<path d="M812.12 928.551C814.425 927.268 820.007 923.878 821.663 921.765C822 921.217 822.255 920.71 822.503 920.214C822.751 919.719 822.985 919.252 823.273 918.619" stroke="black" stroke-width="6" stroke-linecap="round"/>
<path d="M823.273 918.62C823.314 918.695 824.028 919.977 825.147 922.232C825.713 923.984 826.027 925.858 826.252 927.939C826.307 928.909 826.244 929.702 826.177 930.993" stroke="black" stroke-width="6" stroke-linecap="round"/>
<path d="M823.232 918.406C822.754 917.706 820.395 916.047 815.29 914.576C814.268 914.252 813.909 914.034 813.281 913.545C812.653 913.055 811.768 912.301 810.587 911.243" stroke="black" stroke-width="6" stroke-linecap="round"/>
<path d="M825.138 918.091C825.151 918.084 825.163 918.077 825.759 917.763C826.354 917.448 827.533 916.826 829.556 914.69C831.579 912.555 834.412 908.924 837.331 905.184" stroke="black" stroke-width="6" stroke-linecap="round"/>
<path d="M837.412 904.891C837.437 904.877 838.474 904.373 841.387 903.35C846 902.288 849.201 901.677 850.017 901.528C850.438 901.436 850.874 901.311 851.699 900.973" stroke="black" stroke-width="6" stroke-linecap="round"/>
<path d="M837.365 901.659C837.28 901.506 837.131 900.586 837.067 898.997C837.108 898.248 837.299 897.616 837.67 896.746C838.041 895.877 838.585 894.789 839.497 891.966" stroke="black" stroke-width="6" stroke-linecap="round"/>
<path d="M130.447 986.795C131.139 986.135 133.821 984.441 136.956 984.153C140.689 983.811 143.003 986.084 146.511 989.823C147.727 991.12 147.254 992.769 147.047 994.043C146.622 996.645 142.792 1000.39 139.745 1002.59C138.755 1003.31 137.32 1002.8 136.035 1002.54C131.403 1001.62 127.922 994.961 127.277 991.947C127.201 991.205 127.211 990.511 127.341 989.873C127.47 989.235 127.719 988.674 128.713 986.934" stroke="black" stroke-width="6" stroke-linecap="round"/>
<path d="M137.042 992.649C136.65 992.048 135.608 989.79 134.788 987.832C134.003 985.956 133.137 983.512 131.881 979.926C131.105 977.709 131.097 975.652 130.875 973.651C130.656 971.665 129.43 969.975 126.248 966.557C125.021 965.715 124.06 965.447 123.075 965.315C122.58 965.288 122.096 965.343 121.435 965.554" stroke="black" stroke-width="6" stroke-linecap="round"/>
<path d="M129.491 974.276C128.933 974.255 126.861 974.506 124.92 974.95C122.582 975.484 119.804 975.104 116.715 975.485C113.769 975.848 111.515 976.119 109.531 976.292C108.421 976.373 107.318 976.44 106.291 976.515C105.774 976.561 105.263 976.626 103.956 976.798" stroke="black" stroke-width="6" stroke-linecap="round"/>
<path d="M100.18 973.006C100.914 973.776 102.829 975.943 108.1 985.494C109.233 987.598 109.519 988.174 109.77 988.747C110.02 989.32 110.225 989.872 110.748 991.119" stroke="black" stroke-width="6" stroke-linecap="round"/>
<path d="M130.763 974.903C128.202 977.342 121.887 983.018 119.123 984.603C116.597 986.354 114.885 987.69 113.178 988.846C112.74 989.135 112.3 989.435 110.908 990.449" stroke="black" stroke-width="6" stroke-linecap="round"/>
<path d="M110.908 990.449C109.379 990.872 105.564 991.961 101.523 992.511C97.9069 993.003 94.7717 994.316 92.5271 995.016C92.0015 995.21 91.5661 995.412 91.1065 995.587C90.647 995.762 90.1765 995.904 89.1925 996.085" stroke="black" stroke-width="6" stroke-linecap="round"/>
<path d="M103.244 975.09C102.473 975.825 100.078 978.632 97.9361 981.645C96.3505 983.875 94.7138 986.444 93.3598 988.562C91.8963 990.918 90.4261 992.995 89.6618 993.779C89.2974 994.182 88.9805 994.596 88.6468 995.106" stroke="black" stroke-width="6" stroke-linecap="round"/>
<path d="M82.164 987.465C82.5312 987.162 85.9568 986.899 89.41 987.735C93.0344 988.613 95.0516 990.736 98.629 994.354C99.7944 995.532 99.3788 997.277 98.9317 998.92C98.0176 1002.28 92.8941 1004.7 89.4379 1005.68C87.0158 1006.37 84.5432 1005.77 82.6629 1004.44C80.0123 1002.57 79.5792 999.373 79.1728 996.435C79.5889 993.687 80.5752 991.812 82.1 989.856C82.515 989.278 82.9386 988.578 83.7844 987.301" stroke="black" stroke-width="6" stroke-linecap="round"/>
<path d="M100.527 972.327C100.499 972.298 99.859 972.49 98.3306 972.925C97.4275 973.153 96.2654 973.394 95.4362 973.586C94.6069 973.778 94.1457 973.914 92.9691 974.018" stroke="black" stroke-width="6" stroke-linecap="round"/>
<path d="M776.462 1060.71C775.645 1059.93 772.482 1057.93 768.783 1057.59C764.38 1057.19 761.65 1059.87 757.513 1064.28C756.078 1065.81 756.635 1067.76 756.88 1069.26C757.381 1072.33 761.9 1076.75 765.493 1079.34C766.661 1080.19 768.354 1079.59 769.87 1079.29C775.333 1078.2 779.44 1070.34 780.201 1066.79C780.291 1065.91 780.279 1065.09 780.126 1064.34C779.973 1063.59 779.679 1062.93 778.507 1060.87" stroke="black" stroke-width="6" stroke-linecap="round"/>
<path d="M768.68 1067.62C769.143 1066.91 770.372 1064.24 771.339 1061.93C772.265 1059.72 773.287 1056.84 774.768 1052.61C775.684 1049.99 775.693 1047.57 775.954 1045.21C776.213 1042.86 777.66 1040.87 781.412 1036.84C782.86 1035.84 783.994 1035.53 785.156 1035.37C785.739 1035.34 786.31 1035.4 787.091 1035.65" stroke="black" stroke-width="6" stroke-linecap="round"/>
<path d="M777.588 1045.94C778.246 1045.92 780.691 1046.22 782.98 1046.74C785.738 1047.37 789.015 1046.92 792.659 1047.37C796.134 1047.8 798.793 1048.12 801.133 1048.32C802.442 1048.42 803.744 1048.5 804.955 1048.59C805.566 1048.64 806.168 1048.72 807.709 1048.92" stroke="black" stroke-width="6" stroke-linecap="round"/>
<path d="M812.164 1044.45C811.298 1045.35 809.039 1047.91 802.821 1059.18C801.485 1061.66 801.147 1062.34 800.852 1063.01C800.556 1063.69 800.314 1064.34 799.698 1065.81" stroke="black" stroke-width="6" stroke-linecap="round"/>
<path d="M776.087 1046.68C779.108 1049.56 786.557 1056.26 789.817 1058.12C792.798 1060.19 794.816 1061.77 796.83 1063.13C797.347 1063.47 797.866 1063.83 799.509 1065.02" stroke="black" stroke-width="6" stroke-linecap="round"/>
<path d="M799.509 1065.02C801.313 1065.52 805.813 1066.8 810.58 1067.45C814.846 1068.03 818.544 1069.58 821.192 1070.41C821.812 1070.64 822.325 1070.87 822.867 1071.08C823.41 1071.29 823.964 1071.46 825.125 1071.67" stroke="black" stroke-width="6" stroke-linecap="round"/>
<path d="M808.551 1046.9C809.461 1047.77 812.286 1051.08 814.812 1054.64C816.683 1057.27 818.613 1060.3 820.21 1062.8C821.937 1065.58 823.671 1068.03 824.573 1068.95C825.002 1069.43 825.376 1069.91 825.77 1070.52" stroke="black" stroke-width="6" stroke-linecap="round"/>
<path d="M833.415 1061.5C832.982 1061.14 828.941 1060.83 824.867 1061.82C820.592 1062.86 818.213 1065.36 813.993 1069.63C812.618 1071.02 813.108 1073.08 813.636 1075.01C814.714 1078.98 820.758 1081.83 824.835 1082.99C827.692 1083.8 830.608 1083.09 832.826 1081.53C835.953 1079.32 836.464 1075.55 836.943 1072.08C836.453 1068.84 835.289 1066.63 833.49 1064.32C833.001 1063.64 832.501 1062.81 831.503 1061.31" stroke="black" stroke-width="6" stroke-linecap="round"/>
<path d="M811.757 1043.64C811.79 1043.61 812.544 1043.84 814.347 1044.35C815.412 1044.62 816.783 1044.9 817.761 1045.13C818.74 1045.36 819.284 1045.52 820.672 1045.64" stroke="black" stroke-width="6" stroke-linecap="round"/>
<path d="M1092.01 984.981C1092.82 984.203 1095.99 982.205 1099.69 981.866C1104.09 981.461 1106.82 984.143 1110.96 988.553C1112.39 990.083 1111.83 992.029 1111.59 993.531C1111.09 996.601 1106.57 1001.02 1102.98 1003.62C1101.81 1004.46 1100.11 1003.86 1098.6 1003.56C1093.14 1002.47 1089.03 994.614 1088.27 991.059C1088.18 990.184 1088.19 989.365 1088.34 988.613C1088.5 987.86 1088.79 987.198 1089.96 985.145" stroke="black" stroke-width="6" stroke-linecap="round"/>
<path d="M1099.79 991.887C1099.33 991.178 1098.1 988.515 1097.13 986.205C1096.2 983.992 1095.18 981.109 1093.7 976.879C1092.79 974.264 1092.78 971.838 1092.51 969.477C1092.26 967.134 1090.81 965.141 1087.06 961.109C1085.61 960.115 1084.47 959.799 1083.31 959.644C1082.73 959.612 1082.16 959.676 1081.38 959.925" stroke="black" stroke-width="6" stroke-linecap="round"/>
<path d="M1090.88 970.214C1090.22 970.188 1087.78 970.485 1085.49 971.008C1082.73 971.639 1079.45 971.19 1075.81 971.64C1072.33 972.068 1069.68 972.388 1067.34 972.592C1066.03 972.687 1064.72 972.767 1063.51 972.855C1062.9 972.91 1062.3 972.986 1060.76 973.189" stroke="black" stroke-width="6" stroke-linecap="round"/>
<path d="M1056.3 968.715C1057.17 969.623 1059.43 972.179 1065.65 983.446C1066.98 985.928 1067.32 986.607 1067.62 987.283C1067.91 987.959 1068.15 988.611 1068.77 990.081" stroke="black" stroke-width="6" stroke-linecap="round"/>
<path d="M1092.38 970.953C1089.36 973.83 1081.91 980.525 1078.65 982.394C1075.67 984.46 1073.65 986.037 1071.64 987.401C1071.12 987.74 1070.6 988.095 1068.96 989.291" stroke="black" stroke-width="6" stroke-linecap="round"/>
<path d="M1068.96 989.292C1067.16 989.791 1062.66 991.075 1057.89 991.724C1053.62 992.305 1049.92 993.853 1047.28 994.679C1046.66 994.908 1046.14 995.146 1045.6 995.353C1045.06 995.559 1044.5 995.727 1043.34 995.94" stroke="black" stroke-width="6" stroke-linecap="round"/>
<path d="M1059.92 971.174C1059.01 972.041 1056.18 975.352 1053.66 978.906C1051.79 981.537 1049.86 984.567 1048.26 987.065C1046.53 989.845 1044.8 992.295 1043.9 993.22C1043.47 993.695 1043.09 994.184 1042.7 994.785" stroke="black" stroke-width="6" stroke-linecap="round"/>
<path d="M1035.05 985.772C1035.49 985.414 1039.53 985.104 1043.6 986.09C1047.88 987.125 1050.26 989.629 1054.48 993.897C1055.85 995.287 1055.36 997.345 1054.83 999.284C1053.75 1003.25 1047.71 1006.1 1043.63 1007.26C1040.78 1008.07 1037.86 1007.36 1035.64 1005.8C1032.52 1003.59 1032 999.818 1031.53 996.352C1032.02 993.111 1033.18 990.899 1034.98 988.591C1035.47 987.909 1035.97 987.084 1036.97 985.577" stroke="black" stroke-width="6" stroke-linecap="round"/>
<path d="M1056.71 967.914C1056.68 967.88 1055.92 968.107 1054.12 968.62C1053.06 968.888 1051.69 969.172 1050.71 969.399C1049.73 969.625 1049.19 969.786 1047.8 969.909" stroke="black" stroke-width="6" stroke-linecap="round"/>
<path d="M409.125 661.857C407.564 660.141 402.107 654.763 395.058 650.422C389.282 646.866 383.68 647.017 381.232 648.311C375.034 651.587 371.01 660.549 365.942 662.106C360.669 663.726 355.704 657.484 345.975 650.805C338.971 645.997 332.217 646.081 329.324 646.831C324.328 649.835 320.057 655.355 316.656 662.978C315.345 666.332 313.208 671.729 310.988 678.387" stroke="#7AC6EE" stroke-width="6" stroke-linecap="round"/>
<path d="M628.419 594.031C628.207 592.409 625.696 586.873 621.27 581.784C619.495 579.744 617.179 578.797 613.785 578.367C608.55 577.703 603.461 578.98 600.139 580.58C594.853 583.125 590.309 590.574 585.995 594.492C582.347 597.804 574.721 591.359 569.984 589.19C565.075 586.942 559.287 586.45 550.313 586.528C543.83 588.266 540.332 590.007 538.038 591.611C536.878 592.484 535.727 593.478 533.017 596.306" stroke="#7AC6EE" stroke-width="6" stroke-linecap="round"/>
<path d="M779.761 684.357C781.323 682.641 786.78 677.263 793.829 672.922C799.605 669.366 805.206 669.517 807.655 670.811C813.853 674.087 817.876 683.049 822.945 684.606C828.218 686.226 833.183 679.984 842.912 673.305C849.916 668.497 856.669 668.581 859.562 669.331C864.559 672.335 868.83 677.855 872.231 685.478C873.542 688.832 875.679 694.229 877.899 700.887" stroke="#7AC6EE" stroke-width="6" stroke-linecap="round"/>
<path d="M551.398 726.916C551.61 725.294 554.12 719.757 558.546 714.669C560.321 712.629 562.637 711.682 566.032 711.252C571.266 710.588 576.356 711.865 579.677 713.464C584.964 716.01 589.508 723.458 593.822 727.376C597.469 730.689 605.095 724.244 609.832 722.075C614.741 719.827 620.53 719.334 629.503 719.413C635.986 721.151 639.484 722.892 641.779 724.496C642.939 725.369 644.089 726.362 646.799 729.191" stroke="#7AC6EE" stroke-width="6" stroke-linecap="round"/>
<path d="M1241.14 724.525C1240.93 722.903 1238.42 717.367 1233.99 712.279C1232.22 710.238 1229.9 709.291 1226.51 708.861C1221.27 708.198 1216.18 709.474 1212.86 711.074C1207.57 713.619 1203.03 721.068 1198.72 724.986C1195.07 728.298 1187.44 721.853 1182.71 719.684C1177.8 717.437 1172.01 716.944 1163.03 717.022C1156.55 718.76 1153.05 720.501 1150.76 722.105C1149.6 722.978 1148.45 723.972 1145.74 726.8" stroke="#7AC6EE" stroke-width="6" stroke-linecap="round"/>
<path d="M1036.68 633.012C1036.9 631.517 1039.55 626.413 1044.22 621.721C1046.09 619.84 1048.53 618.965 1052.11 618.567C1057.62 617.952 1062.99 619.126 1066.49 620.597C1072.05 622.94 1076.84 629.802 1081.38 633.41C1085.22 636.46 1093.26 630.516 1098.25 628.514C1103.43 626.439 1109.53 625.981 1118.98 626.048C1125.81 627.646 1129.5 629.248 1131.92 630.724C1133.14 631.528 1134.35 632.443 1137.2 635.049" stroke="#7AC6EE" stroke-width="6" stroke-linecap="round"/>
<path d="M596.104 1217.52C596.104 1214.62 595.842 1206.68 595.21 1202.53C594.944 1200.79 594.988 1199.26 595.152 1198C595.231 1197.4 595.942 1197.05 596.691 1196.79C598.316 1196.22 605.895 1196.16 620.564 1196.05C648.499 1195.82 651.324 1195.67 654.127 1195.31C654.833 1195.22 655.554 1195.16 655.997 1195.58C658.438 1197.89 657.931 1202.07 659.165 1205.31C659.823 1207.1 660.452 1209.15 661.156 1211.56C661.554 1212.85 662.038 1214.27 662.814 1216.38" stroke="black" stroke-width="6" stroke-linecap="round"/>
<path d="M779.041 1210.29C779.041 1203.41 779.852 1189.74 781.468 1189.8C783.057 1189.86 788.855 1190.64 806.507 1191.46C819.137 1192.05 839.261 1191.88 849.507 1193.07C859.752 1194.27 859.52 1196.55 859.4 1199.26C859.28 1201.98 859.28 1205.05 860.064 1209.95" stroke="black" stroke-width="6" stroke-linecap="round"/>
<path d="M196.748 1202.39C196.748 1196.59 196.981 1184.18 197.746 1182.91C198.455 1181.72 202.934 1182.29 220.339 1183.12C234.745 1183.81 260.526 1184.1 274.236 1184.47C290.614 1184.9 294.63 1185.69 297.779 1186.94C298.859 1191.95 299.269 1199.82 300.239 1203.21" stroke="black" stroke-width="6" stroke-linecap="round"/>
<path d="M342.586 916.561C335.914 916.561 320.445 916.161 315.831 915.567C313.52 915.221 310.447 915.025 303.884 914.975C299.219 914.925 291.845 914.825 284.248 914.723" stroke="black" stroke-width="6" stroke-linecap="round"/>
<path d="M198.6 917.908C198.361 917.908 156.911 917.908 90.9917 917.785C47.9562 916.788 30.9434 915.802 17.0461 915.324C13.4682 915.222 4.14194 915.506 -0.00195324 915.324" stroke="black" stroke-width="6" stroke-linecap="round"/>
<path d="M3.04492 953.467L1317.69 953.467" stroke="black" stroke-width="6" stroke-linecap="round"/>
<path d="M108.381 949.934C108.381 949.731 108.381 942.02 108.424 929.969C108.468 925.524 108.554 924.472 108.643 920.67C108.732 916.867 108.821 910.346 108.913 903.627" stroke="black" stroke-width="6" stroke-linecap="round"/>
<path d="M131.638 911.157L110.437 931.474H97.6289L88.354 911.157L81.2871 874.499L88.354 838.723L110.437 833.424L131.638 850.208L139.146 881.566L131.638 911.157Z" fill="#9ECB75"/>
<path d="M96.8253 927.359C99.6084 929.284 102.954 929.883 104.152 929.883C104.726 929.59 115.222 928.747 115.775 928.457C116.329 928.167 116.863 927.88 117.451 927.492C119.81 925.798 122.031 924.386 123.949 922.227C126.699 919.131 128.197 916.113 130.403 911.642C133.161 906.052 136.983 898.856 137.329 891.481C137.764 882.189 137.853 869.035 136.752 865.106C135.061 859.073 133.843 854.566 131.268 850.488C129.6 847.846 126.426 845.23 122.085 841.344C119.498 839.029 117.217 837.119 113.878 836.414L113.822 836.403C110.279 835.655 100.933 833.683 94.7604 836.402C93.1807 837.098 91.6404 837.884 90.3447 840.118C86.4663 846.806 84.5633 849.564 81.7722 862.912C81.0321 866.452 80.2126 873.934 81.3861 884.85C82.1383 891.847 82.975 895.461 84.3419 900.134C87.097 909.552 89.0488 916.093 89.6783 917.313C91.2109 920.285 93.1891 924.843 96.8253 927.359Z" stroke="black" stroke-width="6" stroke-linecap="round"/>
<path d="M244.156 952.237C244.156 952.034 244.156 944.323 244.2 932.272C244.243 927.827 244.33 926.775 244.419 922.972C244.508 919.17 244.597 912.648 244.688 905.93" stroke="black" stroke-width="6" stroke-linecap="round"/>
<path d="M267.411 913.46L246.211 933.777H233.402L224.127 913.46L217.061 876.801L224.127 841.026L246.211 835.727L267.411 852.51L274.919 883.869L267.411 913.46Z" fill="#9ECB75"/>
<path d="M232.599 929.662C235.382 931.587 238.728 932.186 239.925 932.186C240.499 931.893 250.995 931.049 251.549 930.759C252.102 930.469 252.636 930.182 253.224 929.795C255.584 928.101 257.805 926.689 259.723 924.53C262.473 921.433 263.97 918.416 266.176 913.945C268.935 908.355 272.757 901.159 273.102 893.784C273.537 884.492 273.627 871.338 272.525 867.409C270.834 861.376 269.616 856.868 267.041 852.79C265.373 850.149 262.199 847.533 257.858 843.647C255.272 841.332 252.99 839.422 249.652 838.717L249.596 838.705C246.053 837.958 236.706 835.985 230.534 838.705C228.954 839.401 227.414 840.187 226.118 842.421C222.24 849.108 220.337 851.866 217.546 865.215C216.806 868.755 215.986 876.237 217.16 887.152C217.912 894.15 218.748 897.764 220.115 902.437C222.87 911.854 224.822 918.396 225.452 919.616C226.984 922.587 228.962 927.146 232.599 929.662Z" stroke="black" stroke-width="6" stroke-linecap="round"/>
<path d="M339.795 949.058C339.795 948.973 339.795 946.96 341.043 943.849C341.954 941.577 357.661 942.186 396.089 942.342C424.216 942.457 469.85 942.811 494.583 943.041C541.786 943.684 578.928 945.29 581.385 948.003C582.221 949.389 582.221 950.791 582.221 952.236" stroke="black" stroke-width="6" stroke-linecap="round"/>
<path d="M343.363 941.654C342.949 940.235 342.193 936.127 341.954 933.74C341.837 932.573 343.443 931.524 380.885 931.359C418.327 931.194 491.995 931.953 531.432 933.088C570.869 934.224 573.018 931.753 575.187 933.088C577.356 934.424 579.456 939.521 580.885 942.979" stroke="black" stroke-width="6" stroke-linecap="round"/>
<path d="M341.949 929.923C341.949 929.838 341.949 926.283 343.781 920.789C344.808 917.706 364.467 918.093 406.447 918.171C486.376 918.32 542.456 918.673 552.241 919.325C561.361 919.934 567.509 918.447 572.763 920.669C574.866 921.822 575.874 927.518 576.369 928.844C576.864 930.17 576.864 931.58 575.655 933.879" stroke="black" stroke-width="6" stroke-linecap="round"/>
<circle cx="659.313" cy="1060.93" r="13.6626" transform="rotate(-90 659.313 1060.93)" fill="#407AF6"/>
<circle cx="580.885" cy="1041.71" r="13.6626" transform="rotate(-90 580.885 1041.71)" fill="#407AF6"/>
<circle cx="525.094" cy="991.431" r="13.6626" transform="rotate(-90 525.094 991.431)" fill="#407AF6"/>
<circle cx="443.239" cy="991.66" r="13.6626" transform="rotate(-90 443.239 991.66)" fill="#407AF6"/>
<circle cx="415.223" cy="911.429" r="13.6626" transform="rotate(-90 415.223 911.429)" fill="#407AF6"/>
<circle cx="304.059" cy="872.458" r="13.6626" transform="rotate(-90 304.059 872.458)" fill="#407AF6"/>
<circle cx="392.458" cy="845.134" r="13.6626" transform="rotate(-90 392.458 845.134)" fill="#407AF6"/>
<circle cx="522.61" cy="879.974" r="13.6626" transform="rotate(-90 522.61 879.974)" fill="#407AF6"/>
<circle cx="477.274" cy="831.472" r="13.6626" transform="rotate(-90 477.274 831.472)" fill="#407AF6"/>
<circle cx="712.399" cy="825.324" r="13.6626" transform="rotate(-90 712.399 825.324)" fill="#407AF6"/>
<circle cx="795.6" cy="852.65" r="13.6626" transform="rotate(-90 795.6 852.65)" fill="#407AF6"/>
<circle cx="611.008" cy="852.65" r="13.6626" transform="rotate(-90 611.008 852.65)" fill="#407AF6"/>
<circle cx="193.665" cy="858.796" r="13.6626" transform="rotate(-90 193.665 858.796)" fill="#407AF6"/>
<circle cx="161.592" cy="831.472" r="13.6626" transform="rotate(-90 161.592 831.472)" fill="#407AF6"/>
<circle cx="203.577" cy="1132.42" r="13.6626" transform="rotate(-90 203.577 1132.42)" fill="#407AF6"/>
<circle cx="234.731" cy="1099.86" r="13.6626" transform="rotate(-90 234.731 1099.86)" fill="#407AF6"/>
<circle cx="173.569" cy="1087.72" r="13.6626" transform="rotate(-90 173.569 1087.72)" fill="#407AF6"/>
<circle cx="316.549" cy="1045.06" r="13.6626" transform="rotate(-90 316.549 1045.06)" fill="#407AF6"/>
<circle cx="270.028" cy="1130.89" r="13.6626" transform="rotate(-90 270.028 1130.89)" fill="#407AF6"/>
<circle cx="227.571" cy="1061.54" r="13.6626" transform="rotate(-90 227.571 1061.54)" fill="#407AF6"/>
<circle cx="137.196" cy="1060.5" r="13.6626" transform="rotate(-90 137.196 1060.5)" fill="#407AF6"/>
<circle cx="371.639" cy="1008.37" r="13.6626" transform="rotate(-90 371.639 1008.37)" fill="#407AF6"/>
<circle cx="283.014" cy="1072.16" r="13.6626" transform="rotate(-90 283.014 1072.16)" fill="#407AF6"/>
<circle cx="322.387" cy="991.503" r="13.6626" transform="rotate(-90 322.387 991.503)" fill="#407AF6"/>
<circle cx="714.053" cy="1077.84" r="13.6626" transform="rotate(-90 714.053 1077.84)" fill="#407AF6"/>
<circle cx="792.704" cy="1120.11" r="13.6626" transform="rotate(-90 792.704 1120.11)" fill="#407AF6"/>
<circle cx="750.829" cy="1124.12" r="13.6626" transform="rotate(-90 750.829 1124.12)" fill="#407AF6"/>
<circle cx="1046.46" cy="1078.8" r="13.6626" transform="rotate(-90 1046.46 1078.8)" fill="#407AF6"/>
<circle cx="920.36" cy="1062.29" r="13.6626" transform="rotate(-90 920.36 1062.29)" fill="#407AF6"/>
<circle cx="886.811" cy="982.308" r="13.6626" transform="rotate(-90 886.811 982.308)" fill="#407AF6"/>
<circle cx="863.674" cy="1089.6" r="13.6626" transform="rotate(-90 863.674 1089.6)" fill="#407AF6"/>
<circle cx="737.387" cy="984.832" r="13.6626" transform="rotate(-90 737.387 984.832)" fill="#407AF6"/>
<circle cx="602.211" cy="983.134" r="13.6626" transform="rotate(-90 602.211 983.134)" fill="#407AF6"/>
<circle cx="1014.56" cy="1124.12" r="13.6626" transform="rotate(-90 1014.56 1124.12)" fill="#407AF6"/>
<circle cx="608.682" cy="1127.18" r="13.6626" transform="rotate(-90 608.682 1127.18)" fill="#407AF6"/>
<path d="M443.24 1321.52C443.297 1321.52 443.354 1321.52 453.754 1321.52C464.154 1321.52 484.895 1321.52 497.426 1321.36C518.407 1321.1 522.397 1320.28 529.966 1319.78C534.329 1319.33 538.041 1318.93 543.821 1318.69" stroke="black" stroke-width="6" stroke-linecap="round"/>
<path d="M922.084 1321.52C922.141 1321.52 968.519 1321.52 978.919 1321.52" stroke="black" stroke-width="6" stroke-linecap="round"/>
<path d="M922.084 1321.52C922.141 1321.52 968.519 1321.52 978.919 1321.52" stroke="black" stroke-width="6" stroke-linecap="round"/>
<path d="M807.256 1196.53C807.256 1195.64 807.256 1190.14 807.169 1181.85C807.068 1172.19 805.538 1164.82 804.991 1165.47C802.774 1167.87 797.236 1174.35 794.013 1179.5C793.485 1180.44 793.144 1181.09 792.471 1182.29" stroke="#FF182B" stroke-width="6" stroke-linecap="round"/>
<path d="M806.443 1165.66C807.797 1166.73 813.983 1172.48 817.554 1176.47C818.356 1177.52 819.165 1178.55 819.988 1179.58C820.344 1180.04 820.573 1180.41 821.467 1181.55" stroke="#FF182B" stroke-width="6" stroke-linecap="round"/>
<path d="M617.631 1196.53C617.631 1195.64 617.631 1190.14 617.544 1181.85C617.443 1172.19 615.913 1164.82 615.366 1165.47C613.149 1167.87 607.611 1174.35 604.388 1179.5C603.86 1180.44 603.519 1181.09 602.846 1182.29" stroke="#FF182B" stroke-width="6" stroke-linecap="round"/>
<path d="M616.818 1165.66C618.172 1166.73 624.358 1172.48 627.929 1176.47C628.731 1177.52 629.54 1178.55 630.363 1179.58C630.719 1180.04 630.948 1180.41 631.842 1181.55" stroke="#FF182B" stroke-width="6" stroke-linecap="round"/>
<path d="M236.791 1183.48C236.791 1182.59 236.791 1177.08 236.704 1168.8C236.603 1159.14 235.073 1151.77 234.526 1152.42C232.309 1154.82 226.771 1161.3 223.548 1166.44C223.021 1167.39 222.679 1168.04 222.006 1169.24" stroke="#FF182B" stroke-width="6" stroke-linecap="round"/>
<path d="M235.979 1152.61C237.332 1153.68 243.518 1159.43 247.089 1163.42C247.891 1164.47 248.7 1165.5 249.524 1166.52C249.879 1166.99 250.108 1167.35 251.002 1168.5" stroke="#FF182B" stroke-width="6" stroke-linecap="round"/>
<path d="M735.257 1019.65C735.257 1022.14 734.96 1028.21 734.182 1031.51C733.896 1032.7 733.586 1033.6 733.243 1034.51C733.091 1034.98 732.987 1035.46 732.744 1036.98" stroke="#FF182B" stroke-width="6" stroke-linecap="round"/>
<path d="M731.664 1047.69C731.627 1047.69 732.764 1047.69 734.376 1047.97C734.906 1048.07 734.552 1048.84 734.079 1049.31C733.086 1050.32 731.613 1050.81 730.377 1051.19C729.814 1051.37 729.313 1051.24 729.202 1050.98C729.092 1050.72 729.369 1050.26 729.758 1049.98C730.146 1049.69 730.637 1049.59 731.121 1049.53C731.604 1049.46 732.065 1049.44 732.886 1049.3" stroke="#FF182B" stroke-width="6" stroke-linecap="round"/>
<path d="M750.531 1006.37C749.592 1006.37 745.854 1005.75 742.787 1004.58C738.968 1003.11 728.438 1005.76 721.258 1009.1C715.826 1011.63 713.22 1018.2 710.706 1026.4C708.203 1034.56 709.468 1041.48 710.273 1044.97C711.139 1048.73 713.022 1051.42 718.712 1057.14C721.642 1060.09 726.878 1061.07 731.307 1061.98C737.624 1063.27 741.92 1060.29 747.568 1057.2C751.482 1055.07 754.274 1051.13 756.161 1048.2C757.835 1045.59 757.644 1036.54 756.755 1028.05C755.908 1019.96 752.513 1016.8 750.754 1013.59C749.727 1012.25 748.704 1011.05 747.67 1009.85C747.12 1009.23 746.518 1008.6 744.953 1007.12" stroke="#FF182B" stroke-width="6" stroke-linecap="round"/>
<path d="M211.225 973.426C211.225 973.626 211.225 977.244 211.339 983.019C211.453 985.28 211.681 986.181 211.994 987.118C212.306 988.055 212.696 989 214.307 991.761" stroke="#FF182B" stroke-width="6" stroke-linecap="round"/>
<path d="M216.789 1005.32C216.72 1005.32 217.239 1006.07 217.816 1007.6C217.837 1008.37 217.309 1009.15 216.612 1009.41C215.915 1009.68 215.065 1009.41 215.377 1006.75" stroke="#FF182B" stroke-width="6" stroke-linecap="round"/>
<path d="M230.94 964.262C230 964.262 226.262 963.642 223.196 962.469C219.376 961.007 208.847 963.649 201.666 966.995C196.234 969.526 193.628 976.09 191.115 984.29C188.611 992.456 189.876 999.372 190.681 1002.86C191.547 1006.62 193.431 1009.31 199.12 1015.03C202.05 1017.98 207.287 1018.97 211.716 1019.87C218.033 1021.16 222.328 1018.18 227.976 1015.1C231.89 1012.96 234.683 1009.02 236.569 1006.09C238.243 1003.49 238.052 994.437 237.163 985.945C236.316 977.857 232.921 974.688 231.162 971.485C230.135 970.145 229.112 968.944 228.078 967.743C227.528 967.126 226.927 966.493 225.362 965.009" stroke="#FF182B" stroke-width="6" stroke-linecap="round"/>
<circle cx="547.723" cy="1158.25" r="13.6626" fill="#407AF6"/>
<path d="M560.102 1149.73C560.131 1149.73 560.829 1149.73 562.176 1149.64C563.463 1149.36 567.291 1148.17 572.32 1146.62C574.163 1146.07 574.569 1146 575.195 1145.82" stroke="#A1A0A0" stroke-width="6" stroke-linecap="round"/>
<path d="M575.704 1144.84C575.684 1144.84 575.663 1145.38 575.525 1146.14C575.478 1146.4 575.152 1146.29 574.984 1146.12C574.816 1145.95 574.733 1145.7 574.69 1145.44C574.648 1145.18 574.648 1144.91 574.676 1144.59" stroke="#F9AD16" stroke-width="6" stroke-linecap="round"/>
<path d="M515.575 1065.48C515.549 1065.49 515.169 1065.59 514.395 1065.55C511.691 1065.42 510.703 1061.12 510.623 1060.11C510.421 1057.57 515.234 1057.46 515.743 1056.77C516.247 1056.08 516.016 1054.71 515.574 1053.29C514.788 1050.77 510.955 1049.97 510.197 1048.61C508.883 1046.26 515.376 1043.33 516.396 1041.55C516.386 1039.5 515.786 1037.6 515.306 1036.79C515.033 1036.42 514.698 1036.11 513.999 1035.78" stroke="#A1A0A0" stroke-width="4" stroke-linecap="round"/>
<path d="M531.107 1076.63C531.079 1076.64 530.404 1076.82 529.079 1077.08C527.764 1077.14 523.758 1076.98 518.5 1076.79C516.577 1076.73 516.168 1076.77 515.516 1076.76" stroke="#A1A0A0" stroke-width="6" stroke-linecap="round"/>
<path d="M514.774 1075.95C514.794 1075.95 514.952 1076.46 515.284 1077.16C515.396 1077.4 515.68 1077.2 515.799 1077C515.917 1076.79 515.934 1076.53 515.908 1076.27C515.881 1076 515.81 1075.74 515.701 1075.44" stroke="#F9AD16" stroke-width="6" stroke-linecap="round"/>
<circle cx="544.296" cy="1082.35" r="13.6626" transform="rotate(-15 544.296 1082.35)" fill="#407AF6"/>
<path d="M573.801 1136.18C573.801 1136.14 573.801 1135 573.59 1133.14C573.341 1130.95 571.19 1130.54 570.605 1129.91C568.355 1127.49 570.017 1122.17 569.354 1121.59C568.959 1121.37 568.445 1121.29 567.663 1121.25C566.881 1121.21 565.848 1121.21 563.775 1120.74" stroke="#A1A0A0" stroke-width="6" stroke-linecap="round"/>
<path d="M629.989 1256.55C642.788 1278.72 638.69 1292.09 621.037 1302.28C603.383 1312.47 576.37 1311.32 566.06 1293.46C555.75 1275.61 561.703 1252.87 579.357 1242.68C597.01 1232.48 619.679 1238.7 629.989 1256.55Z" fill="#FF99A2"/>
<path d="M638.251 1327.75L647.35 1309.36L740.086 1322.4L826.801 1346.4L824.709 1369.74L839.218 1381.35L834.458 1401.89L816.408 1407L808.777 1422.43L720.548 1405.74L629.594 1376.65L632.165 1364.63L650.413 1344.11L638.251 1327.75Z" fill="#FFDC9B"/>
<path d="M699.145 1342.17C697.948 1345.99 695.093 1354.58 693.507 1357.34C693.172 1357.92 693.364 1358.43 693.65 1358.73C696.99 1359.53 701.737 1360.08 702.777 1360.21" stroke="black" stroke-width="6" stroke-linecap="round"/>
<path d="M708.174 1346.12L699.973 1372.34" stroke="black" stroke-width="6" stroke-linecap="round"/>
<path d="M725.294 1351.72C725.261 1351.7 722.418 1349.91 719.857 1349.44C716.657 1348.84 715.226 1352.03 713.859 1354.26C713.101 1355.5 713.108 1356.87 713.223 1357.93C713.281 1358.45 713.517 1358.93 713.85 1359.32C714.528 1360.11 715.762 1360.47 716.949 1360.66C718.939 1360.99 720.128 1362.69 722.679 1359.35C723.668 1358.05 725.294 1351.72 725.294 1351.72ZM725.294 1351.72C725.294 1351.72 722.022 1362.22 718.885 1372.42C717.645 1376.55 717.341 1376.6 716.839 1378.76" stroke="black" stroke-width="6" stroke-linecap="round"/>
<path d="M786.903 1368.38C786.87 1368.37 784.027 1366.58 781.466 1366.1C778.267 1365.5 776.835 1368.7 775.468 1370.93C774.71 1372.16 774.718 1373.53 774.833 1374.59C774.89 1375.11 775.126 1375.59 775.459 1375.98C776.137 1376.77 777.372 1377.13 778.558 1377.33C780.549 1377.65 781.738 1379.35 784.288 1376.01C785.278 1374.72 786.903 1368.38 786.903 1368.38ZM786.903 1368.38C786.903 1368.38 783.632 1378.88 780.494 1389.08C779.254 1393.22 778.951 1393.26 778.448 1395.42" stroke="black" stroke-width="6" stroke-linecap="round"/>
<path d="M805.092 1374.07C805.06 1374.06 802.217 1372.26 799.655 1371.79C796.456 1371.19 795.024 1374.39 793.658 1376.62C792.9 1377.85 792.907 1379.22 793.022 1380.28C793.08 1380.8 793.316 1381.28 793.648 1381.67C794.327 1382.46 795.561 1382.82 796.748 1383.02C798.738 1383.34 799.927 1385.04 802.478 1381.7C803.467 1380.4 805.092 1374.07 805.092 1374.07ZM805.092 1374.07C805.092 1374.07 801.821 1384.57 798.684 1394.77C797.443 1398.91 797.14 1398.95 796.638 1401.11" stroke="black" stroke-width="6" stroke-linecap="round"/>
<path d="M677.866 1367.6C672.93 1366.05 663.623 1362.8 664.435 1362.34C666.119 1361.39 667.652 1359.92 669.091 1358.54C670.896 1356.81 671.368 1354.23 673.288 1348.27C674.886 1343.31 675.523 1337.7 677.186 1334.36C677.652 1333.43 678.871 1333.08 679.897 1332.65C682.416 1331.6 686.659 1334.81 688.319 1336.46C688.453 1338.54 688.2 1340.42 687.994 1341.56C687.862 1342.2 687.673 1342.95 687.472 1344.13" stroke="black" stroke-width="6" stroke-linecap="round"/>
<path d="M681.916 1350.19C681.883 1350.18 681.85 1350.17 679.21 1349.36C676.57 1348.54 671.324 1346.93 665.142 1345.36" stroke="black" stroke-width="6" stroke-linecap="round"/>
<path d="M733.326 1366.45L741.83 1369.11" stroke="black" stroke-width="6" stroke-linecap="round"/>
<path d="M754.666 1364.69C754.687 1364.62 754.857 1364.16 755.33 1363.38C756.397 1361.62 761.436 1360.13 764.834 1359.2C765.451 1359.03 766.251 1359.45 766.818 1359.78C767.384 1360.1 767.713 1360.55 767.936 1361.02C769.418 1364.16 765.445 1370.24 762.635 1373.73C759.467 1377.66 753.577 1383.33 751.451 1384.95C750.517 1385.67 749.392 1386 748.425 1386.23C747.947 1386.35 747.471 1386.35 748.772 1386.85C753.158 1388.33 758.86 1389.78 762.999 1390.52C764.614 1390.82 765.245 1390.97 765.895 1391.12" stroke="black" stroke-width="6" stroke-linecap="round"/>
<path d="M823.194 1347.7C824.782 1348.18 826.488 1347.28 827.003 1345.71C827.519 1344.13 826.649 1342.47 825.061 1342L824.128 1344.85L823.194 1347.7ZM696.951 1315.98L696.388 1318.91L696.951 1315.98ZM675.345 1311.49L674.901 1314.45L675.345 1311.49ZM658.388 1309.05L658.981 1306.12L658.388 1309.05ZM648.773 1308.01L648.71 1310.99L648.71 1310.99L648.773 1308.01ZM639.473 1329.77L636.655 1328.75L639.473 1329.77ZM639.259 1331.28L636.989 1333.3L639.259 1331.28ZM643.205 1332.6L644.487 1329.87L643.205 1332.6ZM647.901 1342.36L645.032 1343.36V1343.36L647.901 1342.36ZM642.07 1355.28L640.192 1352.99L642.07 1355.28ZM631.473 1359.81L630.55 1357V1357L631.473 1359.81ZM625.982 1374.35L628.917 1375L625.982 1374.35ZM742.078 1411.57L741.17 1414.43L742.078 1411.57ZM769.417 1417.92L769.456 1414.94L769.417 1417.92ZM774.414 1418.56L773.7 1421.47L774.414 1418.56ZM801.473 1424.43L802.162 1421.52L801.473 1424.43ZM808.194 1425.55L807.671 1422.63V1422.63L808.194 1425.55ZM815.773 1408.95L813 1407.83L815.773 1408.95ZM831.405 1402.19L829.814 1399.7V1399.7L831.405 1402.19ZM839.364 1389.31L842.236 1390.18L839.364 1389.31ZM837.716 1377.87L835.143 1379.49L837.716 1377.87ZM827.292 1370.45L825.545 1372.91L827.292 1370.45ZM826.224 1369.09L823.365 1370.13V1370.13L826.224 1369.09ZM827.408 1358.65L824.456 1358.07L827.408 1358.65ZM829.249 1347.77L830.725 1345.14L830.707 1345.13L830.689 1345.12L829.249 1347.77ZM825.8 1342.14C824.476 1341.16 822.578 1341.45 821.56 1342.78C820.543 1344.1 820.791 1345.97 822.115 1346.94L823.958 1344.54L825.8 1342.14ZM824.128 1344.85L825.061 1342C824.864 1341.94 824.659 1341.88 812.831 1338.51L811.929 1341.37L811.027 1344.23C822.89 1347.61 823.038 1347.66 823.194 1347.7L824.128 1344.85ZM811.929 1341.37L812.831 1338.51C800.998 1335.13 777.448 1328.42 761.826 1324.39L760.997 1327.27L760.169 1330.15C775.701 1334.16 799.169 1340.85 811.027 1344.23L811.929 1341.37ZM760.997 1327.27L761.826 1324.39C746.143 1320.34 739.124 1319.19 733.495 1318.22L732.906 1321.15L732.317 1324.08C737.852 1325.04 744.698 1326.16 760.169 1330.15L760.997 1327.27ZM732.906 1321.15L733.495 1318.22C727.953 1317.26 723.848 1316.48 717.861 1315.7L717.395 1318.65L716.928 1321.6C722.757 1322.36 726.694 1323.11 732.317 1324.08L732.906 1321.15ZM717.395 1318.65L717.861 1315.7C711.806 1314.9 704.325 1314.16 697.515 1313.04L696.951 1315.98L696.388 1318.91C703.306 1320.05 711.169 1320.84 716.928 1321.6L717.395 1318.65ZM696.951 1315.98L697.515 1313.04C691.196 1312 686.432 1310.97 682.964 1310.16C681.197 1309.74 679.838 1309.41 678.654 1309.12C677.556 1308.86 676.554 1308.64 675.788 1308.54L675.345 1311.49L674.901 1314.45C675.274 1314.49 675.942 1314.63 677.108 1314.91C678.189 1315.17 679.689 1315.54 681.439 1315.95C685.005 1316.78 689.905 1317.85 696.388 1318.91L696.951 1315.98ZM675.345 1311.49L675.788 1308.54C667.371 1307.5 663.122 1306.84 658.981 1306.12L658.388 1309.05L657.795 1311.98C662.055 1312.73 666.407 1313.4 674.901 1314.45L675.345 1311.49ZM658.388 1309.05L658.981 1306.12C652.237 1304.95 650.235 1305.03 648.836 1305.03L648.773 1308.01L648.71 1310.99C649.776 1310.98 651.422 1310.87 657.795 1311.98L658.388 1309.05ZM648.773 1308.01L648.836 1305.03C645.564 1305.04 643.491 1307.53 642.317 1309.52C641.049 1311.66 640.109 1314.39 639.385 1316.99C638.65 1319.62 638.079 1322.33 637.627 1324.51C637.397 1325.62 637.202 1326.57 637.027 1327.34C636.839 1328.17 636.716 1328.6 636.655 1328.75L639.473 1329.77L642.291 1330.78C642.539 1330.15 642.747 1329.31 642.927 1328.52C643.118 1327.67 643.328 1326.65 643.551 1325.57C644.005 1323.38 644.539 1320.85 645.213 1318.44C645.898 1315.99 646.671 1313.87 647.525 1312.43C648.474 1310.82 648.934 1310.99 648.71 1310.99L648.773 1308.01ZM639.473 1329.77L636.655 1328.75C636.635 1328.8 636.343 1329.47 636.217 1329.99C636.059 1330.63 635.868 1332.07 636.989 1333.3L639.259 1331.28L641.53 1329.26C641.879 1329.65 642.068 1330.11 642.123 1330.54C642.172 1330.92 642.109 1331.19 642.093 1331.26C642.075 1331.33 642.064 1331.35 642.108 1331.24C642.127 1331.19 642.149 1331.13 642.182 1331.05C642.212 1330.98 642.251 1330.88 642.291 1330.78L639.473 1329.77ZM639.259 1331.28L636.989 1333.3C638.146 1334.56 639.741 1334.9 640.494 1335.05C640.715 1335.09 640.933 1335.13 641.111 1335.16C641.3 1335.19 641.446 1335.21 641.582 1335.24C641.875 1335.3 641.946 1335.33 641.922 1335.32L643.205 1332.6L644.487 1329.87C643.898 1329.62 643.305 1329.48 642.894 1329.4C642.678 1329.36 642.462 1329.32 642.286 1329.29C642.098 1329.26 641.947 1329.23 641.802 1329.21C641.504 1329.15 641.366 1329.1 641.307 1329.08C641.261 1329.06 641.383 1329.1 641.53 1329.26L639.259 1331.28ZM643.205 1332.6L641.922 1335.32C641.731 1335.24 641.816 1335.2 642.093 1335.6C642.354 1335.99 642.649 1336.57 642.981 1337.38C643.67 1339.07 644.239 1341.04 645.032 1343.36L647.901 1342.36L650.769 1341.35C650.1 1339.39 649.369 1336.94 648.6 1335.05C648.202 1334.08 647.729 1333.08 647.141 1332.21C646.57 1331.37 645.727 1330.42 644.487 1329.87L643.205 1332.6ZM647.901 1342.36L645.032 1343.36C645.349 1344.29 645.051 1346.05 643.786 1348.36C642.591 1350.54 641.006 1352.34 640.192 1352.99L642.07 1355.28L643.949 1357.57C645.532 1356.3 647.602 1353.81 649.093 1351.09C650.513 1348.5 651.932 1344.76 650.769 1341.35L647.901 1342.36ZM642.07 1355.28L640.192 1352.99C639.029 1353.93 637.521 1354.66 635.78 1355.3C633.882 1356 632.428 1356.37 630.55 1357L631.473 1359.81L632.396 1362.63C633.639 1362.21 635.94 1361.55 637.787 1360.87C639.793 1360.13 642.023 1359.12 643.949 1357.57L642.07 1355.28ZM631.473 1359.81L630.55 1357C628.669 1357.64 627.539 1359.19 626.87 1360.4C626.152 1361.69 625.61 1363.23 625.175 1364.73C624.349 1367.58 623.616 1371.43 623.047 1373.7L625.982 1374.35L628.917 1375C629.666 1372.01 630.157 1369.1 630.986 1366.25C631.377 1364.9 631.771 1363.86 632.162 1363.16C632.602 1362.37 632.755 1362.51 632.396 1362.63L631.473 1359.81ZM625.982 1374.35L623.047 1373.7C622.738 1374.93 622.562 1376.69 623.883 1378.16C624.402 1378.74 625.009 1379.09 625.422 1379.3C625.825 1379.51 626.319 1379.73 626.675 1379.88L627.979 1377.17L629.284 1374.46C629.038 1374.35 628.88 1374.28 628.7 1374.2C628.533 1374.12 628.421 1374.07 628.339 1374.02C628.256 1373.98 628.238 1373.97 628.255 1373.98C628.275 1373.99 628.353 1374.05 628.45 1374.16C628.552 1374.27 628.657 1374.42 628.738 1374.6C628.818 1374.79 628.853 1374.95 628.866 1375.07C628.878 1375.18 628.87 1375.24 628.872 1375.22C628.874 1375.2 628.883 1375.13 628.917 1375L625.982 1374.35ZM627.979 1377.17L626.675 1379.88C628.582 1380.74 631.61 1382.12 654.199 1388.95L655.146 1386.1L656.094 1383.26C633.488 1376.42 630.801 1375.14 629.284 1374.46L627.979 1377.17ZM655.146 1386.1L654.199 1388.95C676.817 1395.79 719.085 1408.08 741.17 1414.43L742.078 1411.57L742.986 1408.71C720.906 1402.37 678.671 1390.08 656.094 1383.26L655.146 1386.1ZM742.078 1411.57L741.17 1414.43C763.766 1420.93 766.293 1420.92 769.377 1420.89L769.417 1417.92L769.456 1414.94C767.41 1414.96 765.732 1415.25 742.986 1408.71L742.078 1411.57ZM769.417 1417.92L769.377 1420.89C771.019 1420.88 772.174 1421.14 773.7 1421.47L774.414 1418.56L775.128 1415.66C773.642 1415.33 771.869 1414.92 769.456 1414.94L769.417 1417.92ZM774.414 1418.56L773.7 1421.47C775.817 1421.93 786.347 1424.34 800.783 1427.35L801.473 1424.43L802.162 1421.52C787.746 1418.52 777.344 1416.14 775.128 1415.66L774.414 1418.56ZM801.473 1424.43L800.783 1427.35C803.345 1427.88 804.925 1428.21 805.941 1428.38C806.922 1428.55 807.783 1428.65 808.717 1428.47L808.194 1425.55L807.671 1422.63C807.923 1422.58 808.016 1422.67 807.103 1422.51C806.226 1422.36 804.786 1422.07 802.162 1421.52L801.473 1424.43ZM808.194 1425.55L808.717 1428.47C809.947 1428.23 810.857 1427.53 811.463 1426.91C812.08 1426.29 812.583 1425.54 812.994 1424.82C813.817 1423.38 814.536 1421.59 815.168 1419.83C815.805 1418.05 816.418 1416.12 816.977 1414.42C817.554 1412.66 818.067 1411.17 818.545 1410.08L815.773 1408.95L813 1407.83C812.39 1409.22 811.795 1410.98 811.227 1412.71C810.641 1414.49 810.071 1416.28 809.47 1417.96C808.863 1419.65 808.288 1421.04 807.742 1421.99C807.47 1422.47 807.269 1422.72 807.162 1422.83C807.044 1422.95 807.209 1422.72 807.671 1422.63L808.194 1425.55ZM815.773 1408.95L818.545 1410.08C818.582 1410 818.777 1409.66 819.699 1409.2C820.606 1408.74 821.836 1408.34 823.381 1407.93C824.767 1407.56 826.665 1407.11 828.196 1406.67C829.785 1406.21 831.537 1405.61 832.996 1404.69L831.405 1402.19L829.814 1399.7C829.13 1400.13 828.079 1400.54 826.614 1400.96C825.091 1401.4 823.684 1401.72 821.922 1402.19C820.318 1402.61 818.556 1403.15 817.034 1403.91C815.527 1404.68 813.858 1405.87 813 1407.83L815.773 1408.95ZM831.405 1402.19L832.996 1404.69C837.575 1401.8 839.971 1396.99 842.236 1390.18L839.364 1389.31L836.492 1388.44C834.274 1395.12 832.422 1398.05 829.814 1399.7L831.405 1402.19ZM839.364 1389.31L842.236 1390.18C844.01 1384.84 842.125 1379.13 840.29 1376.25L837.716 1377.87L835.143 1379.49C836.397 1381.46 837.526 1385.33 836.492 1388.44L839.364 1389.31ZM837.716 1377.87L840.29 1376.25C838.706 1373.76 836.35 1372.11 834.29 1370.91C833.255 1370.3 832.194 1369.75 831.306 1369.28C830.375 1368.79 829.633 1368.38 829.04 1367.98L827.292 1370.45L825.545 1372.91C826.425 1373.51 827.42 1374.05 828.343 1374.54C829.308 1375.05 830.216 1375.52 831.116 1376.05C832.928 1377.1 834.31 1378.18 835.143 1379.49L837.716 1377.87ZM827.292 1370.45L829.04 1367.98C829.023 1367.97 829.027 1367.97 829.041 1367.99C829.048 1367.99 829.056 1368.01 829.064 1368.02C829.071 1368.03 829.078 1368.05 829.082 1368.06L826.224 1369.09L823.365 1370.13C823.792 1371.34 824.591 1372.27 825.545 1372.91L827.292 1370.45ZM826.224 1369.09L829.082 1368.06C828.894 1367.53 828.833 1366.68 829.082 1365.12C829.334 1363.52 829.8 1361.72 830.36 1359.23L827.408 1358.65L824.456 1358.07C823.958 1360.29 823.399 1362.49 823.108 1364.33C822.812 1366.19 822.689 1368.21 823.365 1370.13L826.224 1369.09ZM827.408 1358.65L830.36 1359.23C830.53 1358.47 831.062 1357 831.707 1355.21C832.007 1354.37 832.316 1353.5 832.566 1352.73C832.799 1352 833.049 1351.16 833.146 1350.45L830.149 1350.12L827.153 1349.79C827.134 1349.92 827.039 1350.32 826.806 1351.04C826.59 1351.71 826.312 1352.5 826.011 1353.34C825.454 1354.89 824.731 1356.84 824.456 1358.07L827.408 1358.65ZM830.149 1350.12L833.146 1350.45C833.296 1349.35 833.291 1348.12 832.699 1347.01C832.074 1345.83 831.063 1345.32 830.725 1345.14L829.249 1347.77L827.773 1350.4C827.909 1350.47 827.845 1350.45 827.747 1350.37C827.616 1350.26 827.45 1350.09 827.324 1349.85C827.204 1349.63 827.183 1349.46 827.181 1349.43C827.179 1349.42 827.19 1349.52 827.153 1349.79L830.149 1350.12ZM829.249 1347.77L830.689 1345.12C828.363 1343.93 826.778 1342.85 825.8 1342.14L823.958 1344.54L822.115 1346.94C823.293 1347.8 825.147 1349.06 827.81 1350.42L829.249 1347.77Z" fill="black"/>
<path d="M574.698 1278.99C574.425 1278.31 573.887 1276.26 574.323 1271.03C574.55 1268.3 575.202 1266.71 575.495 1266.4C575.643 1266.24 576.03 1267.04 577.948 1271.3C579.867 1275.56 583.367 1283.5 585.291 1287.76C587.215 1292.02 587.457 1292.36 587.954 1292.79" stroke="black" stroke-width="6" stroke-linecap="round"/>
<path d="M592.699 1262.27C591.085 1262.92 587.833 1264.41 587.355 1265.16C586.072 1267.18 587.083 1270.12 587.524 1272.2C587.721 1273.13 588.01 1273.77 589.179 1273.96C595.597 1274.99 598.75 1274.31 600.594 1275.6C603.792 1277.84 604.509 1284.2 604.228 1286.02C603.904 1288.11 599.515 1289.23 596.992 1289.37C595.032 1289.47 594.862 1285.27 594.622 1282.6C594.403 1280.17 597.141 1275.67 598.917 1272.12C599.716 1270.53 600.035 1269.18 599.92 1268.27C598.929 1266.28 597.403 1264.81 595.962 1263.67C595.536 1263.34 595.033 1262.9 593.56 1262.07" stroke="black" stroke-width="6" stroke-linecap="round"/>
<path d="M610.914 1263.08L616.88 1277.92" stroke="black" stroke-width="6" stroke-linecap="round"/>
<path d="M609.27 1273.56L623.94 1267.66" stroke="black" stroke-width="6" stroke-linecap="round"/>
<path d="M580.35 1244.58C580.337 1244.59 578.272 1245.46 574.548 1247.3C572.824 1248.16 571.674 1249.31 570.474 1250.58C569.275 1251.86 568.122 1253.34 566.617 1255.56C565.112 1257.78 563.29 1260.7 562.258 1262.43C560.976 1264.58 560.698 1265.9 560.455 1267.5C560.219 1269.05 560.264 1270.71 560.142 1272.82C559.97 1275.78 559.593 1278.2 559.63 1279.54C559.659 1280.6 559.917 1281.47 560.74 1283.65C561.417 1285.44 562.77 1288.57 564.29 1291.42C565.809 1294.28 567.493 1296.75 568.65 1298.36C570.331 1300.71 571.583 1301.96 572.886 1303.16C574.329 1304.48 575.856 1305.6 577.237 1306.48C578.523 1307.3 580.747 1308.02 583.388 1308.94C585.26 1309.6 586.833 1310.22 588.696 1310.56C590.774 1310.94 592.804 1310.95 597.002 1310.22C600.335 1309.65 605.987 1308.11 610.452 1306.76C614.918 1305.4 617.994 1304.14 621.295 1302.21C624.597 1300.28 628.031 1297.73 630.294 1295.92C632.556 1294.11 633.543 1293.12 634.539 1291.96C636.588 1289.57 637.724 1287.81 638.193 1286.94C638.835 1285.75 639.38 1283.85 639.884 1281.95C640.199 1280.77 639.91 1278.75 639.055 1275.06C637.913 1270.13 636.148 1267.08 635.065 1265.35C634.245 1264.05 632.748 1261.95 630.211 1258.54C627.674 1255.13 624.11 1250.48 621.616 1247.43C617.946 1242.96 615.802 1241.26 614.511 1240.38C613.887 1239.96 613.236 1239.75 609.835 1239.28C606.435 1238.81 600.282 1238.13 596.505 1237.82C592.728 1237.51 591.515 1237.6 590.326 1237.8C587.985 1238.2 585.131 1239.25 582.295 1240.35C579.631 1241.38 578.764 1243.14 578.01 1244.34C577.763 1244.65 577.441 1244.93 577.183 1245.11C576.926 1245.29 576.742 1245.36 576.463 1245.31" stroke="black" stroke-width="6" stroke-linecap="round"/>
<path d="M921.223 1215.45C921.223 1215.24 921.223 1207.53 921.266 1195.48C921.309 1191.04 921.396 1189.98 921.485 1186.18C921.574 1182.38 921.663 1175.86 921.755 1169.14" stroke="black" stroke-width="6" stroke-linecap="round"/>
<path d="M944.479 1176.67L923.279 1196.99H910.471L901.196 1176.67L894.129 1140.01L901.196 1104.24L923.279 1098.94L944.479 1115.72L951.988 1147.08L944.479 1176.67Z" fill="#9ECB75"/>
<path d="M909.667 1192.87C912.45 1194.8 915.796 1195.39 916.993 1195.39C917.567 1195.1 928.064 1194.26 928.617 1193.97C929.171 1193.68 929.704 1193.39 930.293 1193C932.652 1191.31 934.873 1189.9 936.791 1187.74C939.541 1184.64 941.038 1181.62 943.245 1177.15C946.003 1171.56 949.825 1164.37 950.17 1156.99C950.605 1147.7 950.695 1134.55 949.594 1130.62C947.903 1124.58 946.685 1120.08 944.109 1116C942.441 1113.36 939.268 1110.74 934.927 1106.86C932.34 1104.54 930.058 1102.63 926.72 1101.93L926.664 1101.91C923.121 1101.17 913.774 1099.19 907.602 1101.91C906.022 1102.61 904.482 1103.4 903.187 1105.63C899.308 1112.32 897.405 1115.08 894.614 1128.42C893.874 1131.96 893.054 1139.45 894.228 1150.36C894.98 1157.36 895.817 1160.97 897.184 1165.65C899.939 1175.06 901.891 1181.6 902.52 1182.83C904.053 1185.8 906.031 1190.35 909.667 1192.87Z" stroke="black" stroke-width="6" stroke-linecap="round"/>
<path d="M122.528 1266.86C122.52 1266.83 123.165 1264.75 124.862 1259.97C127.057 1253.77 129.374 1248.7 130.381 1246.21C130.695 1245.44 131.12 1246 131.342 1246.55C131.565 1247.09 131.703 1247.7 133.206 1254.75C134.708 1261.81 137.571 1275.28 140.52 1289.16" stroke="black" stroke-width="6" stroke-linecap="round"/>
<path d="M156.447 1280.95C156.313 1280.34 156.631 1274.52 157.587 1265.97C158.564 1257.23 159.263 1255.79 159.707 1253.96C160.013 1252.7 160.102 1251.6 160.395 1251.16C160.512 1250.98 160.864 1251.24 163.562 1255.08C166.26 1258.92 171.369 1266.42 174.132 1270.42C176.895 1274.41 177.156 1274.69 177.853 1275.47" stroke="black" stroke-width="6" stroke-linecap="round"/>
<path d="M158.416 1270.89L171.539 1267.37" stroke="black" stroke-width="6" stroke-linecap="round"/>
<path d="M184.454 1273.09C184.449 1273.07 183.298 1268.67 181.457 1261.25C179.778 1254.48 179.514 1251.06 179.281 1249.6C179.219 1249.21 179.386 1249.51 179.519 1249.53C181.897 1249.97 189.374 1257.14 189.918 1257.28C190.48 1257.42 190.381 1255.78 191.958 1252.45C193.808 1248.54 194.935 1244.93 195.944 1243.03C196.246 1242.47 196.507 1242.83 196.928 1245.99C197.348 1249.15 198.984 1254.87 199.576 1259.16C200.167 1263.44 200.659 1265.86 201.219 1268.89" stroke="black" stroke-width="6" stroke-linecap="round"/>
<path d="M68.6691 1268.05L89.8039 1259.36L87.0908 1280.31L68.6691 1268.05Z" fill="#ED3E7B"/>
<path d="M91.2894 1257.24C91.2725 1257.31 90.6117 1261.16 89.614 1267.1C89.2141 1269.47 89.234 1272.15 89.1966 1276.06C89.1634 1279.52 88.6057 1280.63 88.5786 1281.12C88.5647 1281.37 88.6524 1281.66 90.2337 1285.7C91.8151 1289.73 94.9136 1297.5 96.8128 1302.23" stroke="black" stroke-width="6" stroke-linecap="round"/>
<path d="M85.2734 1307.84L109.971 1297.98" stroke="black" stroke-width="6" stroke-linecap="round"/>
<path d="M87.7661 1281.11C87.5394 1281.04 83.9803 1278.71 81.4639 1276.93C80.0613 1275.94 77.8762 1274.95 75.7353 1273.92C72.9536 1272.57 71.2499 1270.53 70.0478 1270.09C68.8562 1269.67 67.2144 1268.04 65.7761 1266.51C64.6654 1265.32 63.8651 1264.88 63.1003 1264.42C62.6673 1264.15 59.0234 1260.58 59.0234 1260.58" stroke="black" stroke-width="6" stroke-linecap="round"/>
<path d="M91.9677 1256.52C92.1333 1255.54 92.4904 1253.07 92.5028 1251.87C92.6007 1249.27 92.6556 1246.42 92.7392 1245.92C92.7863 1245.69 92.8431 1245.48 93.0367 1244.86" stroke="black" stroke-width="6" stroke-linecap="round"/>
<path d="M93.1901 1244.8C93.1657 1244.81 93.1412 1244.82 88.7397 1246.58C84.3383 1248.35 75.5606 1251.87 70.255 1254.13C64.9494 1256.39 63.3818 1257.3 62.3588 1257.91C60.3038 1259.2 59.8212 1259.5 59.5014 1259.74C59.3456 1259.86 59.2033 1259.99 58.9217 1260.21" stroke="black" stroke-width="6" stroke-linecap="round"/>
<path d="M69.0683 1267.8C69.0561 1267.81 72.1458 1266.58 76.9686 1264.62C78.9596 1263.72 87.8857 1260.04 91.4451 1258.52" stroke="black" stroke-width="6" stroke-linecap="round"/>
<path d="M218.333 1314.77C218.333 1309.2 214.82 1274.44 216.333 1267.87C216.502 1267.14 217.253 1266.8 217.983 1266.58C221.35 1265.59 226.963 1269.21 231.562 1272.4C236.985 1276.16 244.054 1281.17 246.926 1282.88C252.147 1285.99 265.675 1287.55 265.675 1287.55C265.675 1287.55 280.278 1282.76 283.208 1280.19C288.909 1275.18 298.811 1263.62 298.811 1263.62C298.811 1263.62 305.838 1272.19 315.764 1280.23C319.5 1283.25 322.028 1284.63 326.189 1285.28C331.491 1286.1 340.457 1283.37 349.661 1279.87C360.72 1275.68 371.358 1266.98 375.886 1264.9C376.411 1264.65 376.851 1265.69 377.061 1273.09C377.271 1280.49 377.271 1294.64 377.475 1302.2C377.68 1309.76 378.089 1310.31 378.619 1310.75C382.717 1314.19 391.627 1315.82 394.538 1317C396.075 1317.63 397.436 1318.42 398.341 1319.35C399.247 1320.29 392.295 1326.85 381.727 1335.74C375.947 1340.6 374.882 1343.64 373.221 1347.41C372.552 1348.93 372.303 1350.29 372.484 1351.61C372.66 1352.9 375.02 1355.25 380.368 1360.67C395.514 1376.03 397.658 1377.7 398.302 1378.98C398.606 1379.58 398.431 1380.26 398.016 1380.68C395.486 1383.25 389.861 1381.68 383.789 1383.05C379.701 1383.98 376.702 1385.3 374.669 1387.36C372.478 1389.59 373.181 1394.89 374.292 1398.99C376.374 1406.67 382.488 1413.81 386.359 1418.15C389.235 1421.38 392.173 1423.07 391.611 1423.84C389.463 1426.79 378.491 1423.41 365.869 1421.62C355.376 1420.13 349.969 1417.81 347.044 1416.9C334.665 1413.05 326.651 1410.17 325.221 1410.25C319.718 1410.52 314.555 1419.15 309.472 1425.49C303.26 1433.23 300.042 1439.51 297.016 1441.71C296.533 1442.06 295.829 1441.26 295.352 1440.27C292.039 1433.42 292.169 1423.73 290.009 1419.09C288.781 1416.45 287.118 1414.62 286.021 1413.44C285.508 1412.89 284.842 1412.68 283.637 1413.21C280.409 1414.63 273.837 1419.34 265.735 1424.01C261.502 1426.44 255.156 1429.16 246.522 1432.91C234.841 1437.99 223.989 1439.76 222.922 1439.65C221.766 1439.53 224.721 1432.4 229.024 1423.63C232.972 1415.58 238.861 1407.67 240.127 1405.62C240.598 1404.86 239.93 1404.3 237.737 1404.05C231.677 1403.38 226.965 1403.93 221.333 1404.18C207.112 1404.81 196.57 1404.2 195.011 1403.33C194.333 1402.94 194.323 1402.09 194.383 1401.42C194.501 1400.1 195.325 1398.89 197.672 1394.75C203.307 1384.79 208.12 1376.24 210.987 1372.6C214.032 1368.73 217.265 1364.8 219.279 1361.23C220.068 1359.84 219.724 1358.96 219.286 1358.3C216.733 1354.49 194.71 1334.94 187.943 1328.34C187.943 1328.34 187.943 1328.34 187.943 1328.34C187.942 1328.34 187.942 1328.34 187.942 1328.34C191.323 1331.99 184.189 1324.68 187.943 1328.34C188.138 1328.25 217.029 1315.16 218.333 1314.77Z" fill="#FFDC9B"/>
<path d="M187.942 1328.34C191.323 1331.99 184.189 1324.68 187.943 1328.34C194.71 1334.94 216.733 1354.49 219.286 1358.3C219.724 1358.96 220.068 1359.84 219.279 1361.23C217.265 1364.8 214.032 1368.73 210.987 1372.6C208.12 1376.24 203.307 1384.79 197.672 1394.75C195.325 1398.89 194.501 1400.1 194.383 1401.42C194.323 1402.09 194.333 1402.94 195.011 1403.33C196.57 1404.2 207.112 1404.81 221.333 1404.18C226.965 1403.93 231.677 1403.38 237.737 1404.05C239.93 1404.3 240.598 1404.86 240.127 1405.62C238.861 1407.67 232.972 1415.58 229.024 1423.63C224.721 1432.4 221.766 1439.53 222.922 1439.65C223.989 1439.76 234.841 1437.99 246.522 1432.91C255.156 1429.16 261.502 1426.44 265.735 1424.01C273.837 1419.34 280.409 1414.63 283.637 1413.21C284.842 1412.68 285.508 1412.89 286.021 1413.44C287.118 1414.62 288.781 1416.45 290.009 1419.09C292.169 1423.73 292.039 1433.42 295.352 1440.27C295.829 1441.26 296.533 1442.06 297.016 1441.71C300.042 1439.51 303.26 1433.23 309.472 1425.49C314.555 1419.15 319.718 1410.52 325.221 1410.25C326.651 1410.17 334.665 1413.05 347.044 1416.9C349.969 1417.81 355.376 1420.13 365.869 1421.62C378.491 1423.41 389.463 1426.79 391.611 1423.84C392.173 1423.07 389.235 1421.38 386.359 1418.15C382.488 1413.81 376.374 1406.67 374.292 1398.99C373.181 1394.89 372.478 1389.59 374.669 1387.36C376.702 1385.3 379.701 1383.98 383.789 1383.05C389.861 1381.68 395.486 1383.25 398.016 1380.68C398.431 1380.26 398.606 1379.58 398.302 1378.98C397.658 1377.7 395.514 1376.03 380.368 1360.67C375.02 1355.25 372.66 1352.9 372.484 1351.61C372.303 1350.29 372.552 1348.93 373.221 1347.41C374.882 1343.64 375.947 1340.6 381.727 1335.74C392.295 1326.85 399.247 1320.29 398.341 1319.35C397.436 1318.42 396.075 1317.63 394.538 1317C391.627 1315.82 382.717 1314.19 378.619 1310.75C378.089 1310.31 377.68 1309.76 377.475 1302.2C377.271 1294.64 377.271 1280.49 377.061 1273.09C376.851 1265.69 376.411 1264.65 375.886 1264.9C371.358 1266.98 360.72 1275.68 349.661 1279.87C340.457 1283.37 331.491 1286.1 326.189 1285.28C322.028 1284.63 319.5 1283.25 315.764 1280.23C305.838 1272.19 298.811 1263.62 298.811 1263.62C298.811 1263.62 288.909 1275.18 283.208 1280.19C280.278 1282.76 265.675 1287.55 265.675 1287.55C265.675 1287.55 252.147 1285.99 246.926 1282.88C244.054 1281.17 236.985 1276.16 231.562 1272.4C226.963 1269.21 221.35 1265.59 217.983 1266.58C217.253 1266.8 216.502 1267.14 216.333 1267.87C214.82 1274.44 218.333 1309.2 218.333 1314.77C217.025 1315.17 187.942 1328.34 187.942 1328.34ZM187.942 1328.34C185.294 1325.48 189.112 1331.91 187.942 1328.34Z" stroke="black" stroke-width="6" stroke-linecap="round"/>
<path d="M236.082 1315.11C236.082 1314.3 236.505 1311.91 237.973 1309.88C239.291 1308.05 242.915 1307.63 248.742 1307.71C251.891 1307.75 253.324 1311.08 254.385 1313.08C256.112 1316.32 254.76 1321.33 253.23 1324.37C252.269 1326.28 248.569 1327.47 245.159 1328.49C241.148 1329.7 256.065 1328 258.159 1328.79C259.016 1329.12 259.454 1329.99 259.746 1330.87C260.429 1332.96 259.371 1336.3 255.385 1342.48C251.544 1346.59 248.639 1347.78 245.251 1348.15C243.671 1348.2 241.163 1348.21 238.51 1348.17" stroke="black" stroke-width="6" stroke-linecap="round"/>
<path d="M269.553 1344.1C269.553 1344.16 269.553 1344.22 269.553 1345.31C269.553 1346.4 269.553 1348.52 269.516 1349.91C269.48 1351.3 269.407 1351.9 269.27 1352.77" stroke="black" stroke-width="6" stroke-linecap="round"/>
<path d="M287.101 1304.73C286.609 1304.72 284.97 1305.42 283.105 1307.29C280.978 1309.42 280.469 1311.41 279.311 1315.1C278.462 1317.81 278.677 1323.25 279.102 1328.16C279.363 1331.16 280.389 1333.21 281.031 1335.17C281.796 1337.5 284.144 1338.68 285.909 1339.49C287.771 1340.34 290.463 1340.14 292.568 1339.73C294.269 1339.4 296.021 1336.74 298.055 1333.28C299.482 1330.85 299.38 1322.5 298.716 1315.88C298.439 1313.11 296.717 1310.2 295.688 1308.18C294.336 1306.71 292.454 1305.49 290.38 1304.54C289.883 1304.31 289.397 1304.07 287.958 1303.58" stroke="black" stroke-width="6" stroke-linecap="round"/>
<path d="M312.267 1302.91C311.933 1303.27 310.754 1305.18 309.473 1308.07C307.915 1311.6 306.043 1317.82 305.787 1324.82C305.594 1330.12 309.981 1336.2 311.379 1337.67C313.038 1339.41 315.261 1339.31 319.88 1339.32C322.331 1339.33 323.727 1337.73 325.413 1335.82C329.037 1331.7 328.709 1329.04 328.749 1322.3C328.775 1317.88 326.659 1313.99 325.612 1311.13C324.895 1309.17 323.166 1307.46 321.977 1305.77C320.826 1304.13 318.776 1302.98 316.851 1302.45C316.411 1302.38 316.002 1302.34 315.375 1302.31C314.748 1302.29 313.916 1302.29 313.059 1302.29" stroke="black" stroke-width="6" stroke-linecap="round"/>
<path d="M343.622 1301.77C343.312 1302.07 341.025 1305 338.261 1309.66C336.173 1313.19 335.855 1318.36 335.543 1329.36C335.43 1333.35 336.554 1336.07 337.262 1337.77C337.948 1339.41 340.777 1340.43 344.145 1341.13C346.364 1341.59 348.088 1341.06 348.91 1340.72C351.484 1339.65 353.867 1336.53 355.276 1334.37C356.715 1332.15 356.505 1323.74 355.875 1315.55C355.562 1311.48 354.114 1308.83 351.925 1304.85C351.319 1303.96 350.747 1303.31 350.23 1302.76C349.713 1302.2 349.27 1301.76 347.847 1300.79" stroke="black" stroke-width="6" stroke-linecap="round"/>
<path d="M339.142 1366.82C339.118 1366.82 339.093 1366.82 336.559 1366.82C334.025 1366.82 328.982 1366.82 323.566 1366.97" stroke="black" stroke-width="6" stroke-linecap="round"/>
<path d="M269.4 1369.48C268.477 1369.48 266.187 1369.67 265.102 1370.28C262.856 1371.55 261.637 1373.14 260.953 1374.32C260.23 1375.56 260.865 1377.54 261.813 1379.25C262.549 1380.57 264.07 1381 266.02 1381.66C269.98 1383 271.127 1383.33 272.093 1384.08C272.915 1384.71 273.501 1385.46 273.798 1386.02C274.68 1387.67 273.917 1390.24 273.365 1391.24C272.89 1392.11 272.083 1392.68 271.038 1393.29C267.911 1394.15 265.318 1394.44 263.961 1394.57C263.417 1394.61 262.565 1394.63 261.687 1394.65" stroke="black" stroke-width="6" stroke-linecap="round"/>
<path d="M282.636 1383.24C282.651 1383.24 285.372 1383.24 289.861 1383.19C292.397 1383.16 293.388 1382.87 293.793 1382.65C294.639 1382.19 295.008 1381.12 295.29 1379.99C295.535 1379.01 295.193 1378.13 294.897 1377.65C294.316 1376.72 293.062 1375.99 292.074 1375.25C291.303 1374.68 289.986 1374.3 286.532 1374.28C284.285 1374.27 283.555 1375.33 282.604 1376.3C281.835 1377.08 281.712 1378.21 281.492 1380.01C281.236 1382.1 281.031 1383.7 281.892 1386.24C282.512 1388.08 283.584 1388.88 284.523 1389.38C286.024 1390.18 287.718 1390.14 289.348 1390.54C290.735 1390.89 291.731 1391.18 294.997 1391.23C295.869 1391.17 296.516 1391.02 296.954 1390.91C297.391 1390.8 297.6 1390.73 298.114 1390.59" stroke="black" stroke-width="6" stroke-linecap="round"/>
<path d="M312.499 1374.51C311.986 1374.51 310.483 1374.65 308.665 1375.69C306.478 1376.93 305.927 1378.63 304.865 1381.52C304.013 1383.84 304.734 1387.2 305.337 1387.92C306.132 1388.87 308.29 1389.33 310.335 1389.6C313.989 1390.07 315.018 1389.25 315.805 1388.76C315.988 1388.62 316.151 1388.49 316.327 1388.34C316.503 1388.2 316.686 1388.06 316.946 1387.87" stroke="black" stroke-width="6" stroke-linecap="round"/>
<path d="M313.791 1374.33C314.098 1374.33 315.114 1374.57 315.812 1375.2C316.469 1375.79 316.697 1377.31 316.961 1379.12C317.12 1380.21 317.156 1381.2 317.277 1382.13C317.409 1383.13 317.522 1384.55 317.652 1385.68C317.754 1386.56 318.115 1387.16 318.424 1387.49C320.026 1387.8 322.519 1387.89 323.776 1388.01C324.332 1388.03 325.202 1388.03 326.097 1388.03" stroke="black" stroke-width="6" stroke-linecap="round"/>
<path d="M330.146 1363.66C330.146 1363.67 330.158 1366.42 330.188 1370.7C330.201 1372.46 330.708 1375.71 331.423 1380.43C331.927 1383.76 332.733 1385.93 332.985 1386.82C333.276 1387.86 334.208 1388.69 335.221 1389.37C335.694 1389.54 336.25 1389.66 336.905 1389.74C337.236 1389.77 337.567 1389.77 337.907 1389.78" stroke="black" stroke-width="6" stroke-linecap="round"/>
<path d="M350.848 1375.01C349.548 1375.01 346.336 1375.25 345.111 1376.02C344.32 1376.51 343.769 1377.2 343.43 1377.76C342.639 1379.04 343.309 1381.07 343.581 1381.58C344.087 1382.53 346.341 1382.46 349.343 1383.29C350.892 1383.72 352.216 1384.94 352.863 1386.03C352.973 1386.21 352.88 1386.46 352.775 1386.64C352.331 1387.44 351.046 1387.94 348.935 1389C347.625 1389.66 346.39 1389.99 345.211 1390.13C344.876 1390.15 344.441 1390.17 343.993 1390.19" stroke="black" stroke-width="6" stroke-linecap="round"/>
<path d="M823.772 1285.33L824.218 1277.97L829.514 1279.39L833.331 1286.33L887.371 1317.69L883.086 1324.72L874.123 1322.32L871.338 1332.71L866.449 1331.4L863.971 1325.17L853.576 1315.07L809.519 1288.82L813.239 1283.9L823.772 1285.33Z" fill="white"/>
<path d="M832.383 1285.25C832.395 1284.96 832.246 1283.9 831.595 1282.46C830.742 1280.57 828.348 1279.13 826.417 1278.56C825.611 1278.32 824.973 1278.63 824.479 1278.82C822.904 1279.43 823.143 1282.18 823.53 1283.36C823.721 1283.94 824.194 1284.58 824.349 1285.2C824.945 1287.61 816.096 1283.77 814.74 1283.91C813.409 1284.05 812.365 1284.59 811.42 1285.18C810.422 1285.81 809.884 1287.46 810.031 1288.79C810.174 1290.08 812.639 1290.88 813.663 1291.77C815.432 1293.33 819.185 1294.66 822.09 1295.76C823.943 1296.47 825.253 1297.17 825.923 1297.54C826.503 1297.85 829.873 1299.83 837.361 1304.4C841.787 1307.09 847.241 1310.86 850.38 1313.02C855.644 1316.64 858.212 1319.15 859.583 1320.46C860.861 1321.68 861.733 1322.74 862.352 1323.77C863.026 1324.89 863.675 1326.9 864.989 1329.96C865.4 1330.91 865.883 1331.43 866.364 1331.84C867.458 1332.79 870.028 1333.33 871.606 1333.25C872.975 1333.18 873.244 1330.23 873.844 1328.37C874.884 1325.17 874.38 1323.96 873.819 1322.79C873.654 1322.44 873.434 1322.03 873.488 1321.79C873.541 1321.56 873.863 1321.5 874.187 1321.52C875.449 1321.61 879.417 1323.08 882.215 1323.64C883.509 1323.9 884.702 1323.06 885.984 1322.32C886.552 1321.99 886.829 1321.53 887.098 1320.88C887.541 1319.81 887.331 1318.65 886.779 1317.87C885.924 1316.65 884.424 1315.74 883.205 1315.2C881.116 1314.27 879.075 1313.27 877.462 1312.57C876.069 1311.97 874.588 1311.31 872.288 1310.22C868 1308.18 865.203 1306.4 863.141 1304.88C861.346 1303.56 858.031 1301.11 855.327 1299.26C850.732 1296.11 848.224 1294.73 847.471 1294.21C844.528 1292.16 839.296 1289.63 837.694 1288.66C836.023 1287.73 835.05 1287.07 834.209 1286.3C834.01 1286.1 833.813 1285.89 833.609 1285.68" stroke="black" stroke-width="6" stroke-linecap="round"/>
<path d="M871.643 1295.72L880.6 1293.25L880.808 1298.18L879.72 1302.24L889.091 1304.75L889.168 1310.16L874.082 1309.43L829.512 1312.8L819.96 1319.12L814.256 1317.59L817.475 1305.57L808.309 1303.12L807.796 1296.89L815.854 1296.96L871.643 1295.72Z" fill="white"/>
<path d="M872.11 1295.89C872.241 1295.64 872.903 1294.79 874.187 1293.87C875.87 1292.66 878.662 1292.61 880.62 1293.09C881.437 1293.28 881.836 1293.87 882.169 1294.28C883.23 1295.59 881.647 1297.85 880.722 1298.68C880.268 1299.09 879.536 1299.41 879.089 1299.87C877.371 1301.65 886.952 1302.76 888.057 1303.56C889.142 1304.34 889.777 1305.33 890.297 1306.32C890.848 1307.36 890.489 1309.06 889.698 1310.13C888.929 1311.18 886.394 1310.64 885.059 1310.9C882.751 1311.36 878.832 1310.64 875.766 1310.15C873.809 1309.83 872.321 1309.79 871.559 1309.77C870.899 1309.75 866.992 1309.78 858.225 1309.99C853.042 1310.11 846.438 1310.64 842.639 1310.94C836.268 1311.45 832.789 1312.34 830.949 1312.79C829.231 1313.2 827.944 1313.69 826.896 1314.27C825.752 1314.9 824.184 1316.32 821.517 1318.31C820.683 1318.93 820.007 1319.14 819.383 1319.26C817.963 1319.53 815.467 1318.71 814.139 1317.85C812.988 1317.11 814.233 1314.42 814.64 1312.51C815.344 1309.21 816.384 1308.42 817.456 1307.68C817.772 1307.47 818.166 1307.22 818.239 1306.99C818.312 1306.76 818.059 1306.55 817.768 1306.41C816.634 1305.85 812.462 1305.14 809.756 1304.23C808.505 1303.81 807.893 1302.48 807.153 1301.2C806.825 1300.63 806.819 1300.09 806.91 1299.39C807.06 1298.25 807.823 1297.35 808.692 1296.94C810.039 1296.32 811.792 1296.28 813.12 1296.42C815.395 1296.66 817.663 1296.81 819.409 1297.01C820.917 1297.19 822.527 1297.36 825.066 1297.56C829.8 1297.94 833.109 1297.8 835.654 1297.52C837.871 1297.27 841.965 1296.81 845.234 1296.56C850.789 1296.12 853.65 1296.18 854.563 1296.11C858.136 1295.81 863.932 1296.23 865.803 1296.19C867.715 1296.22 868.888 1296.14 870.002 1295.89C870.277 1295.81 870.551 1295.73 870.833 1295.65" stroke="black" stroke-width="6" stroke-linecap="round"/>
<path d="M852.363 1242.09L868.954 1243.23L877.201 1250.21L879.25 1263.07L869.665 1270.05L864.704 1281.02L856.463 1282.31L848.238 1280.1L846.073 1265.56L840.709 1259.53L842.299 1249.49L852.363 1242.09Z" fill="white"/>
<path d="M865.803 1241.2C865.808 1241.18 863.375 1240.53 859.399 1239.52C857.316 1239 856.006 1239.16 853.977 1239.47C850.651 1239.97 848.19 1240.71 847.229 1241.11C844.659 1242.15 842.537 1244.36 841.648 1245.71C840.566 1247.35 839.772 1250.75 838.926 1254.78C837.763 1260.31 838.935 1262.02 839.32 1263.34C839.619 1264.37 840.558 1265.1 842.193 1266.03C843.415 1266.72 844.481 1267.15 845.574 1267.64C846.521 1268.07 847.524 1268.74 848.151 1269.5C848.722 1270.19 848.178 1271.62 848.019 1272.68C847.81 1274.07 847.467 1276.29 847.33 1277.61C847.133 1279.5 847.083 1280.88 847.125 1282.18C847.134 1282.44 847.174 1282.67 847.295 1282.82C847.853 1283.56 849.108 1283.31 850.011 1283.06C850.518 1282.92 851.129 1282.52 851.808 1282.27C852.833 1281.88 853.602 1284.04 854.343 1285.08C854.625 1285.47 854.958 1285.73 855.367 1285.8C856.272 1285.94 857.551 1284.4 858.734 1283.47C858.95 1283.3 859.095 1283.13 859.286 1283.03C859.476 1282.93 859.695 1282.89 859.893 1283C860.821 1283.49 861.096 1285.07 862.161 1286.43C862.376 1286.7 862.626 1286.76 862.837 1286.76C863.269 1286.76 863.711 1286.35 864.139 1285.95C864.951 1285.19 866.313 1280.28 867.125 1277.22C867.737 1274.92 867.89 1274.05 868.723 1273.39C869.649 1272.66 871.759 1271.98 873.238 1271.37C874.347 1270.9 875.261 1270.04 876.127 1269.16C876.494 1268.79 877.171 1266.28 878.141 1262.8C878.876 1260.16 878.081 1257.69 877.525 1256.05C876.918 1254.26 876.249 1252.69 875.828 1250.34C875.542 1248.75 874.889 1247.96 873.722 1246.79C872.359 1245.42 871.51 1244.53 870.757 1243.83C869.851 1243.19 868.65 1242.58 867.409 1242.15C866.606 1241.9 865.449 1241.56 864.258 1241.22" stroke="black" stroke-width="6" stroke-linecap="round"/>
<path d="M852.819 1255.91C852.724 1255.9 852.097 1256.09 851.558 1256.42C850.984 1256.77 850.707 1257.42 850.55 1258.2C850.346 1259.21 851.085 1259.97 851.284 1260.32C851.427 1260.58 851.846 1260.67 852.226 1260.76C852.688 1260.86 853.027 1260.61 853.305 1260.46C853.656 1260.28 853.988 1258.71 854.176 1257.86C854.237 1257.58 854.154 1257.23 854.039 1256.98C853.827 1256.75 853.724 1256.58 853.657 1256.46C853.624 1256.4 853.59 1256.35 853.423 1256.2" stroke="black" stroke-width="6" stroke-linecap="round"/>
<path d="M865.456 1257.95C865.432 1258.04 865.073 1258.52 864.316 1259.15C863.707 1259.65 863.419 1260.51 863.355 1261.18C863.311 1261.64 864.22 1262.74 864.762 1263.39C864.894 1263.55 865.288 1263.66 865.687 1263.74C865.993 1263.8 866.372 1263.51 866.847 1263.25C867.108 1263.11 867.327 1262.4 867.612 1261.32C867.848 1260.42 867.688 1260.13 867.498 1259.63C867.363 1259.28 867.071 1258.96 866.823 1258.72C866.447 1258.45 866.098 1258.21 865.871 1258.1C865.724 1258.05 865.514 1257.99 865.283 1257.93" stroke="black" stroke-width="6" stroke-linecap="round"/>
</g>
<defs>
<clipPath id="clip0_8914_4224">
<rect width="1308" height="1611" fill="white"/>
</clipPath>
</defs>
</svg>
